<?xml version="1.0" standalone="no"?>
<!DOCTYPE svg PUBLIC "-//W3C//DTD SVG 1.1//EN" "http://www.w3.org/Graphics/SVG/1.1/DTD/svg11.dtd" >
<svg xmlns="http://www.w3.org/2000/svg" xmlns:xlink="http://www.w3.org/1999/xlink" version="1.1">
<metadata>
Created by FontForge 20200427 at Wed Feb 22 09:04:02 2006
 By www
(c) 2000 Ray Larabie. This font is freeware. Read attached text file for details. Info &#38; updates visit www.larabiefonts.com. Donations gratefully accepted at www.larabiefonts.com/donation.html. Also visit my commercial type foundry at www.typodermic.com. This font was updated in 2006.
</metadata>
<defs>
<font id="YoureGone" horiz-adv-x="755" >
  <font-face 
    font-family="You're Gone"
    font-weight="400"
    font-stretch="normal"
    units-per-em="1000"
    panose-1="2 0 0 0 0 0 0 0 0 0"
    ascent="800"
    descent="-200"
    x-height="744"
    cap-height="744"
    bbox="-356 -217 1708 983"
    underline-thickness="20"
    underline-position="-143"
    unicode-range="U+0020-2212"
  />
<missing-glyph horiz-adv-x="791" 
d="M400 -1q-77 0 -145 29.5t-119 80.5t-80.5 119t-29.5 145t29.5 145t80.5 118.5t119 80t145 29.5t145 -29.5t119 -80t80.5 -118.5t29.5 -145t-29.5 -145t-80.5 -119t-119 -80.5t-145 -29.5zM734 371q0 69 -26.5 130t-71.5 106.5t-105.5 71.5t-129.5 26t-129 -26t-105 -71.5
t-70.5 -106.5t-25.5 -130t25.5 -129t70.5 -105t105 -71t129 -26t129.5 26t105.5 71t71.5 105t26.5 129z" />
    <glyph glyph-name=".notdef" horiz-adv-x="791" 
d="M400 -1q-77 0 -145 29.5t-119 80.5t-80.5 119t-29.5 145t29.5 145t80.5 118.5t119 80t145 29.5t145 -29.5t119 -80t80.5 -118.5t29.5 -145t-29.5 -145t-80.5 -119t-119 -80.5t-145 -29.5zM734 371q0 69 -26.5 130t-71.5 106.5t-105.5 71.5t-129.5 26t-129 -26t-105 -71.5
t-70.5 -106.5t-25.5 -130t25.5 -129t70.5 -105t105 -71t129 -26t129.5 26t105.5 71t71.5 105t26.5 129z" />
    <glyph glyph-name="space" unicode=" " horiz-adv-x="314" 
 />
    <glyph glyph-name="exclam" unicode="!" horiz-adv-x="293" 
d="M147 0q-21 0 -39.5 8t-33 22.5t-22.5 33t-8 39.5t8 40t22.5 33t33 22.5t39.5 8.5t39.5 -8.5t32.5 -22.5t22 -33t8 -40t-8 -39.5t-22 -33t-32.5 -22.5t-39.5 -8zM42 642q0 25 8.5 44t22.5 32t32.5 19.5t39.5 6.5q42 0 72 -25.5t30 -76.5v-329q0 -49 -30 -76.5t-72 -27.5
q-21 0 -39.5 7t-32.5 20.5t-22.5 33t-8.5 43.5v329z" />
    <glyph glyph-name="quotedbl" unicode="&#x22;" horiz-adv-x="400" 
d="M226 725q0 33 20.5 51.5t48.5 18.5q29 0 49.5 -18.5t20.5 -51.5v-152q0 -34 -20.5 -52t-49.5 -18q-28 0 -48.5 18t-20.5 52v152zM39 725q0 33 20.5 51.5t48.5 18.5q29 0 49.5 -18.5t20.5 -51.5v-152q0 -34 -20.5 -52t-49.5 -18q-28 0 -48.5 18t-20.5 52v152z" />
    <glyph glyph-name="numbersign" unicode="#" horiz-adv-x="797" 
d="M431 313h-52l-11 -31h52zM708 204l-4 -15q-15 -39 -56 -39h-120l-48 -131q-14 -39 -55 -39h-34q-60 0 -60 50q0 12 5 27l34 93h-52l-48 -131q-15 -39 -56 -39h-32q-61 0 -61 51q0 18 5 28l33 91h-74q-63 0 -63 51q0 13 8 31l5 11v-1q15 40 56 40h117l11 31h-72
q-61 0 -61 52q0 7 0.5 11t1.5 9l7 19v-2q10 43 55 43h120l49 129q15 40 54 40h33q62 0 62 -51q0 -12 -6 -30v2l-35 -90h51l52 136q16 33 53 33h33q62 0 62 -52q0 -7 -2 -13.5t-4 -17.5l-34 -86h76q61 0 61 -51q0 -14 -6 -30v2l-4 -13q-13 -40 -56 -40h-121l-11 -31h75
q61 0 61 -53q0 -14 -5 -26v1z" />
    <glyph glyph-name="dollar" unicode="$" horiz-adv-x="659" 
d="M280 538h-33q-41 0 -41 -31t41 -31h33v62zM414 207q41 0 41 31t-41 31h-34v-62h34zM380 0v-16q0 -26 -15.5 -38.5t-34.5 -12.5t-34.5 12.5t-15.5 38.5v16h-144q-99 0 -99 100q0 107 100 107h143v62h-35q-109 0 -164 60.5t-55 177.5q0 238 234 238h20v16q0 26 15.5 38.5
t34.5 12.5t34.5 -12.5t15.5 -38.5v-16h107q99 0 99 -100q0 -107 -100 -107h-106v-62h35q111 0 165 -60.5t54 -177.5q0 -238 -232 -238h-22z" />
    <glyph glyph-name="percent" unicode="%" horiz-adv-x="967" 
d="M797 157q0 11 -7 18.5t-17 7.5q-11 0 -18 -7.5t-7 -18.5q0 -25 25 -25q10 0 17 7t7 18zM204 569q11 0 17.5 7.5t6.5 17.5q0 25 -24 25q-11 0 -18.5 -7t-7.5 -18q0 -10 7.5 -17.5t18.5 -7.5zM773 4q-32 0 -59.5 12t-48 32.5t-32.5 48t-12 59.5q0 31 12 58.5t32.5 48
t48 32.5t59.5 12q31 0 59 -12t48.5 -32.5t32.5 -48t12 -58.5q0 -32 -12 -59.5t-32.5 -48t-48.5 -32.5t-59 -12zM204 441q-33 0 -61.5 11.5t-48.5 32t-31.5 48t-11.5 59.5t12 60t33 48.5t48.5 32.5t59.5 12q30 0 57.5 -12t48.5 -33t33 -49t12 -59q0 -30 -11.5 -57.5
t-32 -48.5t-48 -33t-59.5 -12zM208 21q-32 -21 -63 -21q-21 0 -39.5 8.5t-32.5 23.5t-22.5 34t-8.5 40q0 45 38 78l674 540q28 22 63 22q21 0 39.5 -9t33 -23.5t23 -34t8.5 -40.5q0 -45 -40 -78z" />
    <glyph glyph-name="ampersand" unicode="&#x26;" horiz-adv-x="764" 
d="M437 269h-123q-41 0 -41 -31t41 -31h123v62zM239 0q-48 0 -83 14.5t-57.5 40t-33.5 61.5t-11 80q0 73 38 119.5t107 57.5q-69 10 -107 55t-38 120q0 43 11 79.5t33.5 62.5t58 40.5t85.5 14.5h93q94 0 94 -103q0 -104 -95 -104h-20q-41 0 -41 -31t41 -31h123v16
q0 51 31 76.5t73 25.5t72 -26.5t30 -75.5v-16h17q98 0 98 -103q0 -104 -99 -104h-16v-166q0 -27 -9.5 -46.5t-25.5 -32t-36 -18.5t-42 -6h-291z" />
    <glyph glyph-name="quotesingle" unicode="'" horiz-adv-x="213" 
d="M39 725q0 33 20.5 51.5t48.5 18.5q29 0 49.5 -18.5t20.5 -51.5v-152q0 -34 -20.5 -52t-49.5 -18q-28 0 -48.5 18t-20.5 52v152z" />
    <glyph glyph-name="parenleft" unicode="(" horiz-adv-x="353" 
d="M304 800q-60 -96 -91 -215t-31 -246q0 -122 29.5 -233.5t92.5 -202.5q5 -8 9.5 -20.5t4.5 -23.5q0 -15 -7 -29t-18.5 -24.5t-26 -16.5t-29.5 -6q-30 0 -55 30q-39 45 -69 107t-49.5 133.5t-29.5 150.5t-10 159q0 79 9.5 154.5t29 144t49.5 127.5t70 104q13 14 24.5 21
t30.5 7q14 0 28.5 -6t26 -16.5t19 -24t7.5 -29.5q0 -22 -14 -45z" />
    <glyph glyph-name="parenright" unicode=")" horiz-adv-x="353" 
d="M37 800q-13 22 -13 45q0 16 7.5 29.5t19 24t26 16.5t28.5 6q17 0 28.5 -7t25.5 -21q40 -44 70 -103t49.5 -128t29.5 -145t10 -154q0 -80 -10 -159t-30 -150.5t-50 -133.5t-69 -107q-26 -30 -54 -30q-15 0 -29.5 6t-26 16.5t-18.5 24.5t-7 29q0 11 3.5 23.5t9.5 20.5
q63 91 92.5 202.5t29.5 233.5q0 127 -31 246t-91 215z" />
    <glyph glyph-name="asterisk" unicode="*" horiz-adv-x="521" 
d="M323 388v-81q0 -67 -61 -67q-63 0 -63 67v81l-81 -43q-9 -5 -16.5 -8.5t-15.5 -2.5q-30 0 -48 16.5t-18 45.5q0 37 36 55l84 42l-84 43q-36 15 -36 53q0 29 18 47t45 18q10 0 17.5 -2.5t16.5 -7.5l82 -45v83q0 63 63 63q61 0 61 -63v-83l82 45q17 10 34 10q10 0 21 -4.5
t20 -12.5t15 -20.5t6 -27.5q0 -37 -34 -53l-86 -43l86 -42q17 -11 25.5 -23.5t8.5 -31.5q0 -15 -6 -26.5t-15 -19.5t-20 -12t-21 -4q-14 -1 -33 10z" />
    <glyph glyph-name="plus" unicode="+" horiz-adv-x="578" 
d="M397 267v-65q0 -49 -30 -76.5t-72 -27.5t-72 27.5t-30 76.5v65h-73q-49 0 -76.5 30t-27.5 72t27.5 72.5t76.5 30.5h73v65q0 49 30 76t72 27t72 -27t30 -76v-65h59q49 0 76 -30.5t27 -72.5t-27 -72t-76 -30h-59z" />
    <glyph glyph-name="comma" unicode="," horiz-adv-x="285" 
d="M244 -65q0 -48 -30 -75t-72 -27t-72 27t-30 75v134q0 43 28 72.5t74 29.5t74 -29.5t28 -72.5v-134z" />
    <glyph glyph-name="hyphen" unicode="-" horiz-adv-x="628" 
d="M146 267q-24 0 -43.5 8.5t-33 22.5t-20.5 32.5t-7 39.5t7 40t20.5 34t33 23.5t43.5 8.5h336q24 0 43.5 -8.5t33 -23.5t20.5 -34t7 -40t-7 -39.5t-20.5 -32.5t-33 -22.5t-43.5 -8.5h-336z" />
    <glyph glyph-name="period" unicode="." horiz-adv-x="272" 
d="M239 86q0 -21 -8 -39.5t-22.5 -32.5t-33 -22t-39.5 -8t-40 8t-33 22t-22.5 32.5t-8.5 39.5t8.5 39.5t22.5 33t33 22.5t40 8t39.5 -8t33 -22.5t22.5 -33t8 -39.5z" />
    <glyph glyph-name="slash" unicode="/" horiz-adv-x="359" 
d="M204 735q6 29 24.5 41.5t41.5 12.5q15 0 29 -5t25 -14t18 -22t7 -29q0 -13 -4 -22l-200 -713q-9 -29 -27.5 -41.5t-40.5 -12.5q-31 0 -54 19t-23 50q0 14 4 23z" />
    <glyph glyph-name="zero" unicode="0" horiz-adv-x="825" 
d="M586 373q0 36 -13.5 67.5t-37.5 55t-55.5 37t-67.5 13.5t-67.5 -13.5t-54.5 -37t-36.5 -55t-13.5 -67.5t13.5 -67.5t36.5 -54.5t54.5 -36.5t67.5 -13.5t67.5 13.5t55.5 36.5t37.5 54.5t13.5 67.5zM792 375q0 -80 -30 -149t-81.5 -120.5t-121 -81t-148.5 -29.5t-148 29.5
t-120.5 81t-81.5 120.5t-30 149q0 79 30 148.5t81.5 121t120.5 81.5t148 30t148.5 -30t121 -81.5t81.5 -121t30 -148.5z" />
    <glyph glyph-name="one" unicode="1" horiz-adv-x="407" 
d="M156 405q-26 -14 -53 -14q-20 0 -37.5 8.5t-30 22.5t-19.5 32.5t-7 38.5q0 48 35 83l140 139q41 41 88 41q40 0 64 -29.5t24 -83.5v-538q0 -51 -30 -77t-72 -26t-72 26t-30 77v300z" />
    <glyph glyph-name="two" unicode="2" horiz-adv-x="693" 
d="M70 0q-25 0 -26 31v207q0 117 54 177.5t165 60.5h168q41 0 41 31t-41 31h-276q-48 0 -74 26t-26 78q0 51 23.5 77t74.5 26h264q235 0 235 -238q0 -117 -54.5 -177.5t-165.5 -60.5h-168q-22 0 -31 -7.5t-9 -23.5v-31h317q111 0 111 -104q0 -103 -110 -103h-472z" />
    <glyph glyph-name="three" unicode="3" horiz-adv-x="683" 
d="M142 0q-98 0 -98 103q0 104 99 104h227q41 0 41 31t-41 31h-228q-98 0 -98 104q0 103 97 103h229q41 0 41 31t-41 31h-232q-94 0 -94 104q0 103 93 103h305q49 0 84.5 -14.5t58 -40t33.5 -61t11 -77.5q0 -75 -37.5 -122t-106.5 -57q69 -11 106.5 -58.5t37.5 -122.5
q0 -42 -11 -77.5t-33.5 -61t-57 -39.5t-82.5 -14h-303z" />
    <glyph glyph-name="four" unicode="4" horiz-adv-x="644" 
d="M391 269h-270q-102 0 -102 104v269q0 49 30 75.5t72 26.5t72.5 -25.5t30.5 -76.5v-166h167v166q0 25 8.5 44t22.5 32t32.5 19.5t38.5 6.5q42 0 73 -25.5t31 -76.5v-539q0 -51 -31 -76.5t-73 -25.5q-20 0 -38.5 6.5t-32.5 19.5t-22.5 32t-8.5 44v166z" />
    <glyph glyph-name="five" unicode="5" horiz-adv-x="690" 
d="M164 0q-110 0 -110 100q0 107 112 107h264q41 0 41 31t-41 31h-338q-42 4 -42 35q0 9 1 12v399q7 30 39 30h451q98 0 98 -100q0 -107 -99 -107h-283v-62h174q111 0 165 -60.5t54 -177.5q0 -238 -231 -238h-255z" />
    <glyph glyph-name="six" unicode="6" horiz-adv-x="678" 
d="M282 269q-33 0 -33 -31t33 -31h135q42 0 42 31t-42 31h-135zM263 0q-115 0 -167 60t-52 183v267q0 235 234 235h250q99 0 99 -100q0 -107 -100 -107h-235q-19 0 -31 -11t-12 -32v-19h170q109 0 164 -60.5t55 -177.5q0 -238 -232 -238h-143z" />
    <glyph glyph-name="seven" unicode="7" horiz-adv-x="659" 
d="M285 91q-18 -26 -28 -43.5t-19.5 -28t-21.5 -15t-34 -4.5q-52 0 -83.5 22.5t-31.5 73.5q0 46 44 90l259 352h-229q-49 0 -76.5 31t-27.5 73t27.5 72.5t76.5 30.5h405q42 0 69.5 -24.5t27.5 -67.5q0 -32 -19 -66z" />
    <glyph glyph-name="eight" unicode="8" horiz-adv-x="713" 
d="M313 538q-41 0 -41 -31t41 -31h87q41 0 41 31t-41 31h-87zM313 269q-41 0 -41 -31t41 -31h87q41 0 41 31t-41 31h-87zM238 0q-49 0 -84 14.5t-57.5 40t-33.5 61.5t-11 80q0 73 38.5 119.5t107.5 57.5q-69 10 -107.5 55t-38.5 120q0 43 11 79.5t33.5 62.5t58 40.5
t85.5 14.5h232q49 0 84.5 -14.5t58 -40t33.5 -61t11 -77.5q0 -75 -37.5 -122t-106.5 -57q69 -11 106.5 -58.5t37.5 -122.5q0 -42 -11 -77.5t-33.5 -61t-57 -39.5t-82.5 -14h-237z" />
    <glyph glyph-name="nine" unicode="9" horiz-adv-x="679" 
d="M260 538q-41 0 -41 -31t41 -31h136q33 0 33 31t-33 31h-136zM150 0q-99 0 -99 100q0 107 100 107h235q19 0 31 11t12 32v19h-170q-111 0 -165 60.5t-54 177.5q0 238 232 238h143q112 0 165.5 -60t53.5 -183v-267q0 -235 -234 -235h-250z" />
    <glyph glyph-name="colon" unicode=":" horiz-adv-x="278" 
d="M242 219q0 -21 -8.5 -39.5t-22.5 -32.5t-33 -22t-40 -8t-39.5 8t-33 22t-22.5 32.5t-8 39.5t8 40t22.5 33t33 22.5t39.5 8.5t40 -8.5t33 -22.5t22.5 -33t8.5 -40zM138 385q-21 0 -39.5 8t-33 22.5t-22.5 33t-8 39.5t8 40t22.5 33.5t33 22.5t39.5 8t40 -8t33 -22.5
t22.5 -33.5t8.5 -40t-8.5 -39.5t-22.5 -33t-33 -22.5t-40 -8z" />
    <glyph glyph-name="semicolon" unicode=";" horiz-adv-x="287" 
d="M145 269q-21 0 -40 8t-33.5 21.5t-22.5 32.5t-8 42q0 21 8 39.5t22.5 33t33.5 22.5t40 8t39.5 -8t32.5 -22.5t22 -33t8 -39.5q0 -23 -8 -42t-22 -32.5t-32.5 -21.5t-39.5 -8zM244 -30q0 -49 -30 -76t-72 -27t-72 27t-30 76v132q0 49 30 76.5t72 27.5t72 -27.5t30 -76.5
v-132z" />
    <glyph glyph-name="less" unicode="&#x3c;" horiz-adv-x="533" 
d="M44 300q-34 34 -34 73q0 38 34 72l269 268q33 33 73 33q21 0 39.5 -8.5t33 -23t23 -33t8.5 -39.5q0 -42 -31 -73l-196 -196l196 -197q31 -31 31 -73q0 -21 -8.5 -39.5t-23 -33t-33 -22.5t-39.5 -8q-42 0 -73 31z" />
    <glyph glyph-name="equal" unicode="=" horiz-adv-x="629" 
d="M146 401q-23 0 -42 8t-32.5 22t-21.5 33t-8 41q0 20 7 38.5t20.5 33t33 23t43.5 8.5h336q24 0 43.5 -8.5t33 -23t20.5 -33t7 -38.5q0 -45 -29.5 -74.5t-74.5 -29.5h-336zM146 137q-22 0 -41 8t-33 22t-22 33t-8 40t7 39.5t20.5 33t33 23t43.5 8.5h336q24 0 43.5 -8.5
t33 -23t20.5 -33t7 -39.5t-8 -40t-22 -33t-33 -22t-41 -8h-336z" />
    <glyph glyph-name="greater" unicode="&#x3e;" horiz-adv-x="533" 
d="M219 31q-31 -31 -73 -31q-21 0 -39.5 8t-33 22t-23 32.5t-8.5 39.5q0 41 33 74l195 197l-194 196q-15 15 -24.5 30.5t-9.5 34.5q0 22 7.5 42t21.5 35.5t33 24.5t42 9q42 0 73 -31l269 -269q35 -35 35 -72q0 -38 -35 -73z" />
    <glyph glyph-name="question" unicode="?" horiz-adv-x="645" 
d="M297 269q-109 0 -109 104q0 103 107 103h107q42 0 42 31t-42 31h-269q-51 0 -79 26t-28 78q0 51 25.5 77t80.5 26h259q232 0 232 -238t-231 -238h-95zM287 0q-21 0 -40 8t-33 22.5t-22.5 33t-8.5 39.5t8.5 40t22.5 33t33 22.5t40 8.5t39.5 -8.5t33 -22.5t22.5 -33t8 -40
t-8 -39.5t-22.5 -33t-33 -22.5t-39.5 -8z" />
    <glyph glyph-name="at" unicode="@" horiz-adv-x="774" 
d="M419 422h-39q-18 0 -30 -12t-12 -32q0 -26 11.5 -37.5t29.5 -11.5q16 0 28 11.5t12 37.5v44zM507 351q0 -17 10.5 -29.5t33.5 -12.5q20 0 29 17t9 59q0 69 -10 111.5t-34 66t-65 31.5t-102 8q-47 0 -83 -17.5t-60.5 -48.5t-37.5 -73.5t-13 -91.5q0 -40 12 -79t34.5 -70
t53.5 -50.5t69 -19.5q37 0 59.5 -19.5t22.5 -58.5t-22.5 -59t-59.5 -20q-72 0 -131 31.5t-101.5 84t-65.5 120t-23 140.5q0 81 24.5 151.5t69.5 122.5t109 81.5t143 29.5q91 0 159 -19.5t112.5 -63.5t66.5 -115t22 -174q0 -100 -44 -152.5t-122 -52.5q-60 0 -87.5 19.5
t-34.5 54.5q-7 -20 -28 -30.5t-52 -10.5q-33 0 -56.5 13t-38.5 35.5t-22.5 53.5t-7.5 67q0 74 37 110.5t124 36.5h101v-177z" />
    <glyph glyph-name="A" unicode="A" 
d="M507 101h-262l-16 -36q-13 -35 -36.5 -51t-52.5 -16q-22 0 -42 7t-35.5 20t-24.5 31t-9 40q0 21 7 41l112 249q14 35 38 51.5t53 16.5q21 0 41 -7.5t35 -21t24.5 -31.5t9.5 -40q2 -19 -8 -40l-12 -27h101l-133 320q-8 21 -8 40q0 22 9.5 40t24.5 31t35 20.5t41 7.5
q29 0 52.5 -16t38.5 -51l225 -542q5 -11 5.5 -21.5t2.5 -19.5q0 -22 -9.5 -40t-25 -31t-35.5 -20t-41 -7q-62 0 -90 67z" />
    <glyph glyph-name="B" unicode="B" horiz-adv-x="729" 
d="M143 0q-98 0 -98 103q0 104 100 104h276q41 0 41 31t-41 31h-271q-99 0 -99 104q0 103 97 103h273q41 0 41 31t-41 31h-276q-95 0 -95 104q0 103 93 103h348q49 0 84.5 -14.5t58 -40t33.5 -61t11 -77.5q0 -75 -36.5 -122t-105.5 -57q69 -11 106.5 -58.5t37.5 -122.5
q0 -42 -11 -77.5t-33.5 -61t-57 -39.5t-82.5 -14h-353z" />
    <glyph glyph-name="C" unicode="C" horiz-adv-x="622" 
d="M410 0q-78 0 -147.5 28.5t-122 79t-83 119t-30.5 148.5q0 76 28 143.5t80 118t125.5 79.5t165.5 29h59q24 0 43 -8.5t32.5 -23.5t20.5 -34t7 -40t-7 -39.5t-20.5 -32.5t-32.5 -22.5t-43 -8.5h-75q-34 0 -65 -11t-55 -31.5t-38.5 -51t-14.5 -69.5q0 -36 13.5 -66.5
t36.5 -52.5t54.5 -34.5t67.5 -12.5h76q24 0 43 -8.5t32.5 -23.5t20.5 -34t7 -40q0 -42 -27.5 -71.5t-75.5 -29.5h-75z" />
    <glyph glyph-name="D" unicode="D" horiz-adv-x="743" 
d="M331 207q36 0 67.5 12.5t54.5 34.5t36.5 52.5t13.5 66.5q0 34 -13 64t-36 52t-55 34.5t-69 12.5h-80v-329h81zM152 0q-51 0 -79 27.5t-28 75.5v539q0 19 9.5 37.5t24.5 33t34 23.5t39 9h162q91 0 165 -29t126 -79.5t80 -118t28 -143.5q0 -80 -28.5 -147t-79.5 -116.5
t-121.5 -78.5t-153.5 -33h-178z" />
    <glyph glyph-name="E" unicode="E" horiz-adv-x="708" 
d="M148 0q-102 0 -102 103v539q0 103 102 103h409q49 0 76 -30.5t27 -72.5t-27 -73t-76 -31h-307v-70h317q42 0 66.5 -23.5t24.5 -71.5t-24.5 -73t-66.5 -25h-317v-68h309q49 0 76.5 -31t27.5 -73t-27.5 -72.5t-76.5 -30.5h-411z" />
    <glyph glyph-name="F" unicode="F" horiz-adv-x="678" 
d="M250 269v-166q0 -51 -30 -76.5t-72 -25.5t-72 25.5t-30 76.5v539q0 103 102 103h411q49 0 76.5 -30.5t27.5 -72.5t-27.5 -73t-76.5 -31h-309v-62h309q49 0 76.5 -30.5t27.5 -72.5q0 -43 -27.5 -73.5t-76.5 -30.5h-309z" />
    <glyph glyph-name="G" unicode="G" horiz-adv-x="824" 
d="M415 0q-84 4 -154.5 33.5t-121 79t-79 116t-28.5 146.5q0 76 28 143.5t80 118t125.5 79.5t165.5 29h171q24 0 43.5 -8.5t32.5 -23.5t20 -34t7 -40t-7 -39.5t-20 -32.5t-32.5 -22.5t-43.5 -8.5h-210q-33 0 -61 -13t-47.5 -35.5t-30.5 -52t-11 -62.5q0 -36 13.5 -66.5
t36.5 -52.5t54.5 -34.5t67.5 -12.5h46l75 189h181q94 0 94 -94q0 -95 -94 -95h-63l-71 -207h-167z" />
    <glyph glyph-name="H" unicode="H" horiz-adv-x="672" 
d="M419 269h-167v-166q0 -51 -31 -76.5t-73 -25.5t-72 25.5t-30 76.5v539q0 49 30 75.5t72 26.5t73 -25.5t31 -76.5v-166h167v166q0 49 30 75.5t72 26.5t72.5 -25.5t30.5 -76.5v-539q0 -51 -30.5 -76.5t-72.5 -25.5t-72 25.5t-30 76.5v166z" />
    <glyph glyph-name="I" unicode="I" horiz-adv-x="298" 
d="M45 642q0 51 30.5 76.5t72.5 25.5t72 -26.5t30 -75.5v-539q0 -51 -30 -76.5t-72 -25.5t-72.5 25.5t-30.5 76.5v539z" />
    <glyph glyph-name="J" unicode="J" horiz-adv-x="538" 
d="M113 0q-48 0 -75.5 30.5t-27.5 72.5t27.5 73t75.5 31h32q153 0 153 174v261q0 49 30 75.5t72 26.5t71.5 -25.5t29.5 -76.5v-271q0 -85 -26 -153.5t-71.5 -117t-107.5 -74.5t-134 -26h-49z" />
    <glyph glyph-name="K" unicode="K" horiz-adv-x="648" 
d="M250 269v-166q0 -51 -30 -76.5t-72 -25.5t-72.5 25.5t-30.5 76.5v539q0 51 30.5 76.5t72.5 25.5t72 -26.5t30 -75.5v-166l167 233q18 19 36.5 29t43.5 10q21 0 40.5 -8.5t34 -23t23.5 -33t9 -39.5q0 -37 -23 -63l-177 -205l177 -208q23 -28 25 -65q0 -20 -9.5 -39
t-24.5 -33t-34.5 -22.5t-39.5 -8.5q-23 0 -43.5 10t-35.5 30z" />
    <glyph glyph-name="L" unicode="L" horiz-adv-x="471" 
d="M148 0q-102 0 -102 103v539q0 49 30 75.5t72 26.5t72 -26.5t30 -75.5v-435h110q48 0 72.5 -31t24.5 -73t-24.5 -72.5t-72.5 -30.5h-212z" />
    <glyph glyph-name="M" unicode="M" horiz-adv-x="922" 
d="M224 74q-11 -40 -36 -58t-57 -18q-21 0 -41 7t-35.5 19.5t-24.5 30.5t-9 40q0 18 5 32l151 540q7 24 18.5 39t26 24t30.5 12t31 3h482q103 0 103 -103v-539q0 -51 -30.5 -76.5t-72.5 -25.5t-72 25.5t-30 76.5v435h-64v-435q0 -51 -30.5 -76.5t-72.5 -25.5t-72 25.5
t-30 76.5v435h-39z" />
    <glyph glyph-name="N" unicode="N" horiz-adv-x="669" 
d="M429 45l-179 270v-212q0 -51 -30.5 -76.5t-72.5 -25.5t-72 25.5t-30 76.5v539q0 49 30 75.5t72 26.5q30 0 50.5 -10.5t33.5 -35.5l186 -283v227q0 25 8.5 44t22.5 32t32.5 19.5t39.5 6.5q42 0 72.5 -25.5t30.5 -76.5v-539q0 -51 -30.5 -76.5t-72.5 -25.5q-21 0 -36 5
t-25.5 12.5t-17 15t-10.5 12.5z" />
    <glyph glyph-name="O" unicode="O" horiz-adv-x="826" 
d="M587 373q0 36 -13.5 67.5t-37 55t-55 37t-67.5 13.5t-67.5 -13.5t-54.5 -37t-36.5 -55t-13.5 -67.5t13.5 -67.5t36.5 -54.5t54.5 -36.5t67.5 -13.5t67.5 13.5t55 36.5t37 54.5t13.5 67.5zM794 375q0 -80 -30 -149t-82 -120.5t-121.5 -81t-148.5 -29.5t-148 29.5
t-120.5 81t-81.5 120.5t-30 149q0 79 30 148.5t81.5 121t120.5 81.5t148 30t148.5 -30t121.5 -81.5t82 -121t30 -148.5z" />
    <glyph glyph-name="P" unicode="P" horiz-adv-x="658" 
d="M252 269v-163q0 -106 -104 -106q-54 0 -77.5 26t-23.5 80v244q0 63 28 94.5t88 31.5h259q42 0 42 31t-42 31h-276q-48 0 -74 26t-26 78q0 51 23.5 77t75.5 26h266q232 0 232 -238t-231 -238h-160z" />
    <glyph glyph-name="Q" unicode="Q" horiz-adv-x="830" 
d="M369 264q-31 30 -31 69q0 22 8.5 41.5t23 34.5t34 24t41.5 9q20 0 37.5 -6.5t34.5 -23.5l66 -66q5 15 5 27q0 77 -44.5 125t-131.5 48q-88 0 -131.5 -47.5t-43.5 -125.5q0 -39 12.5 -71t35 -55.5t55 -36t72.5 -12.5q8 0 12.5 1.5t6.5 2.5zM411 756q79 0 148.5 -30
t121 -81.5t81.5 -121t30 -148.5q0 -54 -13 -100t-36 -88q24 -26 33 -47t9 -38q0 -21 -8.5 -40t-23 -34t-34 -24t-40.5 -9q-19 0 -39 9.5t-48 35.5q-42 -22 -87 -33.5t-94 -11.5q-79 0 -148 29.5t-120.5 81t-81.5 120.5t-30 149q0 79 30 148.5t81.5 121t120.5 81.5t148 30z
" />
    <glyph glyph-name="R" unicode="R" horiz-adv-x="645" 
d="M105 247q-81 63 -81 106q0 123 116 123h259q41 0 41 31t-41 31h-277q-48 0 -74 26t-26 78q0 51 23.5 77t75.5 26h267q231 0 231 -238q0 -232 -219 -238h-21l88 -85q21 -20 30.5 -43t9.5 -39q0 -18 -8.5 -37t-23 -34.5t-32.5 -25.5t-36 -10q-41 0 -87 37z" />
    <glyph glyph-name="S" unicode="S" horiz-adv-x="685" 
d="M150 0q-99 0 -99 100q0 107 100 107h276q41 0 41 31t-41 31h-168q-219 6 -219 238q0 238 234 238h227q98 0 98 -100q0 -107 -99 -107h-240q-41 0 -41 -31t41 -31h169q219 -6 219 -238q0 -238 -232 -238h-266z" />
    <glyph glyph-name="T" unicode="T" horiz-adv-x="586" 
d="M192 538h-72q-49 0 -76.5 31t-27.5 73t27.5 72.5t76.5 30.5h347q49 0 76.5 -30.5t27.5 -72.5t-27.5 -73t-76.5 -31h-70v-435q0 -51 -30.5 -76.5t-72.5 -25.5t-72 25.5t-30 76.5v435z" />
    <glyph glyph-name="U" unicode="U" horiz-adv-x="663" 
d="M326 0q-284 0 -284 328v314q0 25 8.5 44t22.5 32t32.5 19.5t39.5 6.5q42 0 72.5 -25.5t30.5 -76.5v-345q0 -93 83 -93q84 0 84 93v345q0 49 30 75.5t72 26.5t73 -25.5t31 -76.5v-314q0 -328 -286 -328h-9z" />
    <glyph glyph-name="V" unicode="V" horiz-adv-x="693" 
d="M25 607q-8 21 -8 40q0 22 9.5 40t24.5 31t35 20.5t41 7.5q24 0 50.5 -16t40.5 -51l128 -329l129 329q14 35 37.5 51t53.5 16q21 0 40.5 -7.5t35 -20.5t24.5 -31t9 -40q0 -10 -1.5 -20.5t-5.5 -19.5l-222 -538q-29 -69 -95 -69q-67 0 -104 69z" />
    <glyph glyph-name="W" unicode="W" horiz-adv-x="923" 
d="M289 0q-15 0 -30.5 3t-30 12t-26.5 24t-19 39l-151 540q-5 20 -5 32q0 22 9 40t24.5 31t35.5 20t41 7q30 0 56.5 -19t37.5 -57l130 -465h39v435q0 49 30 75.5t72 26.5t73 -25.5t31 -76.5v-435h63v435q0 49 30 75.5t72 26.5t73 -25.5t31 -76.5v-539q0 -103 -104 -103h-482
z" />
    <glyph glyph-name="X" unicode="X" horiz-adv-x="638" 
d="M319 191l-80 -141q-30 -52 -77 -52q-21 0 -42 7.5t-37.5 20.5t-26.5 31.5t-10 39.5q0 11 3 26.5t13 29.5l149 218l-147 217q-10 14 -13.5 28.5t-3.5 26.5q0 19 9 37.5t24.5 33t35 23t40.5 8.5q25 0 46.5 -13t37.5 -40l79 -139l78 139q15 27 37.5 40t47.5 13
q21 0 40.5 -8.5t35 -23t24.5 -33t9 -37.5q0 -17 -3.5 -29t-13.5 -26l-147 -217l149 -218q8 -14 12 -29t4 -27q0 -21 -10 -39t-25.5 -31.5t-35.5 -21t-41 -7.5q-27 0 -46.5 13t-34.5 39z" />
    <glyph glyph-name="Y" unicode="Y" horiz-adv-x="608" 
d="M202 323l-166 265q-9 14 -12.5 28.5t-3.5 26.5q0 19 9 37.5t24 33t34.5 23t40.5 8.5q25 0 47 -13t38 -40l91 -156l91 156q31 53 85 53q21 0 40.5 -8.5t34.5 -23t24 -33t9 -37.5q0 -12 -4 -26.5t-12 -28.5l-165 -265v-221q0 -51 -30 -76.5t-72 -25.5t-72.5 25.5
t-30.5 76.5v221z" />
    <glyph glyph-name="Z" unicode="Z" horiz-adv-x="719" 
d="M169 0q-51 0 -82 24t-31 72q0 46 44 90l274 352h-212q-49 0 -76 31t-27 73t27 72.5t76 30.5h397q42 0 70 -24.5t28 -67.5q0 -24 -3.5 -37t-15.5 -29l-282 -380h198q49 0 76.5 -31t27.5 -73t-27.5 -72.5t-76.5 -30.5h-385z" />
    <glyph glyph-name="bracketleft" unicode="[" horiz-adv-x="388" 
d="M46 -217v1140h249q78 0 78 -77q0 -75 -78 -75h-96v-836h96q78 0 78 -76t-78 -76h-249z" />
    <glyph glyph-name="backslash" unicode="\" horiz-adv-x="359" 
d="M345 22q4 -9 4 -23q0 -31 -23 -50t-54 -19q-24 0 -42 12.5t-26 41.5l-200 713q-4 9 -4 22q0 16 7 29t18 22t25 14t28 5q23 0 42 -12.5t25 -41.5z" />
    <glyph glyph-name="bracketright" unicode="]" horiz-adv-x="388" 
d="M92 -217q-77 0 -77 76t77 76h95v836h-95q-77 0 -77 75q0 77 77 77h249v-1140h-249z" />
    <glyph glyph-name="asciicircum" unicode="^" horiz-adv-x="461" 
d="M196 730q16 16 35 16q18 0 34 -16l130 -129q16 -16 16 -37q0 -20 -15.5 -34.5t-35.5 -14.5q-19 0 -35 16l-94 93l-95 -93q-16 -16 -32 -16q-21 0 -37 14t-16 35q0 22 15 37z" />
    <glyph glyph-name="underscore" unicode="_" horiz-adv-x="589" 
d="M-6 -186q-76 0 -76 75q0 77 76 77h609q75 0 75 -77q0 -75 -75 -75h-609z" />
    <glyph glyph-name="grave" unicode="`" horiz-adv-x="708" 
d="M248 827q-22 6 -30.5 20t-8.5 28q0 20 13 36t36 16q2 0 6 -0.5t9 -1.5l202 -54q21 -6 29.5 -21t8.5 -26q0 -20 -12.5 -36.5t-35.5 -16.5q-3 0 -7 1l-8 2z" />
    <glyph glyph-name="a" unicode="a" 
d="M506 101h-262l-15 -36q-28 -67 -89 -67q-21 0 -41 7t-35.5 20t-25 31t-9.5 40q0 9 1 19.5t6 21.5l226 542q13 35 37.5 51t53.5 16q21 0 40.5 -7.5t35 -20.5t24.5 -31t9 -40q0 -10 -1.5 -20.5t-5.5 -19.5l-134 -320h101l-12 27q-9 21 -8 40q0 22 9.5 40t24.5 31.5t35 21
t41 7.5q29 0 53.5 -16.5t37.5 -51.5l112 -249q8 -26 8 -41q0 -22 -9.5 -40t-25 -31t-35.5 -20t-41 -7q-31 0 -52.5 16t-37.5 51z" />
    <glyph glyph-name="b" unicode="b" horiz-adv-x="729" 
d="M143 0q-98 0 -98 103q0 104 100 104h276q41 0 41 31t-41 31h-271q-99 0 -99 104q0 103 97 103h273q41 0 41 31t-41 31h-276q-95 0 -95 104q0 103 93 103h348q49 0 84.5 -14.5t58 -40t33.5 -61t11 -77.5q0 -75 -36.5 -122t-105.5 -57q69 -11 106.5 -58.5t37.5 -122.5
q0 -42 -11 -77.5t-33.5 -61t-57 -39.5t-82.5 -14h-353z" />
    <glyph glyph-name="c" unicode="c" horiz-adv-x="622" 
d="M410 0q-78 0 -147.5 28.5t-122 79t-83 119t-30.5 148.5q0 76 28 143.5t80 118t125.5 79.5t165.5 29h59q24 0 43 -8.5t32.5 -23.5t20.5 -34t7 -40t-7 -39.5t-20.5 -32.5t-32.5 -22.5t-43 -8.5h-75q-34 0 -65 -11t-55 -31.5t-38.5 -51t-14.5 -69.5q0 -36 13.5 -66.5
t36.5 -52.5t54.5 -34.5t67.5 -12.5h76q24 0 43 -8.5t32.5 -23.5t20.5 -34t7 -40q0 -42 -27.5 -71.5t-75.5 -29.5h-75z" />
    <glyph glyph-name="d" unicode="d" horiz-adv-x="743" 
d="M331 207q36 0 67.5 12.5t54.5 34.5t36.5 52.5t13.5 66.5q0 34 -13 64t-36 52t-55 34.5t-69 12.5h-80v-329h81zM152 0q-51 0 -79 27.5t-28 75.5v539q0 19 9.5 37.5t24.5 33t34 23.5t39 9h162q91 0 165 -29t126 -79.5t80 -118t28 -143.5q0 -80 -28.5 -147t-79.5 -116.5
t-121.5 -78.5t-153.5 -33h-178z" />
    <glyph glyph-name="e" unicode="e" horiz-adv-x="773" 
d="M229 0q-48 0 -82.5 14t-57 39.5t-33.5 61t-11 77.5q0 75 37.5 122.5t106.5 58.5q-69 10 -104.5 57t-35.5 122q0 42 11 77.5t33.5 61t57.5 40t84 14.5h389q94 0 94 -103q0 -104 -95 -104h-319q-41 0 -41 -31t41 -31h310q97 0 97 -103q0 -104 -98 -104h-309q-41 0 -41 -31
t41 -31h314q100 0 100 -104q0 -103 -99 -103h-390z" />
    <glyph glyph-name="f" unicode="f" horiz-adv-x="678" 
d="M250 269v-166q0 -51 -30 -76.5t-72 -25.5t-72 25.5t-30 76.5v539q0 103 102 103h411q49 0 76.5 -30.5t27.5 -72.5t-27.5 -73t-76.5 -31h-309v-62h309q49 0 76.5 -30.5t27.5 -72.5q0 -43 -27.5 -73.5t-76.5 -30.5h-309z" />
    <glyph glyph-name="g" unicode="g" horiz-adv-x="824" 
d="M415 0q-84 4 -154.5 33.5t-121 79t-79 116t-28.5 146.5q0 76 28 143.5t80 118t125.5 79.5t165.5 29h171q24 0 43.5 -8.5t32.5 -23.5t20 -34t7 -40t-7 -39.5t-20 -32.5t-32.5 -22.5t-43.5 -8.5h-210q-33 0 -61 -13t-47.5 -35.5t-30.5 -52t-11 -62.5q0 -36 13.5 -66.5
t36.5 -52.5t54.5 -34.5t67.5 -12.5h46l75 189h181q94 0 94 -94q0 -95 -94 -95h-63l-71 -207h-167z" />
    <glyph glyph-name="h" unicode="h" horiz-adv-x="672" 
d="M419 269h-167v-166q0 -51 -31 -76.5t-73 -25.5t-72 25.5t-30 76.5v539q0 49 30 75.5t72 26.5t73 -25.5t31 -76.5v-166h167v166q0 49 30 75.5t72 26.5t72.5 -25.5t30.5 -76.5v-539q0 -51 -30.5 -76.5t-72.5 -25.5t-72 25.5t-30 76.5v166z" />
    <glyph glyph-name="i" unicode="i" horiz-adv-x="298" 
d="M45 642q0 51 30.5 76.5t72.5 25.5t72 -26.5t30 -75.5v-539q0 -51 -30 -76.5t-72 -25.5t-72.5 25.5t-30.5 76.5v539z" />
    <glyph glyph-name="j" unicode="j" horiz-adv-x="538" 
d="M113 0q-48 0 -75.5 30.5t-27.5 72.5t27.5 73t75.5 31h32q153 0 153 174v261q0 49 30 75.5t72 26.5t71.5 -25.5t29.5 -76.5v-271q0 -85 -26 -153.5t-71.5 -117t-107.5 -74.5t-134 -26h-49z" />
    <glyph glyph-name="k" unicode="k" horiz-adv-x="648" 
d="M250 269v-166q0 -51 -30 -76.5t-72 -25.5t-72.5 25.5t-30.5 76.5v539q0 51 30.5 76.5t72.5 25.5t72 -26.5t30 -75.5v-166l167 233q18 19 36.5 29t43.5 10q21 0 40.5 -8.5t34 -23t23.5 -33t9 -39.5q0 -37 -23 -63l-177 -205l177 -208q23 -28 25 -65q0 -20 -9.5 -39
t-24.5 -33t-34.5 -22.5t-39.5 -8.5q-23 0 -43.5 10t-35.5 30z" />
    <glyph glyph-name="l" unicode="l" horiz-adv-x="471" 
d="M148 0q-102 0 -102 103v539q0 49 30 75.5t72 26.5t72 -26.5t30 -75.5v-435h110q48 0 72.5 -31t24.5 -73t-24.5 -72.5t-72.5 -30.5h-212z" />
    <glyph glyph-name="m" unicode="m" horiz-adv-x="922" 
d="M558 538h-38v-435q0 -25 -8.5 -44t-22.5 -32t-32.5 -19.5t-39.5 -6.5q-42 0 -72.5 25.5t-30.5 76.5v435h-64v-435q0 -51 -30 -76.5t-72 -25.5t-72.5 25.5t-30.5 76.5v539q0 103 103 103h482q15 0 30.5 -3t30 -12t26.5 -24t19 -39l151 -540q5 -14 5 -32q0 -22 -9 -40
t-24 -30.5t-35 -19.5t-42 -7q-32 0 -58 18t-35 58z" />
    <glyph glyph-name="n" unicode="n" horiz-adv-x="669" 
d="M429 45l-179 270v-212q0 -51 -30.5 -76.5t-72.5 -25.5t-72 25.5t-30 76.5v539q0 49 30 75.5t72 26.5q30 0 50.5 -10.5t33.5 -35.5l186 -283v227q0 25 8.5 44t22.5 32t32.5 19.5t39.5 6.5q42 0 72.5 -25.5t30.5 -76.5v-539q0 -51 -30.5 -76.5t-72.5 -25.5q-21 0 -36 5
t-25.5 12.5t-17 15t-10.5 12.5z" />
    <glyph glyph-name="o" unicode="o" horiz-adv-x="826" 
d="M587 373q0 36 -13.5 67.5t-37 55t-55 37t-67.5 13.5t-67.5 -13.5t-54.5 -37t-36.5 -55t-13.5 -67.5t13.5 -67.5t36.5 -54.5t54.5 -36.5t67.5 -13.5t67.5 13.5t55 36.5t37 54.5t13.5 67.5zM794 375q0 -80 -30 -149t-82 -120.5t-121.5 -81t-148.5 -29.5t-148 29.5
t-120.5 81t-81.5 120.5t-30 149q0 79 30 148.5t81.5 121t120.5 81.5t148 30t148.5 -30t121.5 -81.5t82 -121t30 -148.5z" />
    <glyph glyph-name="p" unicode="p" horiz-adv-x="658" 
d="M252 269v-163q0 -106 -104 -106q-54 0 -77.5 26t-23.5 80v244q0 63 28 94.5t88 31.5h259q42 0 42 31t-42 31h-276q-48 0 -74 26t-26 78q0 51 23.5 77t75.5 26h266q232 0 232 -238t-231 -238h-160z" />
    <glyph glyph-name="q" unicode="q" horiz-adv-x="830" 
d="M369 264q-31 30 -31 69q0 22 8.5 41.5t23 34.5t34 24t41.5 9q20 0 37.5 -6.5t34.5 -23.5l66 -66q5 15 5 27q0 77 -44.5 125t-131.5 48q-88 0 -131.5 -47.5t-43.5 -125.5q0 -39 12.5 -71t35 -55.5t55 -36t72.5 -12.5q8 0 12.5 1.5t6.5 2.5zM411 756q79 0 148.5 -30
t121 -81.5t81.5 -121t30 -148.5q0 -54 -13 -100t-36 -88q24 -26 33 -47t9 -38q0 -21 -8.5 -40t-23 -34t-34 -24t-40.5 -9q-19 0 -39 9.5t-48 35.5q-42 -22 -87 -33.5t-94 -11.5q-79 0 -148 29.5t-120.5 81t-81.5 120.5t-30 149q0 79 30 148.5t81.5 121t120.5 81.5t148 30z
" />
    <glyph glyph-name="r" unicode="r" horiz-adv-x="645" 
d="M105 247q-81 63 -81 106q0 123 116 123h259q41 0 41 31t-41 31h-277q-48 0 -74 26t-26 78q0 51 23.5 77t75.5 26h267q231 0 231 -238q0 -232 -219 -238h-21l88 -85q21 -20 30.5 -43t9.5 -39q0 -18 -8.5 -37t-23 -34.5t-32.5 -25.5t-36 -10q-41 0 -87 37z" />
    <glyph glyph-name="s" unicode="s" horiz-adv-x="685" 
d="M150 0q-99 0 -99 100q0 107 100 107h276q41 0 41 31t-41 31h-168q-219 6 -219 238q0 238 234 238h227q98 0 98 -100q0 -107 -99 -107h-240q-41 0 -41 -31t41 -31h169q219 -6 219 -238q0 -238 -232 -238h-266z" />
    <glyph glyph-name="t" unicode="t" horiz-adv-x="586" 
d="M192 538h-72q-49 0 -76.5 31t-27.5 73t27.5 72.5t76.5 30.5h347q49 0 76.5 -30.5t27.5 -72.5t-27.5 -73t-76.5 -31h-70v-435q0 -51 -30.5 -76.5t-72.5 -25.5t-72 25.5t-30 76.5v435z" />
    <glyph glyph-name="u" unicode="u" horiz-adv-x="663" 
d="M326 0q-284 0 -284 328v314q0 25 8.5 44t22.5 32t32.5 19.5t39.5 6.5q42 0 72.5 -25.5t30.5 -76.5v-345q0 -93 83 -93q84 0 84 93v345q0 49 30 75.5t72 26.5t73 -25.5t31 -76.5v-314q0 -328 -286 -328h-9z" />
    <glyph glyph-name="v" unicode="v" horiz-adv-x="693" 
d="M25 607q-8 21 -8 40q0 22 9.5 40t24.5 31t35 20.5t41 7.5q24 0 50.5 -16t40.5 -51l128 -329l129 329q14 35 37.5 51t53.5 16q21 0 40.5 -7.5t35 -20.5t24.5 -31t9 -40q0 -10 -1.5 -20.5t-5.5 -19.5l-222 -538q-29 -69 -95 -69q-67 0 -104 69z" />
    <glyph glyph-name="w" unicode="w" horiz-adv-x="923" 
d="M148 0q-103 0 -103 103v539q0 51 30.5 76.5t72.5 25.5t72 -26.5t30 -75.5v-435h64v435q0 51 30.5 76.5t72.5 25.5q21 0 39.5 -6.5t32.5 -19.5t22.5 -32t8.5 -44v-435h38l131 465q11 38 36 57t57 19q22 0 42 -7t35 -20t24 -31t9 -40q0 -18 -5 -32l-151 -540
q-7 -24 -19 -39t-26.5 -24t-30 -12t-30.5 -3h-482z" />
    <glyph glyph-name="x" unicode="x" horiz-adv-x="638" 
d="M319 191l-80 -141q-30 -52 -77 -52q-21 0 -42 7.5t-37.5 20.5t-26.5 31.5t-10 39.5q0 11 3 26.5t13 29.5l149 218l-147 217q-10 14 -13.5 28.5t-3.5 26.5q0 19 9 37.5t24.5 33t35 23t40.5 8.5q25 0 46.5 -13t37.5 -40l79 -139l78 139q15 27 37.5 40t47.5 13
q21 0 40.5 -8.5t35 -23t24.5 -33t9 -37.5q0 -17 -3.5 -29t-13.5 -26l-147 -217l149 -218q8 -14 12 -29t4 -27q0 -21 -10 -39t-25.5 -31.5t-35.5 -21t-41 -7.5q-27 0 -46.5 13t-34.5 39z" />
    <glyph glyph-name="y" unicode="y" horiz-adv-x="608" 
d="M202 323l-166 265q-9 14 -12.5 28.5t-3.5 26.5q0 19 9 37.5t24 33t34.5 23t40.5 8.5q25 0 47 -13t38 -40l91 -156l91 156q31 53 85 53q21 0 40.5 -8.5t34.5 -23t24 -33t9 -37.5q0 -12 -4 -26.5t-12 -28.5l-165 -265v-221q0 -51 -30 -76.5t-72 -25.5t-72.5 25.5
t-30.5 76.5v221z" />
    <glyph glyph-name="z" unicode="z" horiz-adv-x="719" 
d="M169 0q-51 0 -82 24t-31 72q0 46 44 90l274 352h-212q-49 0 -76 31t-27 73t27 72.5t76 30.5h397q42 0 70 -24.5t28 -67.5q0 -24 -3.5 -37t-15.5 -29l-282 -380h198q49 0 76.5 -31t27.5 -73t-27.5 -72.5t-76.5 -30.5h-385z" />
    <glyph glyph-name="braceleft" unicode="{" horiz-adv-x="546" 
d="M350 -7q0 -57 70 -57q101 0 101 -76q0 -77 -77 -77q-130 0 -187.5 54t-57.5 156v137q0 73 -21 108t-80 35q-20 0 -34.5 7.5t-24.5 19.5t-15 27.5t-5 31.5q0 30 19.5 54t62.5 24q57 0 77.5 34.5t20.5 109.5v133q0 101 57 154.5t188 53.5q77 0 77 -77q0 -76 -101 -76
q-70 0 -70 -55v-110q0 -43 -3 -78t-13.5 -64.5t-30.5 -55.5t-53 -51q33 -26 53 -51.5t30.5 -54.5t13.5 -63.5t3 -78.5v-114z" />
    <glyph glyph-name="bar" unicode="|" horiz-adv-x="249" 
d="M46 787q0 78 77 78q76 0 76 -78v-858q0 -76 -76 -76q-77 0 -77 76v858z" />
    <glyph glyph-name="braceright" unicode="}" horiz-adv-x="546" 
d="M189 107q0 44 3 78.5t13.5 63.5t30.5 54.5t53 51.5q-33 25 -53 51t-30.5 55.5t-13.5 64.5t-3 78v110q0 55 -69 55q-101 0 -101 76q0 77 77 77q130 0 187 -53.5t57 -154.5v-133q0 -75 21 -109.5t78 -34.5q43 0 62.5 -24t19.5 -54q0 -16 -5.5 -31.5t-15.5 -27.5t-25 -19.5
t-34 -7.5q-59 0 -80 -34.5t-21 -108.5v-137q0 -102 -57 -156t-187 -54q-77 0 -77 77q0 76 101 76q69 0 69 57v114z" />
    <glyph glyph-name="asciitilde" unicode="~" horiz-adv-x="708" 
d="M292 571q20 0 55 -17t89 -32q19 0 30.5 8.5t20.5 19t19.5 19t28.5 8.5q20 0 35.5 -15t15.5 -36q0 -24 -16.5 -43.5t-40.5 -33t-50.5 -20.5t-47.5 -7q-25 0 -45.5 7.5t-38.5 17t-35.5 17t-36.5 7.5q-16 0 -29 -7t-25 -34q-25 -13 -37 -13q-20 0 -36 14.5t-16 35.5
q0 24 14.5 43t35.5 33t45.5 21.5t44.5 7.5q16 0 17 -1h3z" />
    <glyph glyph-name="exclamdown" unicode="&#xa1;" horiz-adv-x="293" 
d="M143 537q-21 0 -39.5 8t-32.5 22.5t-22 33t-8 39.5t8 40t21.5 33.5t32.5 22.5t40 8t40 -8t33 -22.5t22.5 -33.5t8.5 -40t-8.5 -39.5t-22.5 -33t-33 -22.5t-40 -8zM44 431q0 49 30 76.5t72 27.5t72 -27.5t30 -76.5v-329q0 -51 -30 -76.5t-72 -25.5t-72 25.5t-30 76.5v329z
" />
    <glyph glyph-name="cent" unicode="&#xa2;" horiz-adv-x="508" 
d="M330 41q0 -46 -46 -46t-46 46v61q-51 8 -91 31.5t-68 59t-42.5 82t-14.5 100.5q0 55 14.5 101.5t42.5 82.5t68 59t91 31v62q0 47 46 47t46 -47v-61q26 -4 53.5 -11.5t50 -19t37 -28t14.5 -38.5q0 -12 -5.5 -24t-14.5 -21.5t-21 -15.5t-25 -6q-11 0 -22 4t-21.5 9.5
t-20 10.5t-16.5 7l-9 3v-287l9 2q7 2 16.5 7.5t20 11t21.5 10t22 4.5q35 0 50.5 -21t15.5 -48q0 -24 -15 -40.5t-37.5 -28t-50 -18.5t-52.5 -11v-60zM238 516q-82 -25 -82 -141q0 -55 19.5 -90.5t62.5 -49.5v281z" />
    <glyph glyph-name="sterling" unicode="&#xa3;" horiz-adv-x="624" 
d="M93 0q-73 0 -73 74q0 73 73 73h18v197q-72 0 -72 75q0 68 72 71q1 63 28 112t70.5 83.5t98.5 52.5t112 18q25 0 50 -3.5t44.5 -12t31.5 -23.5t12 -37q0 -30 -19 -51.5t-51 -21.5h-46q-31 0 -62.5 -4.5t-57.5 -17t-43.5 -35.5t-20.5 -60h57q73 0 73 -71q0 -75 -73 -75h-57
v-197h264q35 0 54.5 -18.5t19.5 -54.5q0 -38 -19.5 -56t-54.5 -18h-429z" />
    <glyph glyph-name="section" unicode="&#xa7;" horiz-adv-x="658" 
d="M287 269h-35v-163q0 -106 -104 -106q-54 0 -77.5 26t-23.5 80v244q0 63 28 94.5t88 31.5h259q42 0 42 31t-42 31h-276q-48 0 -74 26t-26 78q0 51 23.5 77t75.5 26h266q118 0 175 -56.5t57 -162.5q0 -51 -10 -87t-28 -61.5t-44 -42t-58 -28.5l114 -139q11 -14 18 -30.5
t7 -34.5q0 -20 -9.5 -39t-24.5 -33t-34.5 -22.5t-38.5 -8.5q-23 0 -44 10t-36 30z" />
    <glyph glyph-name="dieresis" unicode="&#xa8;" horiz-adv-x="708" 
d="M482 760q-25 0 -42.5 17t-17.5 43t17.5 43t42.5 17q26 0 43 -17t17 -43t-17 -43t-43 -17zM283 760q-26 0 -43 17t-17 43t17 43t43 17q25 0 42.5 -17t17.5 -43t-17.5 -43t-42.5 -17z" />
    <glyph glyph-name="copyright" unicode="&#xa9;" horiz-adv-x="791" 
d="M397 -1q-77 0 -145 29.5t-118.5 80.5t-80 119t-29.5 145t29.5 145t80 118.5t118.5 80t145 29.5t145 -29.5t119 -80t80.5 -118.5t29.5 -145t-29.5 -145t-80.5 -119t-119 -80.5t-145 -29.5zM731 371q0 69 -26 130t-71 106.5t-105.5 71.5t-129.5 26t-129.5 -26t-105 -71.5
t-70 -106.5t-25.5 -130t25.5 -129t70 -105t105 -71t129.5 -26t129.5 26t105.5 71t71 105t26 129zM411 206q-39 0 -72 13.5t-56.5 37t-37 55.5t-13.5 69q0 36 13 67.5t37.5 55t59 37t77.5 13.5h27q23 0 36 -14.5t13 -34.5q0 -19 -13 -34t-36 -15h-45q-31 0 -51 -22.5
t-20 -53.5q0 -34 23.5 -55.5t57.5 -21.5h35q23 0 36 -15t13 -35t-13 -33.5t-36 -13.5h-35z" />
    <glyph glyph-name="ordfeminine" unicode="&#xaa;" horiz-adv-x="405" 
d="M267 425h-131l-6 -18q-6 -18 -19 -25.5t-26 -7.5q-22 0 -39 13.5t-17 34.5q1 5 1 10.5t2 11.5l113 269q13 33 46 33q20 0 37 -13.5t17 -35.5q0 -10 -3 -20l-68 -160h52l-7 14q-3 10 -3 20q0 23 16.5 36.5t36.5 13.5q15 0 27.5 -8t18.5 -26l55 -123q4 -9 4 -22
q0 -21 -16.5 -34.5t-38.5 -13.5q-14 0 -26 8t-19 25z" />
    <glyph glyph-name="guillemotleft" unicode="&#xab;" horiz-adv-x="517" 
d="M279 343q-24 10 -24 35q0 10 6 21t18 17l167 82q12 5 18 5q14 0 21.5 -10.5t7.5 -24.5q0 -9 -4.5 -17.5t-15.5 -13.5l-127 -58l127 -60q11 -5 16.5 -14t5.5 -18q0 -14 -8.5 -25.5t-22.5 -11.5q-6 0 -18 5zM67 343q-23 12 -23 35q0 10 5.5 21t17.5 17l167 82q12 5 18 5
q14 0 22 -10.5t8 -24.5q0 -8 -5 -17t-15 -14l-127 -58l127 -60q11 -5 16 -14t5 -18q0 -14 -8.5 -25.5t-22.5 -11.5q-6 0 -18 5z" />
    <glyph glyph-name="registered" unicode="&#xae;" horiz-adv-x="503" 
d="M431 546q0 31 -14.5 61.5t-40 54.5t-60.5 39t-77 15t-75.5 -15t-56.5 -39t-35.5 -54.5t-12.5 -61.5q0 -32 12.5 -63t35.5 -55t56.5 -39t75.5 -15q39 0 74 13.5t61.5 36.5t41.5 54.5t15 67.5zM467 546q0 -42 -17.5 -80t-48 -67t-72 -46.5t-90.5 -17.5t-90 17.5t-70.5 46.5
t-46 67t-16.5 80q0 43 16.5 81.5t46 67.5t70.5 46t90 17t91 -16.5t72.5 -45t47.5 -67t17 -83.5zM187 500q-24 18 -24 31q0 36 34 36h76q12 0 12 10q0 9 -12 9h-81q-30 0 -30 30q0 31 30 31h78q68 0 68 -70t-65 -70h-6l26 -25q12 -12 12 -25q0 -10 -9.5 -20.5t-20.5 -10.5
t-25 11z" />
    <glyph glyph-name="macron" unicode="&#xaf;" horiz-adv-x="508" 
d="M96 785q-24 0 -37.5 15.5t-13.5 35.5t13.5 36t37.5 16h321q25 0 38 -16t13 -36t-13 -35.5t-38 -15.5h-321z" />
    <glyph glyph-name="degree" unicode="&#xb0;" horiz-adv-x="410" 
d="M325 587q0 25 -9.5 47t-26 38.5t-38.5 26t-47 9.5t-47 -9.5t-38.5 -26t-26 -38.5t-9.5 -47t9.5 -47t26 -38.5t38.5 -26t47 -9.5t47 9.5t38.5 26t26 38.5t9.5 47zM204 417q-36 0 -67 13t-53.5 36t-35.5 54t-13 67t13 67t35.5 53.5t53.5 35.5t67 13t67 -13t54 -35.5
t36 -53.5t13 -67t-13 -67t-36 -54t-54 -36t-67 -13z" />
    <glyph glyph-name="acute" unicode="&#xb4;" horiz-adv-x="708" 
d="M273 774l-8 -2t-7 -1q-23 0 -36 16.5t-13 36.5q0 14 8.5 27.5t30.5 19.5l202 54q5 1 8.5 1.5t6.5 0.5q23 0 35.5 -16t12.5 -36q0 -14 -8.5 -28.5t-29.5 -19.5z" />
    <glyph glyph-name="periodcentered" unicode="&#xb7;" horiz-adv-x="272" 
d="M235 361q0 -20 -8 -38.5t-22.5 -32.5t-33 -22.5t-39.5 -8.5t-39.5 8.5t-33 22.5t-22.5 32.5t-8 38.5q0 21 8 40t22.5 33t33 22.5t39.5 8.5t39.5 -8.5t33 -22.5t22.5 -33t8 -40z" />
    <glyph glyph-name="cedilla" unicode="&#xb8;" horiz-adv-x="465" 
d="M318 -96q0 -28 -11.5 -50.5t-30 -38t-43 -24t-49.5 -8.5q-26 0 -38.5 15.5t-12.5 34.5q0 24 12.5 32t27.5 13t27.5 13t12.5 32q0 18 -8 32.5t-17 27.5t-17 26.5t-8 29.5q0 23 5 36.5t13 20.5t17.5 9t18.5 2q19 0 34.5 -12t15.5 -38q0 -27 8 -45t17.5 -33.5t17.5 -32.5
t8 -42z" />
    <glyph glyph-name="ordmasculine" unicode="&#xba;" horiz-adv-x="465" 
d="M320 557q0 19 -7 35.5t-19 28.5t-28.5 19t-34.5 7q-38 0 -63.5 -26t-25.5 -64t25.5 -63.5t63.5 -25.5q18 0 34.5 6.5t28.5 18.5t19 28.5t7 35.5zM427 558q0 -41 -15.5 -77t-42 -62.5t-62.5 -42t-76 -15.5q-41 0 -77.5 15.5t-63.5 42t-42.5 62.5t-15.5 77t15.5 77t42.5 63
t63.5 42.5t77.5 15.5q40 0 76 -15.5t62.5 -42.5t42 -63t15.5 -77z" />
    <glyph glyph-name="guillemotright" unicode="&#xbb;" horiz-adv-x="517" 
d="M304 255q-12 -5 -17 -5q-14 0 -23 11.5t-9 25.5q0 9 5.5 18t16.5 14l127 60l-127 58q-11 5 -15.5 13.5t-4.5 17.5q0 14 8 24.5t22 10.5q5 0 17 -5l167 -82q12 -6 18 -17t6 -21q0 -23 -24 -35zM92 255q-12 -5 -17 -5q-14 0 -22.5 11.5t-8.5 25.5q0 9 5 18t16 14l127 60
l-127 58q-11 5 -15.5 13.5t-4.5 17.5q0 14 8 24.5t22 10.5q5 0 17 -5l167 -82q12 -6 18 -17t6 -21q0 -23 -24 -35z" />
    <glyph glyph-name="questiondown" unicode="&#xbf;" horiz-adv-x="645" 
d="M249 0q-232 0 -232 238t231 238h96q108 0 108 -103q0 -104 -107 -104h-107q-41 0 -41 -31t41 -31h269q52 0 79.5 -26t27.5 -78q0 -51 -24.5 -77t-81.5 -26h-259zM354 538q-21 0 -40 8.5t-33 22.5t-22.5 33t-8.5 40t8.5 39.5t22.5 33t33 22.5t40 8t39.5 -8t33 -22.5
t22.5 -33t8 -39.5t-8 -40t-22.5 -33t-33 -22.5t-39.5 -8.5z" />
    <glyph glyph-name="Agrave" unicode="&#xc0;" 
d="M507 101h-262l-16 -36q-13 -35 -36.5 -51t-52.5 -16q-22 0 -42 7t-35.5 20t-24.5 31t-9 40q0 21 7 41l112 249q14 35 38 51.5t53 16.5q21 0 41 -7.5t35 -21t24.5 -31.5t9.5 -40q2 -19 -8 -40l-12 -27h101l-133 320q-8 21 -8 40q0 22 9.5 40t24.5 31t35 20.5t41 7.5
q29 0 52.5 -16t38.5 -51l225 -542q5 -11 5.5 -21.5t2.5 -19.5q0 -22 -9.5 -40t-25 -31t-35.5 -20t-41 -7q-62 0 -90 67zM264 827q-22 6 -30.5 20t-8.5 28q0 20 13 36t36 16q2 0 6 -0.5t9 -1.5l202 -54q21 -6 29.5 -21t8.5 -26q0 -20 -12.5 -36.5t-35.5 -16.5q-3 0 -7 1l-8 2
z" />
    <glyph glyph-name="Aacute" unicode="&#xc1;" 
d="M507 101h-262l-16 -36q-13 -35 -36.5 -51t-52.5 -16q-22 0 -42 7t-35.5 20t-24.5 31t-9 40q0 21 7 41l112 249q14 35 38 51.5t53 16.5q21 0 41 -7.5t35 -21t24.5 -31.5t9.5 -40q2 -19 -8 -40l-12 -27h101l-133 320q-8 21 -8 40q0 22 9.5 40t24.5 31t35 20.5t41 7.5
q29 0 52.5 -16t38.5 -51l225 -542q5 -11 5.5 -21.5t2.5 -19.5q0 -22 -9.5 -40t-25 -31t-35.5 -20t-41 -7q-62 0 -90 67zM289 774l-8 -2t-7 -1q-23 0 -36 16.5t-13 36.5q0 14 8.5 27.5t30.5 19.5l202 54q5 1 8.5 1.5t6.5 0.5q23 0 35.5 -16t12.5 -36q0 -14 -8.5 -28.5
t-29.5 -19.5z" />
    <glyph glyph-name="Acircumflex" unicode="&#xc2;" 
d="M507 101h-262l-16 -36q-13 -35 -36.5 -51t-52.5 -16q-22 0 -42 7t-35.5 20t-24.5 31t-9 40q0 21 7 41l112 249q14 35 38 51.5t53 16.5q21 0 41 -7.5t35 -21t24.5 -31.5t9.5 -40q2 -19 -8 -40l-12 -27h101l-133 320q-8 21 -8 40q0 22 9.5 40t24.5 31t35 20.5t41 7.5
q29 0 52.5 -16t38.5 -51l225 -542q5 -11 5.5 -21.5t2.5 -19.5q0 -22 -9.5 -40t-25 -31t-35.5 -20t-41 -7q-62 0 -90 67zM379 819l-45 -45q-16 -16 -36 -16t-35 14.5t-15 34.5q0 22 16 37l67 62q28 25 49 25t50 -24l66 -70q5 -5 9.5 -12t4.5 -16q0 -20 -15 -35t-35 -15
t-36 16z" />
    <glyph glyph-name="Atilde" unicode="&#xc3;" 
d="M507 101h-262l-16 -36q-13 -35 -36.5 -51t-52.5 -16q-22 0 -42 7t-35.5 20t-24.5 31t-9 40q0 21 7 41l112 249q14 35 38 51.5t53 16.5q21 0 41 -7.5t35 -21t24.5 -31.5t9.5 -40q2 -19 -8 -40l-12 -27h101l-133 320q-8 21 -8 40q0 22 9.5 40t24.5 31t35 20.5t41 7.5
q29 0 52.5 -16t38.5 -51l225 -542q5 -11 5.5 -21.5t2.5 -19.5q0 -22 -9.5 -40t-25 -31t-35.5 -20t-41 -7q-62 0 -90 67zM290 926q29 0 51 -8t41 -17t36 -17t37 -8q19 0 30.5 8.5t20.5 19t19.5 19t27.5 8.5q20 0 35.5 -15t15.5 -36q0 -24 -14 -43.5t-36 -33t-49.5 -20.5
t-54.5 -7q-25 0 -45.5 7.5t-38.5 17t-35.5 17t-36.5 7.5q-17 0 -27 -8.5t-19 -18.5t-19 -18.5t-26 -8.5q-20 0 -36 14t-16 36q0 23 14.5 42.5t35.5 33.5t45 21.5t44 7.5z" />
    <glyph glyph-name="Adieresis" unicode="&#xc4;" 
d="M507 101h-262l-16 -36q-13 -35 -36.5 -51t-52.5 -16q-22 0 -42 7t-35.5 20t-24.5 31t-9 40q0 21 7 41l112 249q14 35 38 51.5t53 16.5q21 0 41 -7.5t35 -21t24.5 -31.5t9.5 -40q2 -19 -8 -40l-12 -27h101l-133 320q-8 21 -8 40q0 22 9.5 40t24.5 31t35 20.5t41 7.5
q29 0 52.5 -16t38.5 -51l225 -542q5 -11 5.5 -21.5t2.5 -19.5q0 -22 -9.5 -40t-25 -31t-35.5 -20t-41 -7q-62 0 -90 67zM478 760q-25 0 -42.5 17t-17.5 43t17.5 43t42.5 17q26 0 43 -17t17 -43t-17 -43t-43 -17zM279 760q-26 0 -43 17t-17 43t17 43t43 17q25 0 42.5 -17
t17.5 -43t-17.5 -43t-42.5 -17z" />
    <glyph glyph-name="Aring" unicode="&#xc5;" 
d="M507 101h-262l-16 -36q-13 -35 -36.5 -51t-52.5 -16q-22 0 -42 7t-35.5 20t-24.5 31t-9 40q0 21 7 41l112 249q14 35 38 51.5t53 16.5q21 0 41 -7.5t35 -21t24.5 -31.5t9.5 -40q2 -19 -8 -40l-12 -27h101l-133 320q-8 21 -8 40q0 25 12 45.5t32 33.5q-30 13 -49 40
t-19 64q0 24 8.5 44.5t24 35.5t36 23.5t44.5 8.5t44.5 -8.5t35.5 -23.5t23.5 -35.5t8.5 -44.5q0 -30 -13 -54.5t-36 -39.5q14 -8 27.5 -22.5t21.5 -34.5l225 -542q5 -11 5.5 -21.5t2.5 -19.5q0 -22 -9.5 -40t-25 -31t-35.5 -20t-41 -7q-62 0 -90 67zM426 830q0 20 -14 34
t-34 14q-21 0 -35.5 -14t-14.5 -34q0 -21 14.5 -35.5t35.5 -14.5q20 0 34 14.5t14 35.5z" />
    <glyph glyph-name="AE" unicode="&#xc6;" horiz-adv-x="1186" 
d="M633 0q-6 -1 -11 -1.5t-10 -0.5q-33 0 -54.5 16.5t-35.5 50.5l-15 36h-262l-16 -36q-13 -35 -36.5 -51t-52.5 -16q-22 0 -42 7t-35.5 20t-24.5 31t-9 40q0 21 7 41l112 249q14 35 38 51.5t53 16.5q21 0 41 -7.5t35 -21t24.5 -31.5t9.5 -40q2 -19 -8 -40l-12 -27h101
l-133 320q-8 21 -8 40q0 22 9.5 40t24.5 31t35 20.5t41 7.5q26 0 51.5 -16t39.5 -51l31 -75v38q0 103 102 103h411q49 0 76.5 -30.5t27.5 -72.5t-27.5 -73t-76.5 -31h-309v-62h309q49 0 76.5 -30.5t27.5 -72.5q0 -43 -27.5 -73.5t-76.5 -30.5h-309v-62h309q49 0 76.5 -31
t27.5 -73t-27.5 -72.5t-76.5 -30.5h-401z" />
    <glyph glyph-name="Ccedilla" unicode="&#xc7;" horiz-adv-x="622" 
d="M466 -96q0 -28 -11.5 -50.5t-30 -38t-42.5 -24t-49 -8.5q-26 0 -38.5 15.5t-12.5 34.5q0 24 12.5 32t27 13t27 13t12.5 32q0 14 -4.5 25.5t-11 22t-14 20t-12.5 19.5q-62 15 -115.5 48.5t-92.5 81t-61.5 107.5t-22.5 128q0 76 28 143.5t80 118t125.5 79.5t165.5 29h59
q24 0 43 -8.5t32.5 -23.5t20.5 -34t7 -40t-7 -39.5t-20.5 -32.5t-32.5 -22.5t-43 -8.5h-75q-34 0 -65 -11t-55 -31.5t-38.5 -51t-14.5 -69.5q0 -36 13.5 -66.5t36.5 -52.5t54.5 -34.5t67.5 -12.5h76q24 0 43 -8.5t32.5 -23.5t20.5 -34t7 -40q0 -42 -27.5 -71.5t-75.5 -29.5
h-58q6 -11 13 -21t12.5 -21t9.5 -24t4 -30z" />
    <glyph glyph-name="Egrave" unicode="&#xc8;" horiz-adv-x="708" 
d="M148 0q-102 0 -102 103v539q0 103 102 103h409q49 0 76 -30.5t27 -72.5t-27 -73t-76 -31h-307v-70h317q42 0 66.5 -23.5t24.5 -71.5t-24.5 -73t-66.5 -25h-317v-68h309q49 0 76.5 -31t27.5 -73t-27.5 -72.5t-76.5 -30.5h-411zM242 827q-22 6 -30.5 20t-8.5 28q0 20 13 36
t36 16q2 0 6 -0.5t9 -1.5l202 -54q21 -6 29.5 -21t8.5 -26q0 -20 -12.5 -36.5t-35.5 -16.5q-3 0 -7 1l-8 2z" />
    <glyph glyph-name="Eacute" unicode="&#xc9;" horiz-adv-x="708" 
d="M148 0q-102 0 -102 103v539q0 103 102 103h409q49 0 76 -30.5t27 -72.5t-27 -73t-76 -31h-307v-70h317q42 0 66.5 -23.5t24.5 -71.5t-24.5 -73t-66.5 -25h-317v-68h309q49 0 76.5 -31t27.5 -73t-27.5 -72.5t-76.5 -30.5h-411zM267 774l-8 -2t-7 -1q-23 0 -36 16.5
t-13 36.5q0 14 8.5 27.5t30.5 19.5l202 54q5 1 8.5 1.5t6.5 0.5q23 0 35.5 -16t12.5 -36q0 -14 -8.5 -28.5t-29.5 -19.5z" />
    <glyph glyph-name="Ecircumflex" unicode="&#xca;" horiz-adv-x="708" 
d="M148 0q-102 0 -102 103v539q0 103 102 103h409q49 0 76 -30.5t27 -72.5t-27 -73t-76 -31h-307v-70h317q42 0 66.5 -23.5t24.5 -71.5t-24.5 -73t-66.5 -25h-317v-68h309q49 0 76.5 -31t27.5 -73t-27.5 -72.5t-76.5 -30.5h-411zM355 819l-45 -45q-16 -16 -36 -16t-35 14.5
t-15 34.5q0 22 16 37l67 62q28 25 49 25t50 -24l66 -70q5 -5 9.5 -12t4.5 -16q0 -20 -15 -35t-35 -15t-36 16z" />
    <glyph glyph-name="Edieresis" unicode="&#xcb;" horiz-adv-x="708" 
d="M148 0q-102 0 -102 103v539q0 103 102 103h409q49 0 76 -30.5t27 -72.5t-27 -73t-76 -31h-307v-70h317q42 0 66.5 -23.5t24.5 -71.5t-24.5 -73t-66.5 -25h-317v-68h309q49 0 76.5 -31t27.5 -73t-27.5 -72.5t-76.5 -30.5h-411zM454 760q-25 0 -42.5 17t-17.5 43t17.5 43
t42.5 17q26 0 43 -17t17 -43t-17 -43t-43 -17zM255 760q-26 0 -43 17t-17 43t17 43t43 17q25 0 42.5 -17t17.5 -43t-17.5 -43t-42.5 -17z" />
    <glyph glyph-name="Igrave" unicode="&#xcc;" horiz-adv-x="298" 
d="M45 642q0 51 30.5 76.5t72.5 25.5t72 -26.5t30 -75.5v-539q0 -51 -30 -76.5t-72 -25.5t-72.5 25.5t-30.5 76.5v539zM37 827q-22 6 -30.5 20t-8.5 28q0 20 13 36t36 16q2 0 6 -0.5t9 -1.5l202 -54q21 -6 29.5 -21t8.5 -26q0 -20 -12.5 -36.5t-35.5 -16.5q-3 0 -7 1l-8 2z
" />
    <glyph glyph-name="Iacute" unicode="&#xcd;" horiz-adv-x="298" 
d="M45 642q0 51 30.5 76.5t72.5 25.5t72 -26.5t30 -75.5v-539q0 -51 -30 -76.5t-72 -25.5t-72.5 25.5t-30.5 76.5v539zM62 774l-8 -2t-7 -1q-23 0 -36 16.5t-13 36.5q0 14 8.5 27.5t30.5 19.5l202 54q5 1 8.5 1.5t6.5 0.5q23 0 35.5 -16t12.5 -36q0 -14 -8.5 -28.5
t-29.5 -19.5z" />
    <glyph glyph-name="Icircumflex" unicode="&#xce;" horiz-adv-x="298" 
d="M45 642q0 51 30.5 76.5t72.5 25.5t72 -26.5t30 -75.5v-539q0 -51 -30 -76.5t-72 -25.5t-72.5 25.5t-30.5 76.5v539zM151 819l-45 -45q-16 -16 -36 -16t-35 14.5t-15 34.5q0 22 16 37l67 62q28 25 49 25t50 -24l66 -70q5 -5 9.5 -12t4.5 -16q0 -20 -15 -35t-35 -15t-36 16
z" />
    <glyph glyph-name="Idieresis" unicode="&#xcf;" horiz-adv-x="298" 
d="M45 642q0 51 30.5 76.5t72.5 25.5t72 -26.5t30 -75.5v-539q0 -51 -30 -76.5t-72 -25.5t-72.5 25.5t-30.5 76.5v539zM250 760q-25 0 -42.5 17t-17.5 43t17.5 43t42.5 17q26 0 43 -17t17 -43t-17 -43t-43 -17zM51 760q-26 0 -43 17t-17 43t17 43t43 17q25 0 42.5 -17
t17.5 -43t-17.5 -43t-42.5 -17z" />
    <glyph glyph-name="Eth" unicode="&#xd0;" horiz-adv-x="784" 
d="M193 0q-51 0 -79 27.5t-28 75.5v164q-38 2 -62 32t-24 71q0 21 6.5 39.5t18 33t27 23.5t34.5 10v166q0 19 9.5 37.5t24.5 33t34 23.5t39 9h162q91 0 165 -29t126 -79.5t80 -118t28 -143.5q0 -80 -30.5 -148.5t-83 -119t-122 -79t-147.5 -28.5h-178zM292 267v-60h81
q36 0 67 12.5t54.5 34.5t37 52.5t13.5 66.5q0 34 -13 64t-36 52t-55 34.5t-70 12.5h-79v-60h74q24 0 43.5 -8.5t33 -23.5t20.5 -34t7 -40t-7 -39.5t-20.5 -32.5t-33 -22.5t-43.5 -8.5h-74z" />
    <glyph glyph-name="Ntilde" unicode="&#xd1;" horiz-adv-x="669" 
d="M429 45l-179 270v-212q0 -51 -30.5 -76.5t-72.5 -25.5t-72 25.5t-30 76.5v539q0 49 30 75.5t72 26.5q30 0 50.5 -10.5t33.5 -35.5l186 -283v227q0 25 8.5 44t22.5 32t32.5 19.5t39.5 6.5q42 0 72.5 -25.5t30.5 -76.5v-539q0 -51 -30.5 -76.5t-72.5 -25.5q-21 0 -36 5
t-25.5 12.5t-17 15t-10.5 12.5zM249 926q29 0 51 -8t41 -17t36 -17t37 -8q19 0 30.5 8.5t20.5 19t19.5 19t27.5 8.5q20 0 35.5 -15t15.5 -36q0 -24 -14 -43.5t-36 -33t-49.5 -20.5t-54.5 -7q-25 0 -45.5 7.5t-38.5 17t-35.5 17t-36.5 7.5q-17 0 -27 -8.5t-19 -18.5
t-19 -18.5t-26 -8.5q-20 0 -36 14t-16 36q0 23 14.5 42.5t35.5 33.5t45 21.5t44 7.5z" />
    <glyph glyph-name="Ograve" unicode="&#xd2;" horiz-adv-x="826" 
d="M587 373q0 36 -13.5 67.5t-37 55t-55 37t-67.5 13.5t-67.5 -13.5t-54.5 -37t-36.5 -55t-13.5 -67.5t13.5 -67.5t36.5 -54.5t54.5 -36.5t67.5 -13.5t67.5 13.5t55 36.5t37 54.5t13.5 67.5zM794 375q0 -80 -30 -149t-82 -120.5t-121.5 -81t-148.5 -29.5t-148 29.5
t-120.5 81t-81.5 120.5t-30 149q0 79 30 148.5t81.5 121t120.5 81.5t148 30t148.5 -30t121.5 -81.5t82 -121t30 -148.5zM299 827q-22 6 -30.5 20t-8.5 28q0 20 13 36t36 16q2 0 6 -0.5t9 -1.5l202 -54q21 -6 29.5 -21t8.5 -26q0 -20 -12.5 -36.5t-35.5 -16.5q-3 0 -7 1l-8 2
z" />
    <glyph glyph-name="Oacute" unicode="&#xd3;" horiz-adv-x="826" 
d="M587 373q0 36 -13.5 67.5t-37 55t-55 37t-67.5 13.5t-67.5 -13.5t-54.5 -37t-36.5 -55t-13.5 -67.5t13.5 -67.5t36.5 -54.5t54.5 -36.5t67.5 -13.5t67.5 13.5t55 36.5t37 54.5t13.5 67.5zM794 375q0 -80 -30 -149t-82 -120.5t-121.5 -81t-148.5 -29.5t-148 29.5
t-120.5 81t-81.5 120.5t-30 149q0 79 30 148.5t81.5 121t120.5 81.5t148 30t148.5 -30t121.5 -81.5t82 -121t30 -148.5zM324 774l-8 -2t-7 -1q-23 0 -36 16.5t-13 36.5q0 14 8.5 27.5t30.5 19.5l202 54q5 1 8.5 1.5t6.5 0.5q23 0 35.5 -16t12.5 -36q0 -14 -8.5 -28.5
t-29.5 -19.5z" />
    <glyph glyph-name="Ocircumflex" unicode="&#xd4;" horiz-adv-x="826" 
d="M587 373q0 36 -13.5 67.5t-37 55t-55 37t-67.5 13.5t-67.5 -13.5t-54.5 -37t-36.5 -55t-13.5 -67.5t13.5 -67.5t36.5 -54.5t54.5 -36.5t67.5 -13.5t67.5 13.5t55 36.5t37 54.5t13.5 67.5zM794 375q0 -80 -30 -149t-82 -120.5t-121.5 -81t-148.5 -29.5t-148 29.5
t-120.5 81t-81.5 120.5t-30 149q0 79 30 148.5t81.5 121t120.5 81.5t148 30t148.5 -30t121.5 -81.5t82 -121t30 -148.5zM413 819l-45 -45q-16 -16 -36 -16t-35 14.5t-15 34.5q0 22 16 37l67 62q28 25 49 25t50 -24l66 -70q5 -5 9.5 -12t4.5 -16q0 -20 -15 -35t-35 -15
t-36 16z" />
    <glyph glyph-name="Otilde" unicode="&#xd5;" horiz-adv-x="826" 
d="M587 373q0 36 -13.5 67.5t-37 55t-55 37t-67.5 13.5t-67.5 -13.5t-54.5 -37t-36.5 -55t-13.5 -67.5t13.5 -67.5t36.5 -54.5t54.5 -36.5t67.5 -13.5t67.5 13.5t55 36.5t37 54.5t13.5 67.5zM794 375q0 -80 -30 -149t-82 -120.5t-121.5 -81t-148.5 -29.5t-148 29.5
t-120.5 81t-81.5 120.5t-30 149q0 79 30 148.5t81.5 121t120.5 81.5t148 30t148.5 -30t121.5 -81.5t82 -121t30 -148.5zM325 926q29 0 51 -8t41 -17t36 -17t37 -8q19 0 30.5 8.5t20.5 19t19.5 19t27.5 8.5q20 0 35.5 -15t15.5 -36q0 -24 -14 -43.5t-36 -33t-49.5 -20.5
t-54.5 -7q-25 0 -45.5 7.5t-38.5 17t-35.5 17t-36.5 7.5q-17 0 -27 -8.5t-19 -18.5t-19 -18.5t-26 -8.5q-20 0 -36 14t-16 36q0 23 14.5 42.5t35.5 33.5t45 21.5t44 7.5z" />
    <glyph glyph-name="Odieresis" unicode="&#xd6;" horiz-adv-x="826" 
d="M587 373q0 36 -13.5 67.5t-37 55t-55 37t-67.5 13.5t-67.5 -13.5t-54.5 -37t-36.5 -55t-13.5 -67.5t13.5 -67.5t36.5 -54.5t54.5 -36.5t67.5 -13.5t67.5 13.5t55 36.5t37 54.5t13.5 67.5zM794 375q0 -80 -30 -149t-82 -120.5t-121.5 -81t-148.5 -29.5t-148 29.5
t-120.5 81t-81.5 120.5t-30 149q0 79 30 148.5t81.5 121t120.5 81.5t148 30t148.5 -30t121.5 -81.5t82 -121t30 -148.5zM512 760q-25 0 -42.5 17t-17.5 43t17.5 43t42.5 17q26 0 43 -17t17 -43t-17 -43t-43 -17zM313 760q-26 0 -43 17t-17 43t17 43t43 17q25 0 42.5 -17
t17.5 -43t-17.5 -43t-42.5 -17z" />
    <glyph glyph-name="multiply" unicode="&#xd7;" horiz-adv-x="578" 
d="M293 219l-46 -46q-17 -17 -36 -24.5t-37 -7.5q-20 0 -39 8.5t-33 22.5t-22.5 32.5t-8.5 39.5q0 18 7.5 37t24.5 37l45 46l-51 51q-17 17 -24.5 36t-7.5 37q0 21 9 40t23.5 33.5t33 23t38.5 8.5q18 0 37 -7.5t36 -24.5l52 -53l46 46q17 17 35.5 25t36.5 8q20 0 39 -8.5
t33.5 -23t23 -33.5t8.5 -39q0 -18 -7.5 -37.5t-23.5 -35.5l-46 -46l41 -41q17 -17 24.5 -36.5t7.5 -36.5q0 -20 -8.5 -38.5t-23 -33t-33.5 -23.5t-40 -9q-18 0 -37 7.5t-36 24.5z" />
    <glyph glyph-name="Oslash" unicode="&#xd8;" horiz-adv-x="826" 
d="M794 375q0 -80 -30 -149t-82 -120.5t-121.5 -81t-148.5 -29.5q-74 0 -143 28.5t-121.5 79.5t-84 120.5t-31.5 151.5q0 79 30 148.5t81.5 121t120.5 81.5t148 30t148.5 -30t121.5 -81.5t82 -121t30 -148.5zM358 536q-52 -17 -84 -61.5t-32 -101.5q0 -64 38 -111zM480 213
q48 20 77.5 62.5t29.5 97.5q0 29 -9 54.5t-25 47.5z" />
    <glyph glyph-name="Ugrave" unicode="&#xd9;" horiz-adv-x="663" 
d="M326 0q-284 0 -284 328v314q0 25 8.5 44t22.5 32t32.5 19.5t39.5 6.5q42 0 72.5 -25.5t30.5 -76.5v-345q0 -93 83 -93q84 0 84 93v345q0 49 30 75.5t72 26.5t73 -25.5t31 -76.5v-314q0 -328 -286 -328h-9zM219 827q-22 6 -30.5 20t-8.5 28q0 20 13 36t36 16q2 0 6 -0.5
t9 -1.5l202 -54q21 -6 29.5 -21t8.5 -26q0 -20 -12.5 -36.5t-35.5 -16.5q-3 0 -7 1l-8 2z" />
    <glyph glyph-name="Uacute" unicode="&#xda;" horiz-adv-x="663" 
d="M326 0q-284 0 -284 328v314q0 25 8.5 44t22.5 32t32.5 19.5t39.5 6.5q42 0 72.5 -25.5t30.5 -76.5v-345q0 -93 83 -93q84 0 84 93v345q0 49 30 75.5t72 26.5t73 -25.5t31 -76.5v-314q0 -328 -286 -328h-9zM244 774l-8 -2t-7 -1q-23 0 -36 16.5t-13 36.5q0 14 8.5 27.5
t30.5 19.5l202 54q5 1 8.5 1.5t6.5 0.5q23 0 35.5 -16t12.5 -36q0 -14 -8.5 -28.5t-29.5 -19.5z" />
    <glyph glyph-name="Ucircumflex" unicode="&#xdb;" horiz-adv-x="663" 
d="M326 0q-284 0 -284 328v314q0 25 8.5 44t22.5 32t32.5 19.5t39.5 6.5q42 0 72.5 -25.5t30.5 -76.5v-345q0 -93 83 -93q84 0 84 93v345q0 49 30 75.5t72 26.5t73 -25.5t31 -76.5v-314q0 -328 -286 -328h-9zM333 819l-45 -45q-16 -16 -36 -16t-35 14.5t-15 34.5q0 22 16 37
l67 62q28 25 49 25t50 -24l66 -70q5 -5 9.5 -12t4.5 -16q0 -20 -15 -35t-35 -15t-36 16z" />
    <glyph glyph-name="Udieresis" unicode="&#xdc;" horiz-adv-x="663" 
d="M326 0q-284 0 -284 328v314q0 25 8.5 44t22.5 32t32.5 19.5t39.5 6.5q42 0 72.5 -25.5t30.5 -76.5v-345q0 -93 83 -93q84 0 84 93v345q0 49 30 75.5t72 26.5t73 -25.5t31 -76.5v-314q0 -328 -286 -328h-9zM432 760q-25 0 -42.5 17t-17.5 43t17.5 43t42.5 17q26 0 43 -17
t17 -43t-17 -43t-43 -17zM233 760q-26 0 -43 17t-17 43t17 43t43 17q25 0 42.5 -17t17.5 -43t-17.5 -43t-42.5 -17z" />
    <glyph glyph-name="Yacute" unicode="&#xdd;" horiz-adv-x="608" 
d="M202 323l-166 265q-9 14 -12.5 28.5t-3.5 26.5q0 19 9 37.5t24 33t34.5 23t40.5 8.5q25 0 47 -13t38 -40l91 -156l91 156q31 53 85 53q21 0 40.5 -8.5t34.5 -23t24 -33t9 -37.5q0 -12 -4 -26.5t-12 -28.5l-165 -265v-221q0 -51 -30 -76.5t-72 -25.5t-72.5 25.5
t-30.5 76.5v221zM217 774l-8 -2t-7 -1q-23 0 -36 16.5t-13 36.5q0 14 8.5 27.5t30.5 19.5l202 54q5 1 8.5 1.5t6.5 0.5q23 0 35.5 -16t12.5 -36q0 -14 -8.5 -28.5t-29.5 -19.5z" />
    <glyph glyph-name="Thorn" unicode="&#xde;" horiz-adv-x="658" 
d="M252 106q0 -106 -104 -106q-54 0 -77.5 26t-23.5 80v106q0 63 28 94.5t88 31.5h259q42 0 42 31t-42 31h-276q-46 0 -73.5 27.5t-27.5 70.5v144q0 51 30.5 76.5t72.5 25.5t72 -26.5t30 -75.5v-35h161q232 0 232 -238q0 -119 -57.5 -170.5t-173.5 -51.5h-160v-41z" />
    <glyph glyph-name="germandbls" unicode="&#xdf;" horiz-adv-x="1371" 
d="M150 0q-99 0 -99 100q0 107 100 107h276q41 0 41 31t-41 31h-168q-219 6 -219 238q0 238 234 238h227q98 0 98 -100q0 -107 -99 -107h-240q-41 0 -41 -31t41 -31h169q219 -6 219 -238q0 -238 -232 -238h-266zM835 0q-99 0 -99 100q0 107 100 107h276q41 0 41 31t-41 31
h-168q-219 6 -219 238q0 238 234 238h227q98 0 98 -100q0 -107 -99 -107h-240q-41 0 -41 -31t41 -31h169q219 -6 219 -238q0 -238 -232 -238h-266z" />
    <glyph glyph-name="agrave" unicode="&#xe0;" 
d="M506 101h-262l-15 -36q-28 -67 -89 -67q-21 0 -41 7t-35.5 20t-25 31t-9.5 40q0 9 1 19.5t6 21.5l226 542q13 35 37.5 51t53.5 16q21 0 40.5 -7.5t35 -20.5t24.5 -31t9 -40q0 -10 -1.5 -20.5t-5.5 -19.5l-134 -320h101l-12 27q-9 21 -8 40q0 22 9.5 40t24.5 31.5t35 21
t41 7.5q29 0 53.5 -16.5t37.5 -51.5l112 -249q8 -26 8 -41q0 -22 -9.5 -40t-25 -31t-35.5 -20t-41 -7q-31 0 -52.5 16t-37.5 51zM264 827q-22 6 -30.5 20t-8.5 28q0 20 13 36t36 16q2 0 6 -0.5t9 -1.5l202 -54q21 -6 29.5 -21t8.5 -26q0 -20 -12.5 -36.5t-35.5 -16.5
q-3 0 -7 1l-8 2z" />
    <glyph glyph-name="aacute" unicode="&#xe1;" 
d="M506 101h-262l-15 -36q-28 -67 -89 -67q-21 0 -41 7t-35.5 20t-25 31t-9.5 40q0 9 1 19.5t6 21.5l226 542q13 35 37.5 51t53.5 16q21 0 40.5 -7.5t35 -20.5t24.5 -31t9 -40q0 -10 -1.5 -20.5t-5.5 -19.5l-134 -320h101l-12 27q-9 21 -8 40q0 22 9.5 40t24.5 31.5t35 21
t41 7.5q29 0 53.5 -16.5t37.5 -51.5l112 -249q8 -26 8 -41q0 -22 -9.5 -40t-25 -31t-35.5 -20t-41 -7q-31 0 -52.5 16t-37.5 51zM289 774l-8 -2t-7 -1q-23 0 -36 16.5t-13 36.5q0 14 8.5 27.5t30.5 19.5l202 54q5 1 8.5 1.5t6.5 0.5q23 0 35.5 -16t12.5 -36
q0 -14 -8.5 -28.5t-29.5 -19.5z" />
    <glyph glyph-name="acircumflex" unicode="&#xe2;" 
d="M506 101h-262l-15 -36q-28 -67 -89 -67q-21 0 -41 7t-35.5 20t-25 31t-9.5 40q0 9 1 19.5t6 21.5l226 542q13 35 37.5 51t53.5 16q21 0 40.5 -7.5t35 -20.5t24.5 -31t9 -40q0 -10 -1.5 -20.5t-5.5 -19.5l-134 -320h101l-12 27q-9 21 -8 40q0 22 9.5 40t24.5 31.5t35 21
t41 7.5q29 0 53.5 -16.5t37.5 -51.5l112 -249q8 -26 8 -41q0 -22 -9.5 -40t-25 -31t-35.5 -20t-41 -7q-31 0 -52.5 16t-37.5 51zM379 819l-45 -45q-16 -16 -36 -16t-35 14.5t-15 34.5q0 22 16 37l67 62q28 25 49 25t50 -24l66 -70q5 -5 9.5 -12t4.5 -16q0 -20 -15 -35
t-35 -15t-36 16z" />
    <glyph glyph-name="atilde" unicode="&#xe3;" 
d="M506 101h-262l-15 -36q-28 -67 -89 -67q-21 0 -41 7t-35.5 20t-25 31t-9.5 40q0 9 1 19.5t6 21.5l226 542q13 35 37.5 51t53.5 16q21 0 40.5 -7.5t35 -20.5t24.5 -31t9 -40q0 -10 -1.5 -20.5t-5.5 -19.5l-134 -320h101l-12 27q-9 21 -8 40q0 22 9.5 40t24.5 31.5t35 21
t41 7.5q29 0 53.5 -16.5t37.5 -51.5l112 -249q8 -26 8 -41q0 -22 -9.5 -40t-25 -31t-35.5 -20t-41 -7q-31 0 -52.5 16t-37.5 51zM290 926q29 0 51 -8t41 -17t36 -17t37 -8q19 0 30.5 8.5t20.5 19t19.5 19t27.5 8.5q20 0 35.5 -15t15.5 -36q0 -24 -14 -43.5t-36 -33
t-49.5 -20.5t-54.5 -7q-25 0 -45.5 7.5t-38.5 17t-35.5 17t-36.5 7.5q-17 0 -27 -8.5t-19 -18.5t-19 -18.5t-26 -8.5q-20 0 -36 14t-16 36q0 23 14.5 42.5t35.5 33.5t45 21.5t44 7.5z" />
    <glyph glyph-name="adieresis" unicode="&#xe4;" 
d="M506 101h-262l-15 -36q-28 -67 -89 -67q-21 0 -41 7t-35.5 20t-25 31t-9.5 40q0 9 1 19.5t6 21.5l226 542q13 35 37.5 51t53.5 16q21 0 40.5 -7.5t35 -20.5t24.5 -31t9 -40q0 -10 -1.5 -20.5t-5.5 -19.5l-134 -320h101l-12 27q-9 21 -8 40q0 22 9.5 40t24.5 31.5t35 21
t41 7.5q29 0 53.5 -16.5t37.5 -51.5l112 -249q8 -26 8 -41q0 -22 -9.5 -40t-25 -31t-35.5 -20t-41 -7q-31 0 -52.5 16t-37.5 51zM478 760q-25 0 -42.5 17t-17.5 43t17.5 43t42.5 17q26 0 43 -17t17 -43t-17 -43t-43 -17zM279 760q-26 0 -43 17t-17 43t17 43t43 17
q25 0 42.5 -17t17.5 -43t-17.5 -43t-42.5 -17z" />
    <glyph glyph-name="aring" unicode="&#xe5;" 
d="M506 101h-262l-15 -36q-28 -67 -89 -67q-21 0 -41 7t-35.5 20t-25 31t-9.5 40q0 9 1 19.5t6 21.5l226 542q9 21 20.5 36t30.5 23q-22 15 -35 38.5t-13 53.5q0 24 8.5 44.5t24 35.5t36 23.5t44.5 8.5t44.5 -8.5t35.5 -23.5t23.5 -35.5t8.5 -44.5q0 -37 -19.5 -65
t-50.5 -40q19 -13 30.5 -33.5t11.5 -44.5q0 -10 -1.5 -20.5t-5.5 -19.5l-134 -320h101l-12 27q-9 21 -8 40q0 22 9.5 40t24.5 31.5t35 21t41 7.5q29 0 53.5 -16.5t37.5 -51.5l112 -249q8 -26 8 -41q0 -22 -9.5 -40t-25 -31t-35.5 -20t-41 -7q-31 0 -52.5 16t-37.5 51z
M426 830q0 20 -14 34t-34 14q-21 0 -35.5 -14t-14.5 -34q0 -21 14.5 -35.5t35.5 -14.5q20 0 34 14.5t14 35.5z" />
    <glyph glyph-name="ae" unicode="&#xe6;" horiz-adv-x="1186" 
d="M633 0q-6 -1 -11 -1.5t-10 -0.5q-33 0 -54.5 16.5t-35.5 50.5l-15 36h-262l-16 -36q-13 -35 -36.5 -51t-52.5 -16q-22 0 -42 7t-35.5 20t-24.5 31t-9 40q0 21 7 41l112 249q14 35 38 51.5t53 16.5q21 0 41 -7.5t35 -21t24.5 -31.5t9.5 -40q2 -19 -8 -40l-12 -27h101
l-133 320q-8 21 -8 40q0 22 9.5 40t24.5 31t35 20.5t41 7.5q26 0 51.5 -16t39.5 -51l31 -75v38q0 103 102 103h411q49 0 76.5 -30.5t27.5 -72.5t-27.5 -73t-76.5 -31h-309v-62h309q49 0 76.5 -30.5t27.5 -72.5q0 -43 -27.5 -73.5t-76.5 -30.5h-309v-62h309q49 0 76.5 -31
t27.5 -73t-27.5 -72.5t-76.5 -30.5h-401z" />
    <glyph glyph-name="ccedilla" unicode="&#xe7;" horiz-adv-x="622" 
d="M466 -96q0 -28 -11.5 -50.5t-30 -38t-42.5 -24t-49 -8.5q-26 0 -38.5 15.5t-12.5 34.5q0 24 12.5 32t27 13t27 13t12.5 32q0 14 -4.5 25.5t-11 22t-14 20t-12.5 19.5q-62 15 -115.5 48.5t-92.5 81t-61.5 107.5t-22.5 128q0 76 28 143.5t80 118t125.5 79.5t165.5 29h59
q24 0 43 -8.5t32.5 -23.5t20.5 -34t7 -40t-7 -39.5t-20.5 -32.5t-32.5 -22.5t-43 -8.5h-75q-34 0 -65 -11t-55 -31.5t-38.5 -51t-14.5 -69.5q0 -36 13.5 -66.5t36.5 -52.5t54.5 -34.5t67.5 -12.5h76q24 0 43 -8.5t32.5 -23.5t20.5 -34t7 -40q0 -42 -27.5 -71.5t-75.5 -29.5
h-58q6 -11 13 -21t12.5 -21t9.5 -24t4 -30z" />
    <glyph glyph-name="egrave" unicode="&#xe8;" horiz-adv-x="773" 
d="M229 0q-48 0 -82.5 14t-57 39.5t-33.5 61t-11 77.5q0 75 37.5 122.5t106.5 58.5q-69 10 -104.5 57t-35.5 122q0 42 11 77.5t33.5 61t57.5 40t84 14.5h389q94 0 94 -103q0 -104 -95 -104h-319q-41 0 -41 -31t41 -31h310q97 0 97 -103q0 -104 -98 -104h-309q-41 0 -41 -31
t41 -31h314q100 0 100 -104q0 -103 -99 -103h-390zM273 827q-22 6 -30.5 20t-8.5 28q0 20 13 36t36 16q2 0 6 -0.5t9 -1.5l202 -54q21 -6 29.5 -21t8.5 -26q0 -20 -12.5 -36.5t-35.5 -16.5q-3 0 -7 1l-8 2z" />
    <glyph glyph-name="eacute" unicode="&#xe9;" horiz-adv-x="773" 
d="M229 0q-48 0 -82.5 14t-57 39.5t-33.5 61t-11 77.5q0 75 37.5 122.5t106.5 58.5q-69 10 -104.5 57t-35.5 122q0 42 11 77.5t33.5 61t57.5 40t84 14.5h389q94 0 94 -103q0 -104 -95 -104h-319q-41 0 -41 -31t41 -31h310q97 0 97 -103q0 -104 -98 -104h-309q-41 0 -41 -31
t41 -31h314q100 0 100 -104q0 -103 -99 -103h-390zM298 774l-8 -2t-7 -1q-23 0 -36 16.5t-13 36.5q0 14 8.5 27.5t30.5 19.5l202 54q5 1 8.5 1.5t6.5 0.5q23 0 35.5 -16t12.5 -36q0 -14 -8.5 -28.5t-29.5 -19.5z" />
    <glyph glyph-name="ecircumflex" unicode="&#xea;" horiz-adv-x="773" 
d="M229 0q-48 0 -82.5 14t-57 39.5t-33.5 61t-11 77.5q0 75 37.5 122.5t106.5 58.5q-69 10 -104.5 57t-35.5 122q0 42 11 77.5t33.5 61t57.5 40t84 14.5h389q94 0 94 -103q0 -104 -95 -104h-319q-41 0 -41 -31t41 -31h310q97 0 97 -103q0 -104 -98 -104h-309q-41 0 -41 -31
t41 -31h314q100 0 100 -104q0 -103 -99 -103h-390zM386 819l-45 -45q-16 -16 -36 -16t-35 14.5t-15 34.5q0 22 16 37l67 62q28 25 49 25t50 -24l66 -70q5 -5 9.5 -12t4.5 -16q0 -20 -15 -35t-35 -15t-36 16z" />
    <glyph glyph-name="edieresis" unicode="&#xeb;" horiz-adv-x="773" 
d="M229 0q-48 0 -82.5 14t-57 39.5t-33.5 61t-11 77.5q0 75 37.5 122.5t106.5 58.5q-69 10 -104.5 57t-35.5 122q0 42 11 77.5t33.5 61t57.5 40t84 14.5h389q94 0 94 -103q0 -104 -95 -104h-319q-41 0 -41 -31t41 -31h310q97 0 97 -103q0 -104 -98 -104h-309q-41 0 -41 -31
t41 -31h314q100 0 100 -104q0 -103 -99 -103h-390zM486 760q-25 0 -42.5 17t-17.5 43t17.5 43t42.5 17q26 0 43 -17t17 -43t-17 -43t-43 -17zM287 760q-26 0 -43 17t-17 43t17 43t43 17q25 0 42.5 -17t17.5 -43t-17.5 -43t-42.5 -17z" />
    <glyph glyph-name="igrave" unicode="&#xec;" horiz-adv-x="298" 
d="M45 642q0 51 30.5 76.5t72.5 25.5t72 -26.5t30 -75.5v-539q0 -51 -30 -76.5t-72 -25.5t-72.5 25.5t-30.5 76.5v539zM37 827q-22 6 -30.5 20t-8.5 28q0 20 13 36t36 16q2 0 6 -0.5t9 -1.5l202 -54q21 -6 29.5 -21t8.5 -26q0 -20 -12.5 -36.5t-35.5 -16.5q-3 0 -7 1l-8 2z
" />
    <glyph glyph-name="iacute" unicode="&#xed;" horiz-adv-x="298" 
d="M45 642q0 51 30.5 76.5t72.5 25.5t72 -26.5t30 -75.5v-539q0 -51 -30 -76.5t-72 -25.5t-72.5 25.5t-30.5 76.5v539zM62 774l-8 -2t-7 -1q-23 0 -36 16.5t-13 36.5q0 14 8.5 27.5t30.5 19.5l202 54q5 1 8.5 1.5t6.5 0.5q23 0 35.5 -16t12.5 -36q0 -14 -8.5 -28.5
t-29.5 -19.5z" />
    <glyph glyph-name="icircumflex" unicode="&#xee;" horiz-adv-x="298" 
d="M45 642q0 51 30.5 76.5t72.5 25.5t72 -26.5t30 -75.5v-539q0 -51 -30 -76.5t-72 -25.5t-72.5 25.5t-30.5 76.5v539zM151 819l-45 -45q-16 -16 -36 -16t-35 14.5t-15 34.5q0 22 16 37l67 62q28 25 49 25t50 -24l66 -70q5 -5 9.5 -12t4.5 -16q0 -20 -15 -35t-35 -15t-36 16
z" />
    <glyph glyph-name="idieresis" unicode="&#xef;" horiz-adv-x="298" 
d="M45 642q0 51 30.5 76.5t72.5 25.5t72 -26.5t30 -75.5v-539q0 -51 -30 -76.5t-72 -25.5t-72.5 25.5t-30.5 76.5v539zM250 760q-25 0 -42.5 17t-17.5 43t17.5 43t42.5 17q26 0 43 -17t17 -43t-17 -43t-43 -17zM51 760q-26 0 -43 17t-17 43t17 43t43 17q25 0 42.5 -17
t17.5 -43t-17.5 -43t-42.5 -17z" />
    <glyph glyph-name="eth" unicode="&#xf0;" horiz-adv-x="784" 
d="M193 0q-51 0 -79 27.5t-28 75.5v164q-38 2 -62 32t-24 71q0 21 6.5 39.5t18 33t27 23.5t34.5 10v166q0 19 9.5 37.5t24.5 33t34 23.5t39 9h162q91 0 165 -29t126 -79.5t80 -118t28 -143.5q0 -80 -30.5 -148.5t-83 -119t-122 -79t-147.5 -28.5h-178zM292 267v-60h81
q36 0 67 12.5t54.5 34.5t37 52.5t13.5 66.5q0 34 -13 64t-36 52t-55 34.5t-70 12.5h-79v-60h74q24 0 43.5 -8.5t33 -23.5t20.5 -34t7 -40t-7 -39.5t-20.5 -32.5t-33 -22.5t-43.5 -8.5h-74z" />
    <glyph glyph-name="ntilde" unicode="&#xf1;" horiz-adv-x="669" 
d="M429 45l-179 270v-212q0 -51 -30.5 -76.5t-72.5 -25.5t-72 25.5t-30 76.5v539q0 49 30 75.5t72 26.5q30 0 50.5 -10.5t33.5 -35.5l186 -283v227q0 25 8.5 44t22.5 32t32.5 19.5t39.5 6.5q42 0 72.5 -25.5t30.5 -76.5v-539q0 -51 -30.5 -76.5t-72.5 -25.5q-21 0 -36 5
t-25.5 12.5t-17 15t-10.5 12.5zM249 926q29 0 51 -8t41 -17t36 -17t37 -8q19 0 30.5 8.5t20.5 19t19.5 19t27.5 8.5q20 0 35.5 -15t15.5 -36q0 -24 -14 -43.5t-36 -33t-49.5 -20.5t-54.5 -7q-25 0 -45.5 7.5t-38.5 17t-35.5 17t-36.5 7.5q-17 0 -27 -8.5t-19 -18.5
t-19 -18.5t-26 -8.5q-20 0 -36 14t-16 36q0 23 14.5 42.5t35.5 33.5t45 21.5t44 7.5z" />
    <glyph glyph-name="ograve" unicode="&#xf2;" horiz-adv-x="826" 
d="M587 373q0 36 -13.5 67.5t-37 55t-55 37t-67.5 13.5t-67.5 -13.5t-54.5 -37t-36.5 -55t-13.5 -67.5t13.5 -67.5t36.5 -54.5t54.5 -36.5t67.5 -13.5t67.5 13.5t55 36.5t37 54.5t13.5 67.5zM794 375q0 -80 -30 -149t-82 -120.5t-121.5 -81t-148.5 -29.5t-148 29.5
t-120.5 81t-81.5 120.5t-30 149q0 79 30 148.5t81.5 121t120.5 81.5t148 30t148.5 -30t121.5 -81.5t82 -121t30 -148.5zM299 827q-22 6 -30.5 20t-8.5 28q0 20 13 36t36 16q2 0 6 -0.5t9 -1.5l202 -54q21 -6 29.5 -21t8.5 -26q0 -20 -12.5 -36.5t-35.5 -16.5q-3 0 -7 1l-8 2
z" />
    <glyph glyph-name="oacute" unicode="&#xf3;" horiz-adv-x="826" 
d="M587 373q0 36 -13.5 67.5t-37 55t-55 37t-67.5 13.5t-67.5 -13.5t-54.5 -37t-36.5 -55t-13.5 -67.5t13.5 -67.5t36.5 -54.5t54.5 -36.5t67.5 -13.5t67.5 13.5t55 36.5t37 54.5t13.5 67.5zM794 375q0 -80 -30 -149t-82 -120.5t-121.5 -81t-148.5 -29.5t-148 29.5
t-120.5 81t-81.5 120.5t-30 149q0 79 30 148.5t81.5 121t120.5 81.5t148 30t148.5 -30t121.5 -81.5t82 -121t30 -148.5zM324 774l-8 -2t-7 -1q-23 0 -36 16.5t-13 36.5q0 14 8.5 27.5t30.5 19.5l202 54q5 1 8.5 1.5t6.5 0.5q23 0 35.5 -16t12.5 -36q0 -14 -8.5 -28.5
t-29.5 -19.5z" />
    <glyph glyph-name="ocircumflex" unicode="&#xf4;" horiz-adv-x="826" 
d="M587 373q0 36 -13.5 67.5t-37 55t-55 37t-67.5 13.5t-67.5 -13.5t-54.5 -37t-36.5 -55t-13.5 -67.5t13.5 -67.5t36.5 -54.5t54.5 -36.5t67.5 -13.5t67.5 13.5t55 36.5t37 54.5t13.5 67.5zM794 375q0 -80 -30 -149t-82 -120.5t-121.5 -81t-148.5 -29.5t-148 29.5
t-120.5 81t-81.5 120.5t-30 149q0 79 30 148.5t81.5 121t120.5 81.5t148 30t148.5 -30t121.5 -81.5t82 -121t30 -148.5zM413 819l-45 -45q-16 -16 -36 -16t-35 14.5t-15 34.5q0 22 16 37l67 62q28 25 49 25t50 -24l66 -70q5 -5 9.5 -12t4.5 -16q0 -20 -15 -35t-35 -15
t-36 16z" />
    <glyph glyph-name="otilde" unicode="&#xf5;" horiz-adv-x="826" 
d="M587 373q0 36 -13.5 67.5t-37 55t-55 37t-67.5 13.5t-67.5 -13.5t-54.5 -37t-36.5 -55t-13.5 -67.5t13.5 -67.5t36.5 -54.5t54.5 -36.5t67.5 -13.5t67.5 13.5t55 36.5t37 54.5t13.5 67.5zM794 375q0 -80 -30 -149t-82 -120.5t-121.5 -81t-148.5 -29.5t-148 29.5
t-120.5 81t-81.5 120.5t-30 149q0 79 30 148.5t81.5 121t120.5 81.5t148 30t148.5 -30t121.5 -81.5t82 -121t30 -148.5zM325 926q29 0 51 -8t41 -17t36 -17t37 -8q19 0 30.5 8.5t20.5 19t19.5 19t27.5 8.5q20 0 35.5 -15t15.5 -36q0 -24 -14 -43.5t-36 -33t-49.5 -20.5
t-54.5 -7q-25 0 -45.5 7.5t-38.5 17t-35.5 17t-36.5 7.5q-17 0 -27 -8.5t-19 -18.5t-19 -18.5t-26 -8.5q-20 0 -36 14t-16 36q0 23 14.5 42.5t35.5 33.5t45 21.5t44 7.5z" />
    <glyph glyph-name="odieresis" unicode="&#xf6;" horiz-adv-x="826" 
d="M587 373q0 36 -13.5 67.5t-37 55t-55 37t-67.5 13.5t-67.5 -13.5t-54.5 -37t-36.5 -55t-13.5 -67.5t13.5 -67.5t36.5 -54.5t54.5 -36.5t67.5 -13.5t67.5 13.5t55 36.5t37 54.5t13.5 67.5zM794 375q0 -80 -30 -149t-82 -120.5t-121.5 -81t-148.5 -29.5t-148 29.5
t-120.5 81t-81.5 120.5t-30 149q0 79 30 148.5t81.5 121t120.5 81.5t148 30t148.5 -30t121.5 -81.5t82 -121t30 -148.5zM512 760q-25 0 -42.5 17t-17.5 43t17.5 43t42.5 17q26 0 43 -17t17 -43t-17 -43t-43 -17zM313 760q-26 0 -43 17t-17 43t17 43t43 17q25 0 42.5 -17
t17.5 -43t-17.5 -43t-42.5 -17z" />
    <glyph glyph-name="divide" unicode="&#xf7;" horiz-adv-x="628" 
d="M146 267q-24 0 -43.5 8.5t-33 22.5t-20.5 32.5t-7 39.5t7 40t20.5 34t33 23.5t43.5 8.5h336q24 0 43.5 -8.5t33 -23.5t20.5 -34t7 -40t-7 -39.5t-20.5 -32.5t-33 -22.5t-43.5 -8.5h-336zM419 120q0 -21 -8.5 -39.5t-22.5 -33t-33 -22.5t-40 -8t-39.5 8t-33 22.5t-22.5 33
t-8 39.5t8 39.5t22.5 33t33 22.5t39.5 8t40 -8t33 -22.5t22.5 -33t8.5 -39.5zM315 518q-21 0 -39.5 8.5t-33 22.5t-22.5 33t-8 40t8 39.5t22.5 33t33 22.5t39.5 8t40 -8t33 -22.5t22.5 -33t8.5 -39.5t-8.5 -40t-22.5 -33t-33 -22.5t-40 -8.5z" />
    <glyph glyph-name="oslash" unicode="&#xf8;" horiz-adv-x="826" 
d="M794 375q0 -80 -30 -149t-82 -120.5t-121.5 -81t-148.5 -29.5q-74 0 -143 28.5t-121.5 79.5t-84 120.5t-31.5 151.5q0 79 30 148.5t81.5 121t120.5 81.5t148 30t148.5 -30t121.5 -81.5t82 -121t30 -148.5zM358 536q-52 -17 -84 -61.5t-32 -101.5q0 -64 38 -111zM480 213
q48 20 77.5 62.5t29.5 97.5q0 29 -9 54.5t-25 47.5z" />
    <glyph glyph-name="ugrave" unicode="&#xf9;" horiz-adv-x="663" 
d="M326 0q-284 0 -284 328v314q0 25 8.5 44t22.5 32t32.5 19.5t39.5 6.5q42 0 72.5 -25.5t30.5 -76.5v-345q0 -93 83 -93q84 0 84 93v345q0 49 30 75.5t72 26.5t73 -25.5t31 -76.5v-314q0 -328 -286 -328h-9zM219 827q-22 6 -30.5 20t-8.5 28q0 20 13 36t36 16q2 0 6 -0.5
t9 -1.5l202 -54q21 -6 29.5 -21t8.5 -26q0 -20 -12.5 -36.5t-35.5 -16.5q-3 0 -7 1l-8 2z" />
    <glyph glyph-name="uacute" unicode="&#xfa;" horiz-adv-x="663" 
d="M326 0q-284 0 -284 328v314q0 25 8.5 44t22.5 32t32.5 19.5t39.5 6.5q42 0 72.5 -25.5t30.5 -76.5v-345q0 -93 83 -93q84 0 84 93v345q0 49 30 75.5t72 26.5t73 -25.5t31 -76.5v-314q0 -328 -286 -328h-9zM244 774l-8 -2t-7 -1q-23 0 -36 16.5t-13 36.5q0 14 8.5 27.5
t30.5 19.5l202 54q5 1 8.5 1.5t6.5 0.5q23 0 35.5 -16t12.5 -36q0 -14 -8.5 -28.5t-29.5 -19.5z" />
    <glyph glyph-name="ucircumflex" unicode="&#xfb;" horiz-adv-x="663" 
d="M326 0q-284 0 -284 328v314q0 25 8.5 44t22.5 32t32.5 19.5t39.5 6.5q42 0 72.5 -25.5t30.5 -76.5v-345q0 -93 83 -93q84 0 84 93v345q0 49 30 75.5t72 26.5t73 -25.5t31 -76.5v-314q0 -328 -286 -328h-9zM333 819l-45 -45q-16 -16 -36 -16t-35 14.5t-15 34.5q0 22 16 37
l67 62q28 25 49 25t50 -24l66 -70q5 -5 9.5 -12t4.5 -16q0 -20 -15 -35t-35 -15t-36 16z" />
    <glyph glyph-name="udieresis" unicode="&#xfc;" horiz-adv-x="663" 
d="M326 0q-284 0 -284 328v314q0 25 8.5 44t22.5 32t32.5 19.5t39.5 6.5q42 0 72.5 -25.5t30.5 -76.5v-345q0 -93 83 -93q84 0 84 93v345q0 49 30 75.5t72 26.5t73 -25.5t31 -76.5v-314q0 -328 -286 -328h-9zM432 760q-25 0 -42.5 17t-17.5 43t17.5 43t42.5 17q26 0 43 -17
t17 -43t-17 -43t-43 -17zM233 760q-26 0 -43 17t-17 43t17 43t43 17q25 0 42.5 -17t17.5 -43t-17.5 -43t-42.5 -17z" />
    <glyph glyph-name="yacute" unicode="&#xfd;" horiz-adv-x="608" 
d="M202 323l-166 265q-9 14 -12.5 28.5t-3.5 26.5q0 19 9 37.5t24 33t34.5 23t40.5 8.5q25 0 47 -13t38 -40l91 -156l91 156q31 53 85 53q21 0 40.5 -8.5t34.5 -23t24 -33t9 -37.5q0 -12 -4 -26.5t-12 -28.5l-165 -265v-221q0 -51 -30 -76.5t-72 -25.5t-72.5 25.5
t-30.5 76.5v221zM217 774l-8 -2t-7 -1q-23 0 -36 16.5t-13 36.5q0 14 8.5 27.5t30.5 19.5l202 54q5 1 8.5 1.5t6.5 0.5q23 0 35.5 -16t12.5 -36q0 -14 -8.5 -28.5t-29.5 -19.5z" />
    <glyph glyph-name="thorn" unicode="&#xfe;" horiz-adv-x="658" 
d="M252 106q0 -106 -104 -106q-54 0 -77.5 26t-23.5 80v106q0 63 28 94.5t88 31.5h259q42 0 42 31t-42 31h-276q-46 0 -73.5 27.5t-27.5 70.5v144q0 51 30.5 76.5t72.5 25.5t72 -26.5t30 -75.5v-35h161q232 0 232 -238q0 -119 -57.5 -170.5t-173.5 -51.5h-160v-41z" />
    <glyph glyph-name="ydieresis" unicode="&#xff;" horiz-adv-x="608" 
d="M202 323l-166 265q-9 14 -12.5 28.5t-3.5 26.5q0 19 9 37.5t24 33t34.5 23t40.5 8.5q25 0 47 -13t38 -40l91 -156l91 156q31 53 85 53q21 0 40.5 -8.5t34.5 -23t24 -33t9 -37.5q0 -12 -4 -26.5t-12 -28.5l-165 -265v-221q0 -51 -30 -76.5t-72 -25.5t-72.5 25.5
t-30.5 76.5v221zM405 760q-25 0 -42.5 17t-17.5 43t17.5 43t42.5 17q26 0 43 -17t17 -43t-17 -43t-43 -17zM206 760q-26 0 -43 17t-17 43t17 43t43 17q25 0 42.5 -17t17.5 -43t-17.5 -43t-42.5 -17z" />
    <glyph glyph-name="Amacron" unicode="&#x100;" 
d="M507 101h-262l-16 -36q-13 -35 -36.5 -51t-52.5 -16q-22 0 -42 7t-35.5 20t-24.5 31t-9 40q0 21 7 41l112 249q14 35 38 51.5t53 16.5q21 0 41 -7.5t35 -21t24.5 -31.5t9.5 -40q2 -19 -8 -40l-12 -27h101l-133 320q-8 21 -8 40q0 22 9.5 40t24.5 31t35 20.5t41 7.5
q29 0 52.5 -16t38.5 -51l225 -542q5 -11 5.5 -21.5t2.5 -19.5q0 -22 -9.5 -40t-25 -31t-35.5 -20t-41 -7q-62 0 -90 67zM217 785q-24 0 -37.5 15.5t-13.5 35.5t13.5 36t37.5 16h321q25 0 38 -16t13 -36t-13 -35.5t-38 -15.5h-321z" />
    <glyph glyph-name="amacron" unicode="&#x101;" 
d="M506 101h-262l-15 -36q-28 -67 -89 -67q-21 0 -41 7t-35.5 20t-25 31t-9.5 40q0 9 1 19.5t6 21.5l226 542q13 35 37.5 51t53.5 16q21 0 40.5 -7.5t35 -20.5t24.5 -31t9 -40q0 -10 -1.5 -20.5t-5.5 -19.5l-134 -320h101l-12 27q-9 21 -8 40q0 22 9.5 40t24.5 31.5t35 21
t41 7.5q29 0 53.5 -16.5t37.5 -51.5l112 -249q8 -26 8 -41q0 -22 -9.5 -40t-25 -31t-35.5 -20t-41 -7q-31 0 -52.5 16t-37.5 51zM217 785q-24 0 -37.5 15.5t-13.5 35.5t13.5 36t37.5 16h321q25 0 38 -16t13 -36t-13 -35.5t-38 -15.5h-321z" />
    <glyph glyph-name="Abreve" unicode="&#x102;" 
d="M507 101h-262l-16 -36q-13 -35 -36.5 -51t-52.5 -16q-22 0 -42 7t-35.5 20t-24.5 31t-9 40q0 21 7 41l112 249q14 35 38 51.5t53 16.5q21 0 41 -7.5t35 -21t24.5 -31.5t9.5 -40q2 -19 -8 -40l-12 -27h101l-133 320q-8 21 -8 40q0 22 9.5 40t24.5 31t35 20.5t41 7.5
q29 0 52.5 -16t38.5 -51l225 -542q5 -11 5.5 -21.5t2.5 -19.5q0 -22 -9.5 -40t-25 -31t-35.5 -20t-41 -7q-62 0 -90 67zM510 892q0 -21 -10.5 -38t-28.5 -28.5t-41.5 -17.5t-50.5 -6t-50.5 6.5t-41.5 18t-28.5 28t-10.5 36.5q0 23 15 37t35 14q12 0 20 -7t16.5 -15.5
t19 -15.5t25.5 -7t24.5 7t17.5 15.5t16.5 15.5t22.5 7q20 0 35 -15t15 -35z" />
    <glyph glyph-name="abreve" unicode="&#x103;" 
d="M506 101h-262l-15 -36q-28 -67 -89 -67q-21 0 -41 7t-35.5 20t-25 31t-9.5 40q0 9 1 19.5t6 21.5l226 542q13 35 37.5 51t53.5 16q21 0 40.5 -7.5t35 -20.5t24.5 -31t9 -40q0 -10 -1.5 -20.5t-5.5 -19.5l-134 -320h101l-12 27q-9 21 -8 40q0 22 9.5 40t24.5 31.5t35 21
t41 7.5q29 0 53.5 -16.5t37.5 -51.5l112 -249q8 -26 8 -41q0 -22 -9.5 -40t-25 -31t-35.5 -20t-41 -7q-31 0 -52.5 16t-37.5 51zM510 892q0 -21 -10.5 -38t-28.5 -28.5t-41.5 -17.5t-50.5 -6t-50.5 6.5t-41.5 18t-28.5 28t-10.5 36.5q0 23 15 37t35 14q12 0 20 -7
t16.5 -15.5t19 -15.5t25.5 -7t24.5 7t17.5 15.5t16.5 15.5t22.5 7q20 0 35 -15t15 -35z" />
    <glyph glyph-name="Aogonek" unicode="&#x104;" 
d="M723 -167q0 -19 -12.5 -34.5t-38.5 -15.5t-50 8.5t-42.5 24t-30 38t-11.5 50.5q0 17 4 30t10 24.5t12.5 22t12.5 21.5q-18 8 -31 22.5t-24 40.5l-15 36h-262l-16 -36q-13 -35 -36.5 -51t-52.5 -16q-22 0 -42 7t-35.5 20t-24.5 31t-9 40q0 21 7 41l112 249q14 35 38 51.5
t53 16.5q21 0 41 -7.5t35 -21t24.5 -31.5t9.5 -40q2 -19 -8 -40l-12 -27h101l-133 320q-8 21 -8 40q0 22 9.5 40t24.5 31t35 20.5t41 7.5q29 0 52.5 -16t38.5 -51l225 -542q5 -11 6.5 -21.5t1.5 -19.5q0 -33 -12.5 -53.5t-27.5 -37.5t-27.5 -35t-12.5 -47q0 -24 12.5 -32
t27.5 -13t27.5 -13t12.5 -32z" />
    <glyph glyph-name="aogonek" unicode="&#x105;" 
d="M723 -167q0 -19 -12.5 -34.5t-38.5 -15.5t-50 8.5t-42.5 24t-30 38t-11.5 50.5q0 17 4 30t9.5 24.5t12.5 22.5t13 23q-18 6 -32.5 21t-22.5 40l-16 36h-262l-15 -36q-28 -67 -89 -67q-21 0 -41 7t-35.5 20t-25 31t-9.5 40q0 9 1 19.5t6 21.5l226 542q13 35 37.5 51
t53.5 16q21 0 40.5 -7.5t35 -20.5t24.5 -31t9 -40q0 -10 -1.5 -20.5t-5.5 -19.5l-134 -320h101l-12 27q-9 21 -8 40q0 22 9.5 40t24.5 31.5t35 21t41 7.5q29 0 53.5 -16.5t37.5 -51.5l112 -249q8 -26 8 -41q0 -24 -12.5 -43t-27.5 -38.5t-27.5 -41t-12.5 -50.5
q0 -24 12.5 -32t27.5 -13t27.5 -13t12.5 -32z" />
    <glyph glyph-name="Cacute" unicode="&#x106;" horiz-adv-x="622" 
d="M410 0q-78 0 -147.5 28.5t-122 79t-83 119t-30.5 148.5q0 76 28 143.5t80 118t125.5 79.5t165.5 29h59q24 0 43 -8.5t32.5 -23.5t20.5 -34t7 -40t-7 -39.5t-20.5 -32.5t-32.5 -22.5t-43 -8.5h-75q-34 0 -65 -11t-55 -31.5t-38.5 -51t-14.5 -69.5q0 -36 13.5 -66.5
t36.5 -52.5t54.5 -34.5t67.5 -12.5h76q24 0 43 -8.5t32.5 -23.5t20.5 -34t7 -40q0 -42 -27.5 -71.5t-75.5 -29.5h-75zM224 774l-8 -2t-7 -1q-23 0 -36 16.5t-13 36.5q0 14 8.5 27.5t30.5 19.5l202 54q5 1 8.5 1.5t6.5 0.5q23 0 35.5 -16t12.5 -36q0 -14 -8.5 -28.5
t-29.5 -19.5z" />
    <glyph glyph-name="cacute" unicode="&#x107;" horiz-adv-x="622" 
d="M410 0q-78 0 -147.5 28.5t-122 79t-83 119t-30.5 148.5q0 76 28 143.5t80 118t125.5 79.5t165.5 29h59q24 0 43 -8.5t32.5 -23.5t20.5 -34t7 -40t-7 -39.5t-20.5 -32.5t-32.5 -22.5t-43 -8.5h-75q-34 0 -65 -11t-55 -31.5t-38.5 -51t-14.5 -69.5q0 -36 13.5 -66.5
t36.5 -52.5t54.5 -34.5t67.5 -12.5h76q24 0 43 -8.5t32.5 -23.5t20.5 -34t7 -40q0 -42 -27.5 -71.5t-75.5 -29.5h-75zM224 774l-8 -2t-7 -1q-23 0 -36 16.5t-13 36.5q0 14 8.5 27.5t30.5 19.5l202 54q5 1 8.5 1.5t6.5 0.5q23 0 35.5 -16t12.5 -36q0 -14 -8.5 -28.5
t-29.5 -19.5z" />
    <glyph glyph-name="Ccaron" unicode="&#x10c;" horiz-adv-x="622" 
d="M410 0q-78 0 -147.5 28.5t-122 79t-83 119t-30.5 148.5q0 76 28 143.5t80 118t125.5 79.5t165.5 29h59q24 0 43 -8.5t32.5 -23.5t20.5 -34t7 -40t-7 -39.5t-20.5 -32.5t-32.5 -22.5t-43 -8.5h-75q-34 0 -65 -11t-55 -31.5t-38.5 -51t-14.5 -69.5q0 -36 13.5 -66.5
t36.5 -52.5t54.5 -34.5t67.5 -12.5h76q24 0 43 -8.5t32.5 -23.5t20.5 -34t7 -40q0 -42 -27.5 -71.5t-75.5 -29.5h-75zM425 779q-16 -25 -35 -25q-11 0 -22 7.5t-25 22.5l-72 78q-14 9 -14 29t15 35t35 15t36 -16l45 -44l45 45q16 16 36 16t35 -15t15 -35q0 -11 -4 -19
t-13 -17z" />
    <glyph glyph-name="ccaron" unicode="&#x10d;" horiz-adv-x="622" 
d="M410 0q-78 0 -147.5 28.5t-122 79t-83 119t-30.5 148.5q0 76 28 143.5t80 118t125.5 79.5t165.5 29h59q24 0 43 -8.5t32.5 -23.5t20.5 -34t7 -40t-7 -39.5t-20.5 -32.5t-32.5 -22.5t-43 -8.5h-75q-34 0 -65 -11t-55 -31.5t-38.5 -51t-14.5 -69.5q0 -36 13.5 -66.5
t36.5 -52.5t54.5 -34.5t67.5 -12.5h76q24 0 43 -8.5t32.5 -23.5t20.5 -34t7 -40q0 -42 -27.5 -71.5t-75.5 -29.5h-75zM421 779q-16 -25 -35 -25q-11 0 -22 7.5t-25 22.5l-72 78q-14 9 -14 29t15 35t35 15t36 -16l45 -44l45 45q16 16 36 16t35 -15t15 -35q0 -11 -4 -19
t-13 -17z" />
    <glyph glyph-name="Dcaron" unicode="&#x10e;" horiz-adv-x="743" 
d="M331 207q36 0 67.5 12.5t54.5 34.5t36.5 52.5t13.5 66.5q0 34 -13 64t-36 52t-55 34.5t-69 12.5h-80v-329h81zM152 0q-51 0 -79 27.5t-28 75.5v539q0 19 9.5 37.5t24.5 33t34 23.5t39 9h162q91 0 165 -29t126 -79.5t80 -118t28 -143.5q0 -80 -28.5 -147t-79.5 -116.5
t-121.5 -78.5t-153.5 -33h-178zM410 779q-16 -25 -35 -25q-11 0 -22 7.5t-25 22.5l-72 78q-14 9 -14 29t15 35t35 15t36 -16l45 -44l45 45q16 16 36 16t35 -15t15 -35q0 -11 -4 -19t-13 -17z" />
    <glyph glyph-name="dcaron" unicode="&#x10f;" horiz-adv-x="743" 
d="M331 207q36 0 67.5 12.5t54.5 34.5t36.5 52.5t13.5 66.5q0 34 -13 64t-36 52t-55 34.5t-69 12.5h-80v-329h81zM152 0q-51 0 -79 27.5t-28 75.5v539q0 19 9.5 37.5t24.5 33t34 23.5t39 9h162q91 0 165 -29t126 -79.5t80 -118t28 -143.5q0 -80 -28.5 -147t-79.5 -116.5
t-121.5 -78.5t-153.5 -33h-178zM410 779q-16 -25 -35 -25q-11 0 -22 7.5t-25 22.5l-72 78q-14 9 -14 29t15 35t35 15t36 -16l45 -44l45 45q16 16 36 16t35 -15t15 -35q0 -11 -4 -19t-13 -17z" />
    <glyph glyph-name="Dmacron" unicode="&#x110;" horiz-adv-x="784" 
d="M193 0q-51 0 -79 27.5t-28 75.5v164q-38 2 -62 32t-24 71q0 21 6.5 39.5t18 33t27 23.5t34.5 10v166q0 19 9.5 37.5t24.5 33t34 23.5t39 9h162q91 0 165 -29t126 -79.5t80 -118t28 -143.5q0 -80 -30.5 -148.5t-83 -119t-122 -79t-147.5 -28.5h-178zM292 267v-60h81
q36 0 67 12.5t54.5 34.5t37 52.5t13.5 66.5q0 34 -13 64t-36 52t-55 34.5t-70 12.5h-79v-60h74q24 0 43.5 -8.5t33 -23.5t20.5 -34t7 -40t-7 -39.5t-20.5 -32.5t-33 -22.5t-43.5 -8.5h-74z" />
    <glyph glyph-name="Emacron" unicode="&#x112;" horiz-adv-x="708" 
d="M148 0q-102 0 -102 103v539q0 103 102 103h409q49 0 76 -30.5t27 -72.5t-27 -73t-76 -31h-307v-70h317q42 0 66.5 -23.5t24.5 -71.5t-24.5 -73t-66.5 -25h-317v-68h309q49 0 76.5 -31t27.5 -73t-27.5 -72.5t-76.5 -30.5h-411zM193 785q-24 0 -37.5 15.5t-13.5 35.5
t13.5 36t37.5 16h321q25 0 38 -16t13 -36t-13 -35.5t-38 -15.5h-321z" />
    <glyph glyph-name="emacron" unicode="&#x113;" horiz-adv-x="773" 
d="M229 0q-48 0 -82.5 14t-57 39.5t-33.5 61t-11 77.5q0 75 37.5 122.5t106.5 58.5q-69 10 -104.5 57t-35.5 122q0 42 11 77.5t33.5 61t57.5 40t84 14.5h389q94 0 94 -103q0 -104 -95 -104h-319q-41 0 -41 -31t41 -31h310q97 0 97 -103q0 -104 -98 -104h-309q-41 0 -41 -31
t41 -31h314q100 0 100 -104q0 -103 -99 -103h-390zM226 785q-24 0 -37.5 15.5t-13.5 35.5t13.5 36t37.5 16h321q25 0 38 -16t13 -36t-13 -35.5t-38 -15.5h-321z" />
    <glyph glyph-name="Edotaccent" unicode="&#x116;" horiz-adv-x="708" 
d="M148 0q-102 0 -102 103v539q0 103 102 103h409q49 0 76 -30.5t27 -72.5t-27 -73t-76 -31h-307v-70h317q42 0 66.5 -23.5t24.5 -71.5t-24.5 -73t-66.5 -25h-317v-68h309q49 0 76.5 -31t27.5 -73t-27.5 -72.5t-76.5 -30.5h-411zM355 760q-25 0 -42.5 17t-17.5 43t17.5 43
t42.5 17q26 0 43 -17t17 -43t-17 -43t-43 -17z" />
    <glyph glyph-name="edotaccent" unicode="&#x117;" horiz-adv-x="773" 
d="M229 0q-48 0 -82.5 14t-57 39.5t-33.5 61t-11 77.5q0 75 37.5 122.5t106.5 58.5q-69 10 -104.5 57t-35.5 122q0 42 11 77.5t33.5 61t57.5 40t84 14.5h389q94 0 94 -103q0 -104 -95 -104h-319q-41 0 -41 -31t41 -31h310q97 0 97 -103q0 -104 -98 -104h-309q-41 0 -41 -31
t41 -31h314q100 0 100 -104q0 -103 -99 -103h-390zM386 760q-25 0 -42.5 17t-17.5 43t17.5 43t42.5 17q26 0 43 -17t17 -43t-17 -43t-43 -17z" />
    <glyph glyph-name="Eogonek" unicode="&#x118;" horiz-adv-x="708" 
d="M462 -167q0 -19 -12.5 -34.5t-38.5 -15.5q-25 0 -49 8.5t-42.5 24t-30 38t-11.5 50.5q0 34 12.5 54t24.5 42h-167q-102 0 -102 103v539q0 103 102 103h409q49 0 76 -30.5t27 -72.5t-27 -73t-76 -31h-307v-70h317q42 0 66.5 -23.5t24.5 -71.5t-24.5 -73t-66.5 -25h-317
v-68h309q49 0 76.5 -31t27.5 -73t-27.5 -72.5t-76.5 -30.5h-140q-11 -18 -23.5 -35.5t-12.5 -41.5t12.5 -32t27 -13t27 -13t12.5 -32z" />
    <glyph glyph-name="eogonek" unicode="&#x119;" horiz-adv-x="773" 
d="M497 -167q0 -19 -12.5 -34.5t-38.5 -15.5q-25 0 -49 8.5t-42.5 24t-30 38t-11.5 50.5q0 34 12.5 54t24.5 42h-121q-48 0 -82.5 14t-57 39.5t-33.5 61t-11 77.5q0 75 37.5 122.5t106.5 58.5q-69 10 -104.5 57t-35.5 122q0 42 11 77.5t33.5 61t57.5 40t84 14.5h389
q94 0 94 -103q0 -104 -95 -104h-319q-41 0 -41 -31t41 -31h310q97 0 97 -103q0 -104 -98 -104h-309q-41 0 -41 -31t41 -31h314q100 0 100 -104q0 -103 -99 -103h-165q-11 -18 -24 -35.5t-13 -41.5t12.5 -32t27.5 -13t27.5 -13t12.5 -32z" />
    <glyph glyph-name="Ecaron" unicode="&#x11a;" horiz-adv-x="708" 
d="M148 0q-102 0 -102 103v539q0 103 102 103h409q49 0 76 -30.5t27 -72.5t-27 -73t-76 -31h-307v-70h317q42 0 66.5 -23.5t24.5 -71.5t-24.5 -73t-66.5 -25h-317v-68h309q49 0 76.5 -31t27.5 -73t-27.5 -72.5t-76.5 -30.5h-411zM392 779q-16 -25 -35 -25q-11 0 -22 7.5
t-25 22.5l-72 78q-14 9 -14 29t15 35t35 15t36 -16l45 -44l45 45q16 16 36 16t35 -15t15 -35q0 -11 -4 -19t-13 -17z" />
    <glyph glyph-name="ecaron" unicode="&#x11b;" horiz-adv-x="773" 
d="M229 0q-48 0 -82.5 14t-57 39.5t-33.5 61t-11 77.5q0 75 37.5 122.5t106.5 58.5q-69 10 -104.5 57t-35.5 122q0 42 11 77.5t33.5 61t57.5 40t84 14.5h389q94 0 94 -103q0 -104 -95 -104h-319q-41 0 -41 -31t41 -31h310q97 0 97 -103q0 -104 -98 -104h-309q-41 0 -41 -31
t41 -31h314q100 0 100 -104q0 -103 -99 -103h-390zM423 779q-16 -25 -35 -25q-11 0 -22 7.5t-25 22.5l-72 78q-14 9 -14 29t15 35t35 15t36 -16l45 -44l45 45q16 16 36 16t35 -15t15 -35q0 -11 -4 -19t-13 -17z" />
    <glyph glyph-name="Gbreve" unicode="&#x11e;" horiz-adv-x="824" 
d="M415 0q-84 4 -154.5 33.5t-121 79t-79 116t-28.5 146.5q0 76 28 143.5t80 118t125.5 79.5t165.5 29h171q24 0 43.5 -8.5t32.5 -23.5t20 -34t7 -40t-7 -39.5t-20 -32.5t-32.5 -22.5t-43.5 -8.5h-210q-33 0 -61 -13t-47.5 -35.5t-30.5 -52t-11 -62.5q0 -36 13.5 -66.5
t36.5 -52.5t54.5 -34.5t67.5 -12.5h46l75 189h181q94 0 94 -94q0 -95 -94 -95h-63l-71 -207h-167zM604 892q0 -21 -10.5 -38t-28.5 -28.5t-41.5 -17.5t-50.5 -6t-50.5 6.5t-41.5 18t-28.5 28t-10.5 36.5q0 23 15 37t35 14q12 0 20 -7t16.5 -15.5t19 -15.5t25.5 -7t24.5 7
t17.5 15.5t16.5 15.5t22.5 7q20 0 35 -15t15 -35z" />
    <glyph glyph-name="gbreve" unicode="&#x11f;" horiz-adv-x="824" 
d="M415 0q-84 4 -154.5 33.5t-121 79t-79 116t-28.5 146.5q0 76 28 143.5t80 118t125.5 79.5t165.5 29h171q24 0 43.5 -8.5t32.5 -23.5t20 -34t7 -40t-7 -39.5t-20 -32.5t-32.5 -22.5t-43.5 -8.5h-210q-33 0 -61 -13t-47.5 -35.5t-30.5 -52t-11 -62.5q0 -36 13.5 -66.5
t36.5 -52.5t54.5 -34.5t67.5 -12.5h46l75 189h181q94 0 94 -94q0 -95 -94 -95h-63l-71 -207h-167zM605 892q0 -21 -10.5 -38t-28.5 -28.5t-41.5 -17.5t-50.5 -6t-50.5 6.5t-41.5 18t-28.5 28t-10.5 36.5q0 23 15 37t35 14q12 0 20 -7t16.5 -15.5t19 -15.5t25.5 -7t24.5 7
t17.5 15.5t16.5 15.5t22.5 7q20 0 35 -15t15 -35z" />
    <glyph glyph-name="Gcommaaccent" unicode="&#x122;" horiz-adv-x="824" 
d="M562 -90q-16 -68 -77 -68q-58 0 -58 51q0 5 0.5 9.5t2.5 11.5l25 86h-40q-84 4 -154.5 33.5t-121 79t-79 116t-28.5 146.5q0 76 28 143.5t80 118t125.5 79.5t165.5 29h171q24 0 43.5 -8.5t32.5 -23.5t20 -34t7 -40t-7 -39.5t-20 -32.5t-32.5 -22.5t-43.5 -8.5h-210
q-33 0 -61 -13t-47.5 -35.5t-30.5 -52t-11 -62.5q0 -36 13.5 -66.5t36.5 -52.5t54.5 -34.5t67.5 -12.5h46l75 189h181q94 0 94 -94q0 -95 -94 -95h-63z" />
    <glyph glyph-name="gcommaaccent" unicode="&#x123;" horiz-adv-x="824" 
d="M562 -90q-16 -68 -77 -68q-58 0 -58 51q0 5 0.5 9.5t2.5 11.5l25 86h-40q-84 4 -154.5 33.5t-121 79t-79 116t-28.5 146.5q0 76 28 143.5t80 118t125.5 79.5t165.5 29h171q24 0 43.5 -8.5t32.5 -23.5t20 -34t7 -40t-7 -39.5t-20 -32.5t-32.5 -22.5t-43.5 -8.5h-210
q-33 0 -61 -13t-47.5 -35.5t-30.5 -52t-11 -62.5q0 -36 13.5 -66.5t36.5 -52.5t54.5 -34.5t67.5 -12.5h46l75 189h181q94 0 94 -94q0 -95 -94 -95h-63z" />
    <glyph glyph-name="imacron" unicode="&#x12b;" horiz-adv-x="298" 
d="M45 642q0 51 30.5 76.5t72.5 25.5t72 -26.5t30 -75.5v-539q0 -51 -30 -76.5t-72 -25.5t-72.5 25.5t-30.5 76.5v539zM-10 785q-24 0 -37.5 15.5t-13.5 35.5t13.5 36t37.5 16h321q25 0 38 -16t13 -36t-13 -35.5t-38 -15.5h-321z" />
    <glyph glyph-name="Iogonek" unicode="&#x12e;" horiz-adv-x="298" 
d="M45 642q0 51 30.5 76.5t72.5 25.5t72 -26.5t30 -75.5v-539q0 -51 -30 -76.5t-72 -25.5t-72.5 25.5t-30.5 76.5v539zM252 -167q0 -19 -12.5 -34.5t-38.5 -15.5t-50 8.5t-42.5 24t-30 38t-11.5 50.5q0 25 8 42t17.5 32.5t17.5 33.5t8 45q0 26 15.5 38t34.5 12q9 0 18.5 -2
t17.5 -9t13 -20.5t5 -36.5q0 -16 -8 -29.5t-17 -26.5t-17 -27.5t-8 -32.5q0 -24 12.5 -32t27.5 -13t27.5 -13t12.5 -32z" />
    <glyph glyph-name="iogonek" unicode="&#x12f;" horiz-adv-x="298" 
d="M45 642q0 51 30.5 76.5t72.5 25.5t72 -26.5t30 -75.5v-539q0 -51 -30 -76.5t-72 -25.5t-72.5 25.5t-30.5 76.5v539zM243 -167q0 -19 -12.5 -34.5t-38.5 -15.5t-50 8.5t-42.5 24t-30 38t-11.5 50.5q0 25 8 42t17.5 32.5t17.5 33.5t8 45q0 26 15.5 38t34.5 12q9 0 18.5 -2
t17.5 -9t13 -20.5t5 -36.5q0 -16 -8 -29.5t-17 -26.5t-17 -27.5t-8 -32.5q0 -24 12.5 -32t27.5 -13t27.5 -13t12.5 -32z" />
    <glyph glyph-name="dotlessi" unicode="&#x131;" horiz-adv-x="298" 
d="M45 642q0 51 30.5 76.5t72.5 25.5t72 -26.5t30 -75.5v-539q0 -51 -30 -76.5t-72 -25.5t-72.5 25.5t-30.5 76.5v539z" />
    <glyph glyph-name="kcommaaccent" unicode="&#x137;" horiz-adv-x="648" 
d="M250 269v-166q0 -51 -30 -76.5t-72 -25.5t-72.5 25.5t-30.5 76.5v539q0 51 30.5 76.5t72.5 25.5t72 -26.5t30 -75.5v-166l167 233q18 19 36.5 29t43.5 10q21 0 40.5 -8.5t34 -23t23.5 -33t9 -39.5q0 -37 -23 -63l-177 -205l177 -208q23 -28 25 -65q0 -20 -9.5 -39
t-24.5 -33t-34.5 -22.5t-39.5 -8.5q-23 0 -43.5 10t-35.5 30zM363 -148q-15 -69 -77 -69q-32 0 -44.5 15.5t-12.5 43.5q0 8 2 13l32 146q16 73 77 73q29 0 43.5 -15t14.5 -38q0 -13 -3 -23z" />
    <glyph glyph-name="Lacute" unicode="&#x139;" horiz-adv-x="471" 
d="M148 0q-102 0 -102 103v539q0 49 30 75.5t72 26.5t72 -26.5t30 -75.5v-435h110q48 0 72.5 -31t24.5 -73t-24.5 -72.5t-72.5 -30.5h-212zM88 774l-8 -2t-7 -1q-23 0 -36 16.5t-13 36.5q0 14 8.5 27.5t30.5 19.5l202 54q5 1 8.5 1.5t6.5 0.5q23 0 35.5 -16t12.5 -36
q0 -14 -8.5 -28.5t-29.5 -19.5z" />
    <glyph glyph-name="lacute" unicode="&#x13a;" horiz-adv-x="471" 
d="M148 0q-102 0 -102 103v539q0 49 30 75.5t72 26.5t72 -26.5t30 -75.5v-435h110q48 0 72.5 -31t24.5 -73t-24.5 -72.5t-72.5 -30.5h-212zM105 774l-8 -2t-7 -1q-23 0 -36 16.5t-13 36.5q0 14 8.5 27.5t30.5 19.5l202 54q5 1 8.5 1.5t6.5 0.5q23 0 35.5 -16t12.5 -36
q0 -14 -8.5 -28.5t-29.5 -19.5z" />
    <glyph glyph-name="Lcommaaccent" unicode="&#x13b;" horiz-adv-x="471" 
d="M265 -148q-8 -35 -28 -52t-49 -17q-32 0 -44.5 15.5t-12.5 43.5q0 8 2 13l31 145h-16q-102 0 -102 103v539q0 49 30 75.5t72 26.5t72 -26.5t30 -75.5v-435h110q48 0 72.5 -31t24.5 -73t-24.5 -72.5t-72.5 -30.5h-63v-2z" />
    <glyph glyph-name="lcommaaccent" unicode="&#x13c;" horiz-adv-x="471" 
d="M265 -148q-8 -35 -28 -52t-49 -17q-32 0 -44.5 15.5t-12.5 43.5q0 8 2 13l31 145h-16q-102 0 -102 103v539q0 49 30 75.5t72 26.5t72 -26.5t30 -75.5v-435h110q48 0 72.5 -31t24.5 -73t-24.5 -72.5t-72.5 -30.5h-63v-2z" />
    <glyph glyph-name="Lcaron" unicode="&#x13d;" horiz-adv-x="471" 
d="M148 0q-102 0 -102 103v539q0 49 30 75.5t72 26.5t72 -26.5t30 -75.5v-435h110q48 0 72.5 -31t24.5 -73t-24.5 -72.5t-72.5 -30.5h-212zM408 573q-16 -70 -76 -70q-26 0 -42 13.5t-16 39.5q0 4 0.5 8.5t1.5 9.5l31 149q17 72 79 72q31 0 44.5 -14t13.5 -36q0 -5 -0.5 -11
t-1.5 -11z" />
    <glyph glyph-name="lcaron" unicode="&#x13e;" horiz-adv-x="488" 
d="M148 0q-102 0 -102 103v539q0 49 30 75.5t72 26.5t72 -26.5t30 -75.5v-435h110q48 0 72.5 -31t24.5 -73t-24.5 -72.5t-72.5 -30.5h-212zM421 573q-16 -70 -76 -70q-26 0 -42 13.5t-16 39.5q0 4 0.5 8.5t1.5 9.5l31 149q17 72 79 72q31 0 44.5 -14t13.5 -36q0 -5 -0.5 -11
t-1.5 -11z" />
    <glyph glyph-name="Lslash" unicode="&#x141;" horiz-adv-x="471" 
d="M148 0q-102 0 -102 103v539q0 49 30 75.5t72 26.5t72 -26.5t30 -75.5v-165l53 30q8 5 15.5 7.5t16.5 2.5q27 0 51 -20t24 -53q0 -22 -8.5 -35t-27.5 -24l-124 -72v-106h110q48 0 72.5 -31t24.5 -73t-24.5 -72.5t-72.5 -30.5h-212z" />
    <glyph glyph-name="lslash" unicode="&#x142;" horiz-adv-x="471" 
d="M148 0q-102 0 -102 103v539q0 49 30 75.5t72 26.5t72 -26.5t30 -75.5v-165l53 30q8 5 15.5 7.5t16.5 2.5q27 0 51 -20t24 -53q0 -22 -8.5 -35t-27.5 -24l-124 -72v-106h110q48 0 72.5 -31t24.5 -73t-24.5 -72.5t-72.5 -30.5h-212z" />
    <glyph glyph-name="Nacute" unicode="&#x143;" horiz-adv-x="669" 
d="M429 45l-179 270v-212q0 -51 -30.5 -76.5t-72.5 -25.5t-72 25.5t-30 76.5v539q0 49 30 75.5t72 26.5q30 0 50.5 -10.5t33.5 -35.5l186 -283v227q0 25 8.5 44t22.5 32t32.5 19.5t39.5 6.5q42 0 72.5 -25.5t30.5 -76.5v-539q0 -51 -30.5 -76.5t-72.5 -25.5q-21 0 -36 5
t-25.5 12.5t-17 15t-10.5 12.5zM248 774l-8 -2t-7 -1q-23 0 -36 16.5t-13 36.5q0 14 8.5 27.5t30.5 19.5l202 54q5 1 8.5 1.5t6.5 0.5q23 0 35.5 -16t12.5 -36q0 -14 -8.5 -28.5t-29.5 -19.5z" />
    <glyph glyph-name="nacute" unicode="&#x144;" horiz-adv-x="669" 
d="M429 45l-179 270v-212q0 -51 -30.5 -76.5t-72.5 -25.5t-72 25.5t-30 76.5v539q0 49 30 75.5t72 26.5q30 0 50.5 -10.5t33.5 -35.5l186 -283v227q0 25 8.5 44t22.5 32t32.5 19.5t39.5 6.5q42 0 72.5 -25.5t30.5 -76.5v-539q0 -51 -30.5 -76.5t-72.5 -25.5q-21 0 -36 5
t-25.5 12.5t-17 15t-10.5 12.5zM248 774l-8 -2t-7 -1q-23 0 -36 16.5t-13 36.5q0 14 8.5 27.5t30.5 19.5l202 54q5 1 8.5 1.5t6.5 0.5q23 0 35.5 -16t12.5 -36q0 -14 -8.5 -28.5t-29.5 -19.5z" />
    <glyph glyph-name="Ncommaaccent" unicode="&#x145;" horiz-adv-x="669" 
d="M429 45l-179 270v-212q0 -51 -30.5 -76.5t-72.5 -25.5t-72 25.5t-30 76.5v539q0 49 30 75.5t72 26.5q30 0 50.5 -10.5t33.5 -35.5l186 -283v227q0 25 8.5 44t22.5 32t32.5 19.5t39.5 6.5q42 0 72.5 -25.5t30.5 -76.5v-539q0 -51 -30.5 -76.5t-72.5 -25.5q-21 0 -36 5
t-25.5 12.5t-17 15t-10.5 12.5zM373 -148q-15 -69 -77 -69q-32 0 -44.5 15.5t-12.5 43.5q0 8 2 13l32 146q16 73 77 73q29 0 43.5 -15t14.5 -38q0 -13 -3 -23z" />
    <glyph glyph-name="ncommaaccent" unicode="&#x146;" horiz-adv-x="669" 
d="M429 45l-179 270v-212q0 -51 -30.5 -76.5t-72.5 -25.5t-72 25.5t-30 76.5v539q0 49 30 75.5t72 26.5q30 0 50.5 -10.5t33.5 -35.5l186 -283v227q0 25 8.5 44t22.5 32t32.5 19.5t39.5 6.5q42 0 72.5 -25.5t30.5 -76.5v-539q0 -51 -30.5 -76.5t-72.5 -25.5q-21 0 -36 5
t-25.5 12.5t-17 15t-10.5 12.5zM373 -148q-15 -69 -77 -69q-32 0 -44.5 15.5t-12.5 43.5q0 8 2 13l32 146q16 73 77 73q29 0 43.5 -15t14.5 -38q0 -13 -3 -23z" />
    <glyph glyph-name="Ncaron" unicode="&#x147;" horiz-adv-x="669" 
d="M429 45l-179 270v-212q0 -51 -30.5 -76.5t-72.5 -25.5t-72 25.5t-30 76.5v539q0 49 30 75.5t72 26.5q30 0 50.5 -10.5t33.5 -35.5l186 -283v227q0 25 8.5 44t22.5 32t32.5 19.5t39.5 6.5q42 0 72.5 -25.5t30.5 -76.5v-539q0 -51 -30.5 -76.5t-72.5 -25.5q-21 0 -36 5
t-25.5 12.5t-17 15t-10.5 12.5zM373 779q-16 -25 -35 -25q-11 0 -22 7.5t-25 22.5l-72 78q-14 9 -14 29t15 35t35 15t36 -16l45 -44l45 45q16 16 36 16t35 -15t15 -35q0 -11 -4 -19t-13 -17z" />
    <glyph glyph-name="ncaron" unicode="&#x148;" horiz-adv-x="669" 
d="M429 45l-179 270v-212q0 -51 -30.5 -76.5t-72.5 -25.5t-72 25.5t-30 76.5v539q0 49 30 75.5t72 26.5q30 0 50.5 -10.5t33.5 -35.5l186 -283v227q0 25 8.5 44t22.5 32t32.5 19.5t39.5 6.5q42 0 72.5 -25.5t30.5 -76.5v-539q0 -51 -30.5 -76.5t-72.5 -25.5q-21 0 -36 5
t-25.5 12.5t-17 15t-10.5 12.5zM373 779q-16 -25 -35 -25q-11 0 -22 7.5t-25 22.5l-72 78q-14 9 -14 29t15 35t35 15t36 -16l45 -44l45 45q16 16 36 16t35 -15t15 -35q0 -11 -4 -19t-13 -17z" />
    <glyph glyph-name="Ohungarumlaut" unicode="&#x150;" horiz-adv-x="826" 
d="M587 373q0 36 -13.5 67.5t-37 55t-55 37t-67.5 13.5t-67.5 -13.5t-54.5 -37t-36.5 -55t-13.5 -67.5t13.5 -67.5t36.5 -54.5t54.5 -36.5t67.5 -13.5t67.5 13.5t55 36.5t37 54.5t13.5 67.5zM794 375q0 -80 -30 -149t-82 -120.5t-121.5 -81t-148.5 -29.5t-148 29.5
t-120.5 81t-81.5 120.5t-30 149q0 79 30 148.5t81.5 121t120.5 81.5t148 30t148.5 -30t121.5 -81.5t82 -121t30 -148.5zM439 820q14 46 24.5 70.5t20.5 36t19.5 13.5t21.5 2q26 0 43 -17t17 -43q-14 -45 -24.5 -69.5t-19.5 -36t-18 -14t-20 -2.5q-27 0 -45.5 16.5
t-18.5 43.5zM240 820q13 46 23.5 70.5t20.5 36t20 13.5t22 2q26 0 43 -17t17 -43q-14 -46 -24.5 -70.5t-20 -36t-19.5 -13.5t-22 -2q-26 0 -43 17t-17 43z" />
    <glyph glyph-name="ohungarumlaut" unicode="&#x151;" horiz-adv-x="826" 
d="M587 373q0 36 -13.5 67.5t-37 55t-55 37t-67.5 13.5t-67.5 -13.5t-54.5 -37t-36.5 -55t-13.5 -67.5t13.5 -67.5t36.5 -54.5t54.5 -36.5t67.5 -13.5t67.5 13.5t55 36.5t37 54.5t13.5 67.5zM794 375q0 -80 -30 -149t-82 -120.5t-121.5 -81t-148.5 -29.5t-148 29.5
t-120.5 81t-81.5 120.5t-30 149q0 79 30 148.5t81.5 121t120.5 81.5t148 30t148.5 -30t121.5 -81.5t82 -121t30 -148.5zM439 820q14 46 24.5 70.5t20.5 36t19.5 13.5t21.5 2q26 0 43 -17t17 -43q-14 -45 -24.5 -69.5t-19.5 -36t-18 -14t-20 -2.5q-27 0 -45.5 16.5
t-18.5 43.5zM240 820q13 46 23.5 70.5t20.5 36t20 13.5t22 2q26 0 43 -17t17 -43q-14 -46 -24.5 -70.5t-20 -36t-19.5 -13.5t-22 -2q-26 0 -43 17t-17 43z" />
    <glyph glyph-name="OE" unicode="&#x152;" horiz-adv-x="1226" 
d="M692 0q-69 0 -91 45q-83 -50 -189 -50q-79 0 -148 29.5t-120.5 81t-81.5 120.5t-30 149q0 79 30 148.5t81.5 121t120.5 81.5t148 30q54 0 101.5 -14t89.5 -38q24 41 89 41h411q49 0 76 -30.5t27 -72.5t-27 -73t-76 -31h-309v-62h309q49 0 76 -30.5t27 -72.5
q0 -43 -27 -73.5t-76 -30.5h-309v-62h309q49 0 76 -31t27 -73t-27 -72.5t-76 -30.5h-411zM587 373q0 36 -13.5 67.5t-37 55t-55 37t-67.5 13.5t-67.5 -13.5t-54.5 -37t-36.5 -55t-13.5 -67.5t13.5 -67.5t36.5 -54.5t54.5 -36.5t67.5 -13.5t67.5 13.5t55 36.5t37 54.5
t13.5 67.5z" />
    <glyph glyph-name="oe" unicode="&#x153;" horiz-adv-x="1226" 
d="M692 0q-69 0 -91 45q-83 -50 -189 -50q-79 0 -148 29.5t-120.5 81t-81.5 120.5t-30 149q0 79 30 148.5t81.5 121t120.5 81.5t148 30q54 0 101.5 -14t89.5 -38q24 41 89 41h411q49 0 76 -30.5t27 -72.5t-27 -73t-76 -31h-309v-62h309q49 0 76 -30.5t27 -72.5
q0 -43 -27 -73.5t-76 -30.5h-309v-62h309q49 0 76 -31t27 -73t-27 -72.5t-76 -30.5h-411zM587 373q0 36 -13.5 67.5t-37 55t-55 37t-67.5 13.5t-67.5 -13.5t-54.5 -37t-36.5 -55t-13.5 -67.5t13.5 -67.5t36.5 -54.5t54.5 -36.5t67.5 -13.5t67.5 13.5t55 36.5t37 54.5
t13.5 67.5z" />
    <glyph glyph-name="Racute" unicode="&#x154;" horiz-adv-x="645" 
d="M105 247q-81 63 -81 106q0 123 116 123h259q41 0 41 31t-41 31h-277q-48 0 -74 26t-26 78q0 51 23.5 77t75.5 26h267q231 0 231 -238q0 -232 -219 -238h-21l88 -85q21 -20 30.5 -43t9.5 -39q0 -18 -8.5 -37t-23 -34.5t-32.5 -25.5t-36 -10q-41 0 -87 37zM212 774l-8 -2
t-7 -1q-23 0 -36 16.5t-13 36.5q0 14 8.5 27.5t30.5 19.5l202 54q5 1 8.5 1.5t6.5 0.5q23 0 35.5 -16t12.5 -36q0 -14 -8.5 -28.5t-29.5 -19.5z" />
    <glyph glyph-name="racute" unicode="&#x155;" horiz-adv-x="645" 
d="M105 247q-81 63 -81 106q0 123 116 123h259q41 0 41 31t-41 31h-277q-48 0 -74 26t-26 78q0 51 23.5 77t75.5 26h267q231 0 231 -238q0 -232 -219 -238h-21l88 -85q21 -20 30.5 -43t9.5 -39q0 -18 -8.5 -37t-23 -34.5t-32.5 -25.5t-36 -10q-41 0 -87 37zM243 774l-8 -2
t-7 -1q-23 0 -36 16.5t-13 36.5q0 14 8.5 27.5t30.5 19.5l202 54q5 1 8.5 1.5t6.5 0.5q23 0 35.5 -16t12.5 -36q0 -14 -8.5 -28.5t-29.5 -19.5z" />
    <glyph glyph-name="Rcaron" unicode="&#x158;" horiz-adv-x="645" 
d="M105 247q-81 63 -81 106q0 123 116 123h259q41 0 41 31t-41 31h-277q-48 0 -74 26t-26 78q0 51 23.5 77t75.5 26h267q231 0 231 -238q0 -232 -219 -238h-21l88 -85q21 -20 30.5 -43t9.5 -39q0 -18 -8.5 -37t-23 -34.5t-32.5 -25.5t-36 -10q-41 0 -87 37zM361 779
q-16 -25 -35 -25q-11 0 -22 7.5t-25 22.5l-72 78q-14 9 -14 29t15 35t35 15t36 -16l45 -44l45 45q16 16 36 16t35 -15t15 -35q0 -11 -4 -19t-13 -17z" />
    <glyph glyph-name="rcaron" unicode="&#x159;" horiz-adv-x="645" 
d="M105 247q-81 63 -81 106q0 123 116 123h259q41 0 41 31t-41 31h-277q-48 0 -74 26t-26 78q0 51 23.5 77t75.5 26h267q231 0 231 -238q0 -232 -219 -238h-21l88 -85q21 -20 30.5 -43t9.5 -39q0 -18 -8.5 -37t-23 -34.5t-32.5 -25.5t-36 -10q-41 0 -87 37zM361 779
q-16 -25 -35 -25q-11 0 -22 7.5t-25 22.5l-72 78q-14 9 -14 29t15 35t35 15t36 -16l45 -44l45 45q16 16 36 16t35 -15t15 -35q0 -11 -4 -19t-13 -17z" />
    <glyph glyph-name="Sacute" unicode="&#x15a;" horiz-adv-x="685" 
d="M150 0q-99 0 -99 100q0 107 100 107h276q41 0 41 31t-41 31h-168q-219 6 -219 238q0 238 234 238h227q98 0 98 -100q0 -107 -99 -107h-240q-41 0 -41 -31t41 -31h169q219 -6 219 -238q0 -238 -232 -238h-266zM255 774l-8 -2t-7 -1q-23 0 -36 16.5t-13 36.5q0 14 8.5 27.5
t30.5 19.5l202 54q5 1 8.5 1.5t6.5 0.5q23 0 35.5 -16t12.5 -36q0 -14 -8.5 -28.5t-29.5 -19.5z" />
    <glyph glyph-name="sacute" unicode="&#x15b;" horiz-adv-x="685" 
d="M150 0q-99 0 -99 100q0 107 100 107h276q41 0 41 31t-41 31h-168q-219 6 -219 238q0 238 234 238h227q98 0 98 -100q0 -107 -99 -107h-240q-41 0 -41 -31t41 -31h169q219 -6 219 -238q0 -238 -232 -238h-266zM272 774l-8 -2t-7 -1q-23 0 -36 16.5t-13 36.5q0 14 8.5 27.5
t30.5 19.5l202 54q5 1 8.5 1.5t6.5 0.5q23 0 35.5 -16t12.5 -36q0 -14 -8.5 -28.5t-29.5 -19.5z" />
    <glyph glyph-name="Scedilla" unicode="&#x15e;" horiz-adv-x="685" 
d="M435 -96q0 -28 -11.5 -50.5t-30 -38t-42.5 -24t-49 -8.5q-26 0 -39 15.5t-13 34.5q0 24 12.5 32t27.5 13t27.5 13t12.5 32t-13 41.5t-24 35.5h-143q-99 0 -99 100q0 107 100 107h276q41 0 41 31t-41 31h-168q-111 0 -165 60.5t-54 177.5q0 238 234 238h227q98 0 98 -100
q0 -107 -99 -107h-240q-41 0 -41 -31t41 -31h169q109 0 164 -60.5t55 -177.5q0 -238 -232 -238h-20q6 -11 13 -21t12.5 -21t9.5 -24t4 -30z" />
    <glyph glyph-name="scedilla" unicode="&#x15f;" horiz-adv-x="685" 
d="M435 -96q0 -28 -11.5 -50.5t-30 -38t-42.5 -24t-49 -8.5q-26 0 -39 15.5t-13 34.5q0 24 12.5 32t27.5 13t27.5 13t12.5 32t-13 41.5t-24 35.5h-143q-99 0 -99 100q0 107 100 107h276q41 0 41 31t-41 31h-168q-111 0 -165 60.5t-54 177.5q0 238 234 238h227q98 0 98 -100
q0 -107 -99 -107h-240q-41 0 -41 -31t41 -31h169q109 0 164 -60.5t55 -177.5q0 -238 -232 -238h-20q6 -11 13 -21t12.5 -21t9.5 -24t4 -30z" />
    <glyph glyph-name="Scaron" unicode="&#x160;" horiz-adv-x="685" 
d="M150 0q-99 0 -99 100q0 107 100 107h276q41 0 41 31t-41 31h-168q-219 6 -219 238q0 238 234 238h227q98 0 98 -100q0 -107 -99 -107h-240q-41 0 -41 -31t41 -31h169q219 -6 219 -238q0 -238 -232 -238h-266zM381 779q-16 -25 -35 -25q-11 0 -22 7.5t-25 22.5l-72 78
q-14 9 -14 29t15 35t35 15t36 -16l45 -44l45 45q16 16 36 16t35 -15t15 -35q0 -11 -4 -19t-13 -17z" />
    <glyph glyph-name="scaron" unicode="&#x161;" horiz-adv-x="685" 
d="M150 0q-99 0 -99 100q0 107 100 107h276q41 0 41 31t-41 31h-168q-219 6 -219 238q0 238 234 238h227q98 0 98 -100q0 -107 -99 -107h-240q-41 0 -41 -31t41 -31h169q219 -6 219 -238q0 -238 -232 -238h-266zM381 779q-16 -25 -35 -25q-11 0 -22 7.5t-25 22.5l-72 78
q-14 9 -14 29t15 35t35 15t36 -16l45 -44l45 45q16 16 36 16t35 -15t15 -35q0 -11 -4 -19t-13 -17z" />
    <glyph glyph-name="Tcommaaccent" unicode="&#x162;" horiz-adv-x="586" 
d="M192 538h-72q-49 0 -76.5 31t-27.5 73t27.5 72.5t76.5 30.5h347q49 0 76.5 -30.5t27.5 -72.5t-27.5 -73t-76.5 -31h-70v-435q0 -24 -13.5 -76.5t-40.5 -116.5q-14 -32 -32.5 -50t-45.5 -18q-57 0 -57 51q0 5 0.5 9.5t2.5 11.5l22 105q-19 12 -30 33.5t-11 50.5v435z" />
    <glyph glyph-name="tcommaaccent" unicode="&#x163;" horiz-adv-x="586" 
d="M192 538h-72q-49 0 -76.5 31t-27.5 73t27.5 72.5t76.5 30.5h347q49 0 76.5 -30.5t27.5 -72.5t-27.5 -73t-76.5 -31h-70v-435q0 -24 -13.5 -76.5t-40.5 -116.5q-14 -32 -32.5 -50t-45.5 -18q-57 0 -57 51q0 5 0.5 9.5t2.5 11.5l22 105q-19 12 -30 33.5t-11 50.5v435z" />
    <glyph glyph-name="Tcaron" unicode="&#x164;" horiz-adv-x="586" 
d="M192 538h-72q-49 0 -76.5 31t-27.5 73t27.5 72.5t76.5 30.5h347q49 0 76.5 -30.5t27.5 -72.5t-27.5 -73t-76.5 -31h-70v-435q0 -51 -30.5 -76.5t-72.5 -25.5t-72 25.5t-30 76.5v435zM331 779q-16 -25 -35 -25q-11 0 -22 7.5t-25 22.5l-72 78q-14 9 -14 29t15 35t35 15
t36 -16l45 -44l45 45q16 16 36 16t35 -15t15 -35q0 -11 -4 -19t-13 -17z" />
    <glyph glyph-name="tcaron" unicode="&#x165;" horiz-adv-x="586" 
d="M192 538h-72q-49 0 -76.5 31t-27.5 73t27.5 72.5t76.5 30.5h347q49 0 76.5 -30.5t27.5 -72.5t-27.5 -73t-76.5 -31h-70v-435q0 -51 -30.5 -76.5t-72.5 -25.5t-72 25.5t-30 76.5v435zM331 779q-16 -25 -35 -25q-11 0 -22 7.5t-25 22.5l-72 78q-14 9 -14 29t15 35t35 15
t36 -16l45 -44l45 45q16 16 36 16t35 -15t15 -35q0 -11 -4 -19t-13 -17z" />
    <glyph glyph-name="Umacron" unicode="&#x16a;" horiz-adv-x="663" 
d="M326 0q-284 0 -284 328v314q0 25 8.5 44t22.5 32t32.5 19.5t39.5 6.5q42 0 72.5 -25.5t30.5 -76.5v-345q0 -93 83 -93q84 0 84 93v345q0 49 30 75.5t72 26.5t73 -25.5t31 -76.5v-314q0 -328 -286 -328h-9zM171 785q-24 0 -37.5 15.5t-13.5 35.5t13.5 36t37.5 16h321
q25 0 38 -16t13 -36t-13 -35.5t-38 -15.5h-321z" />
    <glyph glyph-name="umacron" unicode="&#x16b;" horiz-adv-x="663" 
d="M326 0q-284 0 -284 328v314q0 25 8.5 44t22.5 32t32.5 19.5t39.5 6.5q42 0 72.5 -25.5t30.5 -76.5v-345q0 -93 83 -93q84 0 84 93v345q0 49 30 75.5t72 26.5t73 -25.5t31 -76.5v-314q0 -328 -286 -328h-9zM171 785q-24 0 -37.5 15.5t-13.5 35.5t13.5 36t37.5 16h321
q25 0 38 -16t13 -36t-13 -35.5t-38 -15.5h-321z" />
    <glyph glyph-name="Uring" unicode="&#x16e;" horiz-adv-x="663" 
d="M326 0q-284 0 -284 328v314q0 25 8.5 44t22.5 32t32.5 19.5t39.5 6.5q42 0 72.5 -25.5t30.5 -76.5v-345q0 -93 83 -93q84 0 84 93v345q0 49 30 75.5t72 26.5t73 -25.5t31 -76.5v-314q0 -328 -286 -328h-9zM381 830q0 20 -14 34t-34 14q-21 0 -35.5 -14t-14.5 -34
q0 -21 14.5 -35.5t35.5 -14.5q20 0 34 14.5t14 35.5zM333 718q-24 0 -44.5 8.5t-36 23.5t-24 35.5t-8.5 44.5t8.5 44.5t24 35.5t36 23.5t44.5 8.5t44.5 -8.5t35.5 -23.5t23.5 -35.5t8.5 -44.5t-8.5 -44.5t-23.5 -35.5t-35.5 -23.5t-44.5 -8.5z" />
    <glyph glyph-name="uring" unicode="&#x16f;" horiz-adv-x="663" 
d="M326 0q-284 0 -284 328v314q0 25 8.5 44t22.5 32t32.5 19.5t39.5 6.5q42 0 72.5 -25.5t30.5 -76.5v-345q0 -93 83 -93q84 0 84 93v345q0 49 30 75.5t72 26.5t73 -25.5t31 -76.5v-314q0 -328 -286 -328h-9zM381 830q0 20 -14 34t-34 14q-21 0 -35.5 -14t-14.5 -34
q0 -21 14.5 -35.5t35.5 -14.5q20 0 34 14.5t14 35.5zM333 718q-24 0 -44.5 8.5t-36 23.5t-24 35.5t-8.5 44.5t8.5 44.5t24 35.5t36 23.5t44.5 8.5t44.5 -8.5t35.5 -23.5t23.5 -35.5t8.5 -44.5t-8.5 -44.5t-23.5 -35.5t-35.5 -23.5t-44.5 -8.5z" />
    <glyph glyph-name="Uhungarumlaut" unicode="&#x170;" horiz-adv-x="663" 
d="M326 0q-284 0 -284 328v314q0 25 8.5 44t22.5 32t32.5 19.5t39.5 6.5q42 0 72.5 -25.5t30.5 -76.5v-345q0 -93 83 -93q84 0 84 93v345q0 49 30 75.5t72 26.5t73 -25.5t31 -76.5v-314q0 -328 -286 -328h-9zM359 820q14 46 24.5 70.5t20.5 36t19.5 13.5t21.5 2q26 0 43 -17
t17 -43q-14 -45 -24.5 -69.5t-19.5 -36t-18 -14t-20 -2.5q-27 0 -45.5 16.5t-18.5 43.5zM160 820q13 46 23.5 70.5t20.5 36t20 13.5t22 2q26 0 43 -17t17 -43q-14 -46 -24.5 -70.5t-20 -36t-19.5 -13.5t-22 -2q-26 0 -43 17t-17 43z" />
    <glyph glyph-name="uhungarumlaut" unicode="&#x171;" horiz-adv-x="663" 
d="M326 0q-284 0 -284 328v314q0 25 8.5 44t22.5 32t32.5 19.5t39.5 6.5q42 0 72.5 -25.5t30.5 -76.5v-345q0 -93 83 -93q84 0 84 93v345q0 49 30 75.5t72 26.5t73 -25.5t31 -76.5v-314q0 -328 -286 -328h-9zM359 820q14 46 24.5 70.5t20.5 36t19.5 13.5t21.5 2q26 0 43 -17
t17 -43q-14 -45 -24.5 -69.5t-19.5 -36t-18 -14t-20 -2.5q-27 0 -45.5 16.5t-18.5 43.5zM160 820q13 46 23.5 70.5t20.5 36t20 13.5t22 2q26 0 43 -17t17 -43q-14 -46 -24.5 -70.5t-20 -36t-19.5 -13.5t-22 -2q-26 0 -43 17t-17 43z" />
    <glyph glyph-name="Uogonek" unicode="&#x172;" horiz-adv-x="663" 
d="M326 0q-284 0 -284 328v314q0 25 8.5 44t22.5 32t32.5 19.5t39.5 6.5q42 0 72.5 -25.5t30.5 -76.5v-345q0 -93 83 -93q84 0 84 93v345q0 49 30 75.5t72 26.5t73 -25.5t31 -76.5v-314q0 -328 -286 -328h-9zM621 -167q0 -19 -12.5 -34.5t-38.5 -15.5t-50 8.5t-42.5 24
t-30 38t-11.5 50.5q0 25 8 42t17.5 32.5t17.5 33.5t8 45q0 26 15.5 38t34.5 12q9 0 18.5 -2t17.5 -9t13 -20.5t5 -36.5q0 -16 -8 -29.5t-17 -26.5t-17 -27.5t-8 -32.5q0 -24 12.5 -32t27.5 -13t27.5 -13t12.5 -32z" />
    <glyph glyph-name="uogonek" unicode="&#x173;" horiz-adv-x="663" 
d="M326 0q-284 0 -284 328v314q0 25 8.5 44t22.5 32t32.5 19.5t39.5 6.5q42 0 72.5 -25.5t30.5 -76.5v-345q0 -93 83 -93q84 0 84 93v345q0 49 30 75.5t72 26.5t73 -25.5t31 -76.5v-314q0 -328 -286 -328h-9zM621 -167q0 -19 -12.5 -34.5t-38.5 -15.5t-50 8.5t-42.5 24
t-30 38t-11.5 50.5q0 25 8 42t17.5 32.5t17.5 33.5t8 45q0 26 15.5 38t34.5 12q9 0 18.5 -2t17.5 -9t13 -20.5t5 -36.5q0 -16 -8 -29.5t-17 -26.5t-17 -27.5t-8 -32.5q0 -24 12.5 -32t27.5 -13t27.5 -13t12.5 -32z" />
    <glyph glyph-name="Wcircumflex" unicode="&#x174;" horiz-adv-x="923" 
d="M289 0q-15 0 -30.5 3t-30 12t-26.5 24t-19 39l-151 540q-5 20 -5 32q0 22 9 40t24.5 31t35.5 20t41 7q30 0 56.5 -19t37.5 -57l130 -465h39v435q0 49 30 75.5t72 26.5t73 -25.5t31 -76.5v-435h63v435q0 49 30 75.5t72 26.5t73 -25.5t31 -76.5v-539q0 -103 -104 -103h-482
zM501 819l-45 -45q-16 -16 -36 -16t-35 14.5t-15 34.5q0 22 16 37l67 62q28 25 49 25t50 -24l66 -70q5 -5 9.5 -12t4.5 -16q0 -20 -15 -35t-35 -15t-36 16z" />
    <glyph glyph-name="wcircumflex" unicode="&#x175;" horiz-adv-x="923" 
d="M289 0q-15 0 -30.5 3t-30 12t-26.5 24t-19 39l-151 540q-5 20 -5 32q0 22 9 40t24.5 31t35.5 20t41 7q30 0 56.5 -19t37.5 -57l130 -465h39v435q0 49 30 75.5t72 26.5t73 -25.5t31 -76.5v-435h63v435q0 49 30 75.5t72 26.5t73 -25.5t31 -76.5v-539q0 -103 -104 -103h-482
zM512 819l-45 -45q-16 -16 -36 -16t-35 14.5t-15 34.5q0 22 16 37l67 62q28 25 49 25t50 -24l66 -70q5 -5 9.5 -12t4.5 -16q0 -20 -15 -35t-35 -15t-36 16z" />
    <glyph glyph-name="Ycircumflex" unicode="&#x176;" horiz-adv-x="608" 
d="M202 323l-166 265q-9 14 -12.5 28.5t-3.5 26.5q0 19 9 37.5t24 33t34.5 23t40.5 8.5q25 0 47 -13t38 -40l91 -156l91 156q31 53 85 53q21 0 40.5 -8.5t34.5 -23t24 -33t9 -37.5q0 -12 -4 -26.5t-12 -28.5l-165 -265v-221q0 -51 -30 -76.5t-72 -25.5t-72.5 25.5
t-30.5 76.5v221zM305 819l-45 -45q-16 -16 -36 -16t-35 14.5t-15 34.5q0 22 16 37l67 62q28 25 49 25t50 -24l66 -70q5 -5 9.5 -12t4.5 -16q0 -20 -15 -35t-35 -15t-36 16z" />
    <glyph glyph-name="ycircumflex" unicode="&#x177;" horiz-adv-x="608" 
d="M202 323l-166 265q-9 14 -12.5 28.5t-3.5 26.5q0 19 9 37.5t24 33t34.5 23t40.5 8.5q25 0 47 -13t38 -40l91 -156l91 156q31 53 85 53q21 0 40.5 -8.5t34.5 -23t24 -33t9 -37.5q0 -12 -4 -26.5t-12 -28.5l-165 -265v-221q0 -51 -30 -76.5t-72 -25.5t-72.5 25.5
t-30.5 76.5v221zM305 819l-45 -45q-16 -16 -36 -16t-35 14.5t-15 34.5q0 22 16 37l67 62q28 25 49 25t50 -24l66 -70q5 -5 9.5 -12t4.5 -16q0 -20 -15 -35t-35 -15t-36 16z" />
    <glyph glyph-name="Ydieresis" unicode="&#x178;" horiz-adv-x="608" 
d="M202 323l-166 265q-9 14 -12.5 28.5t-3.5 26.5q0 19 9 37.5t24 33t34.5 23t40.5 8.5q25 0 47 -13t38 -40l91 -156l91 156q31 53 85 53q21 0 40.5 -8.5t34.5 -23t24 -33t9 -37.5q0 -12 -4 -26.5t-12 -28.5l-165 -265v-221q0 -51 -30 -76.5t-72 -25.5t-72.5 25.5
t-30.5 76.5v221zM405 760q-25 0 -42.5 17t-17.5 43t17.5 43t42.5 17q26 0 43 -17t17 -43t-17 -43t-43 -17zM206 760q-26 0 -43 17t-17 43t17 43t43 17q25 0 42.5 -17t17.5 -43t-17.5 -43t-42.5 -17z" />
    <glyph glyph-name="Zacute" unicode="&#x179;" horiz-adv-x="719" 
d="M169 0q-51 0 -82 24t-31 72q0 46 44 90l274 352h-212q-49 0 -76 31t-27 73t27 72.5t76 30.5h397q42 0 70 -24.5t28 -67.5q0 -24 -3.5 -37t-15.5 -29l-282 -380h198q49 0 76.5 -31t27.5 -73t-27.5 -72.5t-76.5 -30.5h-385zM273 774l-8 -2t-7 -1q-23 0 -36 16.5t-13 36.5
q0 14 8.5 27.5t30.5 19.5l202 54q5 1 8.5 1.5t6.5 0.5q23 0 35.5 -16t12.5 -36q0 -14 -8.5 -28.5t-29.5 -19.5z" />
    <glyph glyph-name="zacute" unicode="&#x17a;" horiz-adv-x="719" 
d="M169 0q-51 0 -82 24t-31 72q0 46 44 90l274 352h-212q-49 0 -76 31t-27 73t27 72.5t76 30.5h397q42 0 70 -24.5t28 -67.5q0 -24 -3.5 -37t-15.5 -29l-282 -380h198q49 0 76.5 -31t27.5 -73t-27.5 -72.5t-76.5 -30.5h-385zM273 774l-8 -2t-7 -1q-23 0 -36 16.5t-13 36.5
q0 14 8.5 27.5t30.5 19.5l202 54q5 1 8.5 1.5t6.5 0.5q23 0 35.5 -16t12.5 -36q0 -14 -8.5 -28.5t-29.5 -19.5z" />
    <glyph glyph-name="Zdotaccent" unicode="&#x17b;" horiz-adv-x="719" 
d="M169 0q-51 0 -82 24t-31 72q0 46 44 90l274 352h-212q-49 0 -76 31t-27 73t27 72.5t76 30.5h397q42 0 70 -24.5t28 -67.5q0 -24 -3.5 -37t-15.5 -29l-282 -380h198q49 0 76.5 -31t27.5 -73t-27.5 -72.5t-76.5 -30.5h-385zM361 760q-25 0 -42.5 17t-17.5 43t17.5 43
t42.5 17q26 0 43 -17t17 -43t-17 -43t-43 -17z" />
    <glyph glyph-name="zdotaccent" unicode="&#x17c;" horiz-adv-x="719" 
d="M169 0q-51 0 -82 24t-31 72q0 46 44 90l274 352h-212q-49 0 -76 31t-27 73t27 72.5t76 30.5h397q42 0 70 -24.5t28 -67.5q0 -24 -3.5 -37t-15.5 -29l-282 -380h198q49 0 76.5 -31t27.5 -73t-27.5 -72.5t-76.5 -30.5h-385zM361 760q-25 0 -42.5 17t-17.5 43t17.5 43
t42.5 17q26 0 43 -17t17 -43t-17 -43t-43 -17z" />
    <glyph glyph-name="Zcaron" unicode="&#x17d;" horiz-adv-x="719" 
d="M169 0q-51 0 -82 24t-31 72q0 46 44 90l274 352h-212q-49 0 -76 31t-27 73t27 72.5t76 30.5h397q42 0 70 -24.5t28 -67.5q0 -24 -3.5 -37t-15.5 -29l-282 -380h198q49 0 76.5 -31t27.5 -73t-27.5 -72.5t-76.5 -30.5h-385zM398 779q-16 -25 -35 -25q-11 0 -22 7.5
t-25 22.5l-72 78q-14 9 -14 29t15 35t35 15t36 -16l45 -44l45 45q16 16 36 16t35 -15t15 -35q0 -11 -4 -19t-13 -17z" />
    <glyph glyph-name="zcaron" unicode="&#x17e;" horiz-adv-x="719" 
d="M169 0q-51 0 -82 24t-31 72q0 46 44 90l274 352h-212q-49 0 -76 31t-27 73t27 72.5t76 30.5h397q42 0 70 -24.5t28 -67.5q0 -24 -3.5 -37t-15.5 -29l-282 -380h198q49 0 76.5 -31t27.5 -73t-27.5 -72.5t-76.5 -30.5h-385zM398 779q-16 -25 -35 -25q-11 0 -22 7.5
t-25 22.5l-72 78q-14 9 -14 29t15 35t35 15t36 -16l45 -44l45 45q16 16 36 16t35 -15t15 -35q0 -11 -4 -19t-13 -17z" />
    <glyph glyph-name="florin" unicode="&#x192;" horiz-adv-x="1762" 
d="M1429 202h-86l-11 214h-6v-214h-48v333h83l13 -215h8v215h47v-333zM733 202h-117v333h117l16 -37v-96l-11 -24v-5l11 -25v-109zM1239 202h-99l-14 37v259l14 37h100l16 -37v-259zM441 202h-60v146h-16v-146h-57v333h117l16 -37v-86l-22 -34v-5l22 -38v-133zM1692 202h-96
l-16 37v75h57v-50h15v69l-55 15l-17 35v115l16 37h97l15 -37v-66h-56v43h-15v-59l53 -14l18 -37v-126zM287 202h-60v62h-18v-62h-54v122l33 211h60l39 -211v-122zM592 202h-55v62h-17v-62h-56v122l33 211h60l35 -211v-122zM946 202h-94v333h94v-70h-39v-63h39v-58h-39v-69
h39v-73zM1067 202h-58v333h94v-70h-36v-68h36v-58h-36v-137zM1534 202h-57v263h-32v70h119v-70h-30v-263zM132 202h-88v333h56v-260h32v-73zM830 202h-57v333h57v-333zM1199 264v211h-17v-211h17zM229 314l-7 122h-5l-8 -122h20zM540 314l-5 122h-8l-7 -122h20zM690 264v84
h-16v-84h16zM690 402v73h-16v-73h16zM381 402v73h-16v-73h16z" />
    <glyph glyph-name="Scommaaccent" unicode="&#x218;" horiz-adv-x="685" 
d="M150 0q-99 0 -99 100q0 107 100 107h276q41 0 41 31t-41 31h-168q-219 6 -219 238q0 238 234 238h227q98 0 98 -100q0 -107 -99 -107h-240q-41 0 -41 -31t41 -31h169q219 -6 219 -238q0 -238 -232 -238h-266zM368 -148q-15 -69 -77 -69q-32 0 -44.5 15.5t-12.5 43.5
q0 8 2 13l32 146q16 73 77 73q29 0 43.5 -15t14.5 -38q0 -13 -3 -23z" />
    <glyph glyph-name="circumflex" unicode="&#x2c6;" horiz-adv-x="708" 
d="M379 819l-45 -45q-16 -16 -36 -16t-35 14.5t-15 34.5q0 22 16 37l67 62q28 25 49 25t50 -24l66 -70q5 -5 9.5 -12t4.5 -16q0 -20 -15 -35t-35 -15t-36 16z" />
    <glyph glyph-name="caron" unicode="&#x2c7;" horiz-adv-x="708" 
d="M416 779q-16 -25 -35 -25q-11 0 -22 7.5t-25 22.5l-72 78q-14 9 -14 29t15 35t35 15t36 -16l45 -44l45 45q16 16 36 16t35 -15t15 -35q0 -11 -4 -19t-13 -17z" />
    <glyph glyph-name="breve" unicode="&#x2d8;" horiz-adv-x="708" 
d="M510 892q0 -21 -10.5 -38t-28.5 -28.5t-41.5 -17.5t-50.5 -6t-50.5 6.5t-41.5 18t-28.5 28t-10.5 36.5q0 23 15 37t35 14q12 0 20 -7t16.5 -15.5t19 -15.5t25.5 -7t24.5 7t17.5 15.5t16.5 15.5t22.5 7q20 0 35 -15t15 -35z" />
    <glyph glyph-name="dotaccent" unicode="&#x2d9;" horiz-adv-x="708" 
d="M371 760q-25 0 -42.5 17t-17.5 43t17.5 43t42.5 17q26 0 43 -17t17 -43t-17 -43t-43 -17z" />
    <glyph glyph-name="ring" unicode="&#x2da;" horiz-adv-x="708" 
d="M426 830q0 20 -14 34t-34 14q-21 0 -35.5 -14t-14.5 -34q0 -21 14.5 -35.5t35.5 -14.5q20 0 34 14.5t14 35.5zM378 718q-24 0 -44.5 8.5t-36 23.5t-24 35.5t-8.5 44.5t8.5 44.5t24 35.5t36 23.5t44.5 8.5t44.5 -8.5t35.5 -23.5t23.5 -35.5t8.5 -44.5t-8.5 -44.5
t-23.5 -35.5t-35.5 -23.5t-44.5 -8.5z" />
    <glyph glyph-name="ogonek" unicode="&#x2db;" horiz-adv-x="465" 
d="M318 -167q0 -19 -12.5 -34.5t-38.5 -15.5t-50 8.5t-42.5 24t-30 38t-11.5 50.5q0 25 8 42t17.5 32.5t17.5 33.5t8 45q0 26 15.5 38t34.5 12q9 0 18.5 -2t17.5 -9t13 -20.5t5 -36.5q0 -16 -8 -29.5t-17 -26.5t-17 -27.5t-8 -32.5q0 -24 12.5 -32t27.5 -13t27.5 -13
t12.5 -32z" />
    <glyph glyph-name="tilde" unicode="&#x2dc;" horiz-adv-x="708" 
d="M265 926q29 0 51 -8t41 -17t36 -17t37 -8q19 0 30.5 8.5t20.5 19t19.5 19t27.5 8.5q20 0 35.5 -15t15.5 -36q0 -24 -14 -43.5t-36 -33t-49.5 -20.5t-54.5 -7q-25 0 -45.5 7.5t-38.5 17t-35.5 17t-36.5 7.5q-17 0 -27 -8.5t-19 -18.5t-19 -18.5t-26 -8.5q-20 0 -36 14
t-16 36q0 23 14.5 42.5t35.5 33.5t45 21.5t44 7.5z" />
    <glyph glyph-name="hungarumlaut" unicode="&#x2dd;" horiz-adv-x="708" 
d="M422 820q14 46 24.5 70.5t20.5 36t19.5 13.5t21.5 2q26 0 43 -17t17 -43q-14 -45 -24.5 -69.5t-19.5 -36t-18 -14t-20 -2.5q-27 0 -45.5 16.5t-18.5 43.5zM223 820q13 46 23.5 70.5t20.5 36t20 13.5t22 2q26 0 43 -17t17 -43q-14 -46 -24.5 -70.5t-20 -36t-19.5 -13.5
t-22 -2q-26 0 -43 17t-17 43z" />
    <glyph glyph-name="Wgrave" unicode="&#x1e80;" horiz-adv-x="923" 
d="M289 0q-15 0 -30.5 3t-30 12t-26.5 24t-19 39l-151 540q-5 20 -5 32q0 22 9 40t24.5 31t35.5 20t41 7q30 0 56.5 -19t37.5 -57l130 -465h39v435q0 49 30 75.5t72 26.5t73 -25.5t31 -76.5v-435h63v435q0 49 30 75.5t72 26.5t73 -25.5t31 -76.5v-539q0 -103 -104 -103h-482
zM367 827q-22 6 -30.5 20t-8.5 28q0 20 13 36t36 16q2 0 6 -0.5t9 -1.5l202 -54q21 -6 29.5 -21t8.5 -26q0 -20 -12.5 -36.5t-35.5 -16.5q-3 0 -7 1l-8 2z" />
    <glyph glyph-name="wgrave" unicode="&#x1e81;" horiz-adv-x="923" 
d="M289 0q-15 0 -30.5 3t-30 12t-26.5 24t-19 39l-151 540q-5 20 -5 32q0 22 9 40t24.5 31t35.5 20t41 7q30 0 56.5 -19t37.5 -57l130 -465h39v435q0 49 30 75.5t72 26.5t73 -25.5t31 -76.5v-435h63v435q0 49 30 75.5t72 26.5t73 -25.5t31 -76.5v-539q0 -103 -104 -103h-482
zM375 827q-22 6 -30.5 20t-8.5 28q0 20 13 36t36 16q2 0 6 -0.5t9 -1.5l202 -54q21 -6 29.5 -21t8.5 -26q0 -20 -12.5 -36.5t-35.5 -16.5q-3 0 -7 1l-8 2z" />
    <glyph glyph-name="Wacute" unicode="&#x1e82;" horiz-adv-x="923" 
d="M289 0q-15 0 -30.5 3t-30 12t-26.5 24t-19 39l-151 540q-5 20 -5 32q0 22 9 40t24.5 31t35.5 20t41 7q30 0 56.5 -19t37.5 -57l130 -465h39v435q0 49 30 75.5t72 26.5t73 -25.5t31 -76.5v-435h63v435q0 49 30 75.5t72 26.5t73 -25.5t31 -76.5v-539q0 -103 -104 -103h-482
zM418 774l-8 -2t-7 -1q-23 0 -36 16.5t-13 36.5q0 14 8.5 27.5t30.5 19.5l202 54q5 1 8.5 1.5t6.5 0.5q23 0 35.5 -16t12.5 -36q0 -14 -8.5 -28.5t-29.5 -19.5z" />
    <glyph glyph-name="wacute" unicode="&#x1e83;" horiz-adv-x="923" 
d="M289 0q-15 0 -30.5 3t-30 12t-26.5 24t-19 39l-151 540q-5 20 -5 32q0 22 9 40t24.5 31t35.5 20t41 7q30 0 56.5 -19t37.5 -57l130 -465h39v435q0 49 30 75.5t72 26.5t73 -25.5t31 -76.5v-435h63v435q0 49 30 75.5t72 26.5t73 -25.5t31 -76.5v-539q0 -103 -104 -103h-482
zM410 774l-8 -2t-7 -1q-23 0 -36 16.5t-13 36.5q0 14 8.5 27.5t30.5 19.5l202 54q5 1 8.5 1.5t6.5 0.5q23 0 35.5 -16t12.5 -36q0 -14 -8.5 -28.5t-29.5 -19.5z" />
    <glyph glyph-name="Wdieresis" unicode="&#x1e84;" horiz-adv-x="923" 
d="M289 0q-15 0 -30.5 3t-30 12t-26.5 24t-19 39l-151 540q-5 20 -5 32q0 22 9 40t24.5 31t35.5 20t41 7q30 0 56.5 -19t37.5 -57l130 -465h39v435q0 49 30 75.5t72 26.5t73 -25.5t31 -76.5v-435h63v435q0 49 30 75.5t72 26.5t73 -25.5t31 -76.5v-539q0 -103 -104 -103h-482
zM611 760q-25 0 -42.5 17t-17.5 43t17.5 43t42.5 17q26 0 43 -17t17 -43t-17 -43t-43 -17zM412 760q-26 0 -43 17t-17 43t17 43t43 17q25 0 42.5 -17t17.5 -43t-17.5 -43t-42.5 -17z" />
    <glyph glyph-name="wdieresis" unicode="&#x1e85;" horiz-adv-x="923" 
d="M289 0q-15 0 -30.5 3t-30 12t-26.5 24t-19 39l-151 540q-5 20 -5 32q0 22 9 40t24.5 31t35.5 20t41 7q30 0 56.5 -19t37.5 -57l130 -465h39v435q0 49 30 75.5t72 26.5t73 -25.5t31 -76.5v-435h63v435q0 49 30 75.5t72 26.5t73 -25.5t31 -76.5v-539q0 -103 -104 -103h-482
zM613 760q-25 0 -42.5 17t-17.5 43t17.5 43t42.5 17q26 0 43 -17t17 -43t-17 -43t-43 -17zM414 760q-26 0 -43 17t-17 43t17 43t43 17q25 0 42.5 -17t17.5 -43t-17.5 -43t-42.5 -17z" />
    <glyph glyph-name="Ygrave" unicode="&#x1ef2;" horiz-adv-x="608" 
d="M202 323l-166 265q-9 14 -12.5 28.5t-3.5 26.5q0 19 9 37.5t24 33t34.5 23t40.5 8.5q25 0 47 -13t38 -40l91 -156l91 156q31 53 85 53q21 0 40.5 -8.5t34.5 -23t24 -33t9 -37.5q0 -12 -4 -26.5t-12 -28.5l-165 -265v-221q0 -51 -30 -76.5t-72 -25.5t-72.5 25.5
t-30.5 76.5v221zM192 827q-22 6 -30.5 20t-8.5 28q0 20 13 36t36 16q2 0 6 -0.5t9 -1.5l202 -54q21 -6 29.5 -21t8.5 -26q0 -20 -12.5 -36.5t-35.5 -16.5q-3 0 -7 1l-8 2z" />
    <glyph glyph-name="ygrave" unicode="&#x1ef3;" horiz-adv-x="608" 
d="M202 323l-166 265q-9 14 -12.5 28.5t-3.5 26.5q0 19 9 37.5t24 33t34.5 23t40.5 8.5q25 0 47 -13t38 -40l91 -156l91 156q31 53 85 53q21 0 40.5 -8.5t34.5 -23t24 -33t9 -37.5q0 -12 -4 -26.5t-12 -28.5l-165 -265v-221q0 -51 -30 -76.5t-72 -25.5t-72.5 25.5
t-30.5 76.5v221zM192 827q-22 6 -30.5 20t-8.5 28q0 20 13 36t36 16q2 0 6 -0.5t9 -1.5l202 -54q21 -6 29.5 -21t8.5 -26q0 -20 -12.5 -36.5t-35.5 -16.5q-3 0 -7 1l-8 2z" />
    <glyph glyph-name="endash" unicode="&#x2013;" horiz-adv-x="887" 
d="M146 267q-24 0 -43.5 8.5t-33 22.5t-20.5 32.5t-7 39.5t7 40t20.5 34t33 23.5t43.5 8.5h583q24 0 43.5 -8.5t32.5 -23.5t20 -34t7 -40t-7 -39.5t-20 -32.5t-32.5 -22.5t-43.5 -8.5h-583z" />
    <glyph glyph-name="emdash" unicode="&#x2014;" horiz-adv-x="1270" 
d="M137 267q-24 0 -43.5 8.5t-32.5 22.5t-20 32.5t-7 39.5t7 40t20 34t32.5 23.5t43.5 8.5h989q24 0 43.5 -8.5t33 -23.5t20.5 -34t7 -40t-7 -39.5t-20.5 -32.5t-33 -22.5t-43.5 -8.5h-989z" />
    <glyph glyph-name="quoteleft" unicode="&#x2018;" horiz-adv-x="197" 
d="M16 714q-4 12 -4 26q0 29 18.5 42t41.5 13t44.5 -16t29.5 -48l33 -148q2 -5 2.5 -11.5t0.5 -12.5q0 -25 -14 -40.5t-42 -15.5q-62 0 -75 61z" />
    <glyph glyph-name="quoteright" unicode="&#x2019;" horiz-adv-x="199" 
d="M148 573q-16 -70 -76 -70q-26 0 -42 13.5t-16 39.5q0 4 0.5 8.5t1.5 9.5l31 149q17 72 79 72q31 0 44.5 -14t13.5 -36q0 -5 -0.5 -11t-1.5 -11z" />
    <glyph glyph-name="quotesinglbase" unicode="&#x201a;" horiz-adv-x="249" 
d="M164 -90q-15 -68 -77 -68q-32 0 -44.5 14.5t-12.5 44.5v5t2 8l32 146q15 72 77 72q29 0 43.5 -14.5t14.5 -37.5q0 -12 -3 -24z" />
    <glyph glyph-name="quotedblleft" unicode="&#x201c;" horiz-adv-x="381" 
d="M19 714q-4 11 -4 26q0 29 17.5 42t42.5 13q23 0 44 -16t29 -48l34 -148q2 -4 2 -14q0 -29 -12.5 -47.5t-44.5 -18.5q-60 0 -73 61zM204 714q-3 13 -3 26q0 29 17.5 42t40.5 13q24 0 45 -16t29 -48l33 -148q2 -5 2.5 -11.5t0.5 -12.5q0 -25 -14 -40.5t-42 -15.5
q-61 0 -74 61z" />
    <glyph glyph-name="quotedblright" unicode="&#x201d;" horiz-adv-x="384" 
d="M336 573q-16 -70 -76 -70q-26 0 -41.5 13.5t-15.5 39.5q0 4 0.5 8.5t0.5 9.5l33 149q15 72 77 72q32 0 45.5 -14t13.5 -36q0 -5 -1 -11t-2 -11zM151 573q-15 -70 -76 -70q-26 0 -42.5 13.5t-16.5 39.5q0 7 3 18l31 149q15 72 77 72q32 0 46 -14t14 -36q0 -12 -3 -22z" />
    <glyph glyph-name="quotedblbase" unicode="&#x201e;" horiz-adv-x="417" 
d="M164 -90q-7 -35 -27 -51.5t-50 -16.5q-32 0 -44.5 14.5t-12.5 44.5v5t2 8l32 146q15 72 77 72q29 0 43.5 -14.5t14.5 -37.5q0 -12 -3 -24zM349 -90q-8 -35 -28 -51.5t-49 -16.5q-32 0 -44 14.5t-12 44.5v5t2 8l31 146q15 72 77 72q29 0 43.5 -14.5t14.5 -37.5
q0 -12 -3 -24z" />
    <glyph glyph-name="bullet" unicode="&#x2022;" horiz-adv-x="623" 
d="M545 439q0 -47 -18 -88.5t-49 -72.5t-73 -48.5t-89 -17.5t-88 17.5t-72 48.5t-48.5 72.5t-17.5 88.5t17.5 88.5t48.5 72.5t72 49t88 18t89 -18t73 -49t49 -72.5t18 -88.5z" />
    <glyph glyph-name="ellipsis" unicode="&#x2026;" horiz-adv-x="1807" 
d="M487 86q0 -21 -8 -39.5t-22.5 -32.5t-33 -22t-39.5 -8t-40 8t-33 22t-22.5 32.5t-8.5 39.5t8.5 39.5t22.5 33t33 22.5t40 8t39.5 -8t33 -22.5t22.5 -33t8 -39.5zM1007 86q0 -21 -8.5 -39.5t-22.5 -32.5t-33 -22t-40 -8t-39.5 8t-33 22t-22.5 32.5t-8 39.5t8 39.5t22.5 33
t33 22.5t39.5 8t40 -8t33 -22.5t22.5 -33t8.5 -39.5zM1526 86q0 -21 -8 -39.5t-22.5 -32.5t-33 -22t-39.5 -8t-39.5 8t-33 22t-22.5 32.5t-8 39.5t8 39.5t22.5 33t33 22.5t39.5 8t39.5 -8t33 -22.5t22.5 -33t8 -39.5z" />
    <glyph glyph-name="perthousand" unicode="&#x2030;" horiz-adv-x="999" 
d="M839 157q0 11 -7.5 18.5t-17.5 7.5q-11 0 -18 -7.5t-7 -18.5q0 -25 25 -25q10 0 17.5 7t7.5 18zM814 4q-32 0 -59.5 12t-48 32.5t-32.5 48t-12 59.5q0 31 12 58.5t32.5 48t48 32.5t59.5 12q31 0 59 -12t48.5 -32.5t32.5 -48t12 -58.5q0 -32 -12 -59.5t-32.5 -48
t-48.5 -32.5t-59 -12zM490 157q0 11 -7.5 18.5t-17.5 7.5q-11 0 -18 -7.5t-7 -18.5q0 -25 25 -25q10 0 17.5 7t7.5 18zM204 569q11 0 17.5 7.5t6.5 17.5q0 25 -24 25q-11 0 -18.5 -7t-7.5 -18q0 -10 7.5 -17.5t18.5 -7.5zM465 4q-32 0 -59.5 12t-48 32.5t-32.5 48t-12 59.5
q0 31 12 58.5t32.5 48t48 32.5t59.5 12q31 0 59 -12t48.5 -32.5t32.5 -48t12 -58.5q0 -32 -12 -59.5t-32.5 -48t-48.5 -32.5t-59 -12zM204 441q-33 0 -61.5 11.5t-48.5 32t-31.5 48t-11.5 59.5t12 60t33 48.5t48.5 32.5t59.5 12q30 0 57.5 -12t48.5 -33t33 -49t12 -59
q0 -30 -11.5 -57.5t-32 -48.5t-48 -33t-59.5 -12zM131 127q-11 -9 -21.5 -12t-21.5 -3q-28 0 -48.5 21.5t-20.5 50.5q0 31 25 53l625 494q19 15 44 15q28 0 48.5 -22t20.5 -50q0 -32 -27 -53z" />
    <glyph glyph-name="fraction" unicode="&#x2044;" horiz-adv-x="138" 
d="M-191 21q-32 -21 -63 -21q-21 0 -39.5 8.5t-32.5 23.5t-22 34t-8 40q0 45 37 78l674 540q28 22 64 22q20 0 38.5 -9t33 -23.5t23 -34t8.5 -40.5q0 -45 -40 -78z" />
    <glyph glyph-name="Euro" unicode="&#x20ac;" horiz-adv-x="638" 
d="M426 0q-68 0 -129.5 22t-111.5 61t-85 93t-48 119q-28 8 -43 30t-15 50t15 50t42 30q13 62 46 115t83.5 92t116.5 61t145 22h59q24 0 43.5 -8.5t32.5 -23.5t20 -34t7 -40t-7 -39.5t-20 -32.5t-32.5 -22.5t-43.5 -8.5h-75q-46 0 -86.5 -20t-64.5 -57h193q39 0 61 -25
t22 -59q0 -33 -22 -57.5t-61 -24.5h-195q22 -40 61.5 -63t90.5 -23h76q24 0 43.5 -8.5t32.5 -23.5t20 -34t7 -40q0 -42 -27 -71.5t-76 -29.5h-75z" />
    <glyph glyph-name="uni2117" unicode="&#x2117;" horiz-adv-x="816" 
d="M407 -1q-77 0 -145 29.5t-118.5 80.5t-80 119t-29.5 145t29.5 145t80 118.5t118.5 80t145 29.5t145 -29.5t119 -80t80.5 -118.5t29.5 -145t-29.5 -145t-80.5 -119t-119 -80.5t-145 -29.5zM741 371q0 69 -26 130t-71 106.5t-105.5 71.5t-129.5 26t-129.5 -26t-105.5 -71.5
t-70.5 -106.5t-25.5 -130t25.5 -129t70.5 -105t105.5 -71t129.5 -26t129.5 26t105.5 71t71 105t26 129zM373 319v-77q0 -50 -50 -50q-48 0 -48 50v116q0 59 55 59h124q18 0 18 15q0 14 -18 14h-133q-46 0 -46 50q0 49 46 49h126q111 0 111 -113t-109 -113h-76z" />
    <glyph glyph-name="trademark" unicode="&#x2122;" horiz-adv-x="806" 
d="M123 878h-36q-23 0 -37 15.5t-14 37.5q0 21 14 36.5t37 15.5h175q23 -1 37 -16t14 -36q0 -22 -14 -37.5t-37 -15.5h-35v-216q0 -26 -15.5 -38.5t-37.5 -12.5q-20 0 -35.5 12.5t-15.5 38.5v216zM578 877h-20v-217q0 -25 -14.5 -38t-36.5 -13t-36.5 13t-14.5 38v217h-32
v-217q0 -25 -15 -38t-36 -13q-22 0 -37 13t-15 38v270q0 51 52 51h241q14 0 30 -7.5t23 -31.5l74 -270q3 -11 3 -18q0 -22 -17.5 -34.5t-37.5 -12.5q-17 0 -29 9t-17 29z" />
    <glyph glyph-name="minus" unicode="&#x2212;" horiz-adv-x="628" 
d="M146 267q-24 0 -43.5 8.5t-33 22.5t-20.5 32.5t-7 39.5t7 40t20.5 34t33 23.5t43.5 8.5h336q24 0 43.5 -8.5t33 -23.5t20.5 -34t7 -40t-7 -39.5t-20.5 -32.5t-33 -22.5t-43.5 -8.5h-336z" />
    <glyph glyph-name="RS" horiz-adv-x="0" 
 />
    <glyph glyph-name="DC4" horiz-adv-x="0" 
 />
    <glyph glyph-name="DC3" horiz-adv-x="0" 
 />
    <glyph glyph-name="DC2" horiz-adv-x="0" 
 />
    <glyph glyph-name="DC1" horiz-adv-x="0" 
 />
    <glyph glyph-name="DLE" horiz-adv-x="0" 
 />
    <glyph glyph-name="nonmarkingreturn" horiz-adv-x="0" 
 />
    <glyph glyph-name="US" horiz-adv-x="0" 
 />
    <glyph glyph-name="commaaccent" horiz-adv-x="249" 
d="M164 -148q-15 -69 -77 -69q-32 0 -44.5 15.5t-12.5 43.5q0 8 2 13l32 146q16 73 77 73q29 0 43.5 -15t14.5 -38q0 -13 -3 -23z" />
    <glyph glyph-name="Imacron" horiz-adv-x="298" 
d="M45 642q0 51 30.5 76.5t72.5 25.5t72 -26.5t30 -75.5v-539q0 -51 -30 -76.5t-72 -25.5t-72.5 25.5t-30.5 76.5v539zM-10 785q-24 0 -37.5 15.5t-13.5 35.5t13.5 36t37.5 16h321q25 0 38 -16t13 -36t-13 -35.5t-38 -15.5h-321z" />
    <glyph glyph-name="apple" horiz-adv-x="826" 
d="M603 526q0 -41 14.5 -76.5t39.5 -62.5t59 -44t74 -20q-10 -70 -43 -130t-83 -104t-114.5 -69t-137.5 -25q-79 0 -148 29.5t-120.5 81t-81.5 120.5t-30 149q0 79 30 148.5t81.5 121t120.5 81.5t148 30q72 0 133.5 -23.5t112.5 -65.5q-26 -29 -40.5 -64t-14.5 -77z" />
    <glyph glyph-name="LF" horiz-adv-x="0" 
 />
    <glyph glyph-name="HT" horiz-adv-x="0" 
 />
    </font>
</defs>
</svg>
